SplineFontDB: 3.0
FontName: Bevan
FullName: Bevan
FamilyName: Bevan
Weight: Book
Copyright: Copyright (c) 2011 by vernon adams. All rights reserved.
Version: 1.000
ItalicAngle: 0
UnderlinePosition: -205
UnderlineWidth: 102
Ascent: 1638
Descent: 410
LayerCount: 2
Layer: 0 0 "Back"  1
Layer: 1 0 "Fore"  0
NeedsXUIDChange: 1
XUID: [1021 823 301787212 14470943]
FSType: 0
OS2Version: 3
OS2_WeightWidthSlopeOnly: 0
OS2_UseTypoMetrics: 1
CreationTime: 1297990544
ModificationTime: 1315433018
PfmFamily: 17
TTFWeight: 400
TTFWidth: 5
LineGap: 0
VLineGap: 0
Panose: 2 0 0 0 0 0 0 0 0 0
OS2TypoAscent: 727
OS2TypoAOffset: 1
OS2TypoDescent: -515
OS2TypoDOffset: 1
OS2TypoLinegap: 0
OS2WinAscent: -20
OS2WinAOffset: 1
OS2WinDescent: 2
OS2WinDOffset: 1
HheadAscent: -20
HheadAOffset: 1
HheadDescent: -2
HheadDOffset: 1
OS2SubXSize: 1434
OS2SubYSize: 1331
OS2SubXOff: 0
OS2SubYOff: 287
OS2SupXSize: 1434
OS2SupYSize: 1331
OS2SupXOff: 0
OS2SupYOff: 977
OS2StrikeYSize: 102
OS2StrikeYPos: 512
OS2Vendor: 'newt'
OS2CodePages: 20000093.00000000
OS2UnicodeRanges: a00000af.5000204b.00000000.00000000
Lookup: 258 0 0 "'kern' Horizontal Kerning in Latin lookup 0"  {"'kern' Horizontal Kerning in Latin lookup 0 per glyph data 0"  "'kern' Horizontal Kerning in Latin lookup 0 per glyph data 1"  "'kern' Horizontal Kerning in Latin lookup 0 kerning class 2"  } ['kern' ('latn' <'dflt' > ) ]
MarkAttachClasses: 1
DEI: 91125
KernClass2: 32+ 34 "'kern' Horizontal Kerning in Latin lookup 0 kerning class 2" 
 50 A Agrave Aacute Acircumflex Atilde Adieresis Aring
 10 C Ccedilla
 59 D O Q Eth Ograve Oacute Ocircumflex Otilde Odieresis Oslash
 43 E AE Egrave Eacute Ecircumflex Edieresis OE
 41 H I M Igrave Iacute Icircumflex Idieresis
 8 L Lslash
 8 N Ntilde
 21 S Scaron Scommaaccent
 22 T Tcommaaccent uni021A
 37 U Ugrave Uacute Ucircumflex Udieresis
 18 Y Yacute Ydieresis
 8 Z Zcaron
 50 a agrave aacute acircumflex atilde adieresis aring
 9 b p thorn
 10 c ccedilla
 18 d l lslash uniFB02

StartChar: exclam
Encoding: 33 33 4
Width: 679
GlyphClass: 2
Flags: HMW
LayerCount: 2
Fore
SplineSet
547 558 m 1
 126 556 l 1
 44 1331 l 1
 44 1630 l 1
 631 1630 l 1
 631 1331 l 1
 547 558 l 1
623 213 m 0
 623 369.211583079 493.571749024 463 336 463 c 0
 180.567184446 463 59 367.796285007 59 213 c 0
 59 58.4226027151 179.227090866 -32 336 -32 c 0
 496.570266444 -32 623 56.0732202766 623 213 c 0
EndSplineSet
EndChar

StartChar: quotedbl
Encoding: 34 34 5
Width: 1148
GlyphClass: 2
Flags: HMW
LayerCount: 2
Fore
SplineSet
41 1624 m 1
 521 1624 l 1
 421 945 l 1
 121 945 l 1
 41 1624 l 1
628 1624 m 1
 1108 1624 l 1
 1008 945 l 1
 708 945 l 1
 628 1624 l 1
EndSplineSet
EndChar

StartChar: numbersign
Encoding: 35 35 6
Width: 1354
GlyphClass: 2
Flags: HMW
LayerCount: 2
Fore
SplineSet
382 1246 m 1
 466 1623 l 1
 790 1623 l 1
 703 1246 l 1
 861 1246 l 1
 945 1623 l 1
 1269 1623 l 1
 1182 1246 l 1
 1322 1246 l 1
 1259 947 l 1
 1114 947 l 1
 1031 585 l 1
 1175 585 l 1
 1112 286 l 1
 962 286 l 1
 897 0 l 1
 584 0 l 1
 647 286 l 1
 483 286 l 1
 418 0 l 1
 105 0 l 1
 168 286 l 1
 32 286 l 1
 95 585 l 1
 235 585 l 1
 315 947 l 1
 179 947 l 1
 242 1246 l 1
 382 1246 l 1
552 585 m 1
 714 585 l 1
 794 947 l 1
 635 947 l 1
 552 585 l 1
EndSplineSet
EndChar

StartChar: dollar
Encoding: 36 36 7
Width: 1294
GlyphClass: 2
Flags: HMW
LayerCount: 2
Fore
SplineSet
1021 1030 m 2
 1019.68336805 1030 965.316296728 1028 964 1028 c 0
 956.666992188 1028 944.333007812 1028.66699219 927 1030 c 1
 917 1040 l 1
 908.31271105 1076.26075846 852.124095873 1225 790 1225 c 0
 782.666992188 1225 779 1223 779 1219 c 2
 779 991 l 1
 981.857570147 936.573914394 1155.85623381 858.202093463 1228 672.5 c 128
 1361.13954484 329.791357155 1073.76034997 48.5005243656 779 35 c 1
 779 -166 l 1
 548 -166 l 1
 548 48 l 1
 455.333007812 66.6669921875 371.666992188 93.3330078125 297 128 c 1
 253 66 l 1
 58 66 l 1
 58 545 l 1
 305 545 l 1
 313.276110117 444.510809438 443.261976791 298 548 298 c 1
 548 586 l 1
 297.897424906 654.209793207 52 735.585246012 52 1053 c 0
 52 1343.40244085 270.131334024 1497.99369463 554 1513 c 1
 554 1704 l 1
 781 1704 l 1
 781 1494 l 1
 815.666992188 1482 863.666992188 1462 925 1434 c 1
 939.333333333 1448.33333333 953.666666667 1462.66666667 968 1477 c 1
 1125 1477 l 2
 1125.97827082 1477 1141.28183683 1473 1142 1473 c 0
 1143.46217474 1471.53782526 1148 1468.42936157 1148 1466 c 2
 1148 1040 l 1
 1142 1034 l 1
 1021 1030 l 2
779 307 m 1
 825.96560248 307 879 352.725636892 879 399 c 0
 879 466.99207632 840.941002092 517.991029579 779 527 c 1
 779 307 l 1
552 1270 m 1
 498.532851732 1272.48620873 438 1231.49883563 438 1180 c 0
 438 1113.6214859 493.501031569 1071.61686448 552 1059 c 1
 552 1270 l 1
EndSplineSet
EndChar

StartChar: percent
Encoding: 37 37 8
Width: 2693
GlyphClass: 2
Flags: HMW
LayerCount: 2
Fore
SplineSet
2651 555 m 0
 2651 238.5817663 2491.03410626 -18 2174 -18 c 0
 1845.66335286 -18 1656 192.523796826 1656 521 c 0
 1656 837.492526977 1836.41547491 1096 2150 1096 c 0
 2474.59961404 1096 2651 879.243924676 2651 555 c 0
2156 755 m 0
 2066.84288256 755 2060 659.729799578 2060 540 c 0
 2060 401.333007812 2091 332 2153 332 c 0
 2241.0380186 332 2250 424.73298498 2250 513 c 2
 2250 540 l 1
 2253.71284292 636.484990869 2244.51790557 755 2156 755 c 0
919 0 m 1
 1260 1623 l 1
 1764 1623 l 1
 1422 0 l 1
 919 0 l 1
1032 1112 m 0
 1032 795.581766301 872.034106264 539 555 539 c 0
 226.663352857 539 37 749.523796826 37 1078 c 0
 37 1394.49252698 217.415474909 1653 531 1653 c 0
 855.599614041 1653 1032 1436.24392467 1032 1112 c 0
632 1096 m 1
 632 1193.12255451 627.593064248 1312 537 1312 c 0
 447.358272495 1312 441 1215.73110738 441 1097 c 0
 441 958.333007812 472 889 534 889 c 0
 622.038018596 889 631 981.73298498 631 1070 c 1
 632 1096 l 1
EndSplineSet
EndChar

StartChar: ampersand
Encoding: 38 38 9
Width: 1723
GlyphClass: 2
Flags: HMW
LayerCount: 2
Fore
SplineSet
493 -27 m 0
 236.368969012 -27 40 125.406403813 40 380 c 0
 40 613.879718695 172.705091091 731.135593462 354 809 c 1
 276.666992188 893.666992188 235 994.315866262 235 1111 c 0
 235 1378.87554073 448.746488343 1515 716 1515 c 0
 938.691783175 1515 1140 1390.71477372 1140 1169 c 0
 1140 989.453544855 1068.99734457 930.903203356 971 844 c 1
 1150 669 l 1
 1175.19206959 691.392950748 1257 753.722429015 1257 796 c 0
 1257 819.333007812 1248 831 1230 831 c 2
 1183 831 l 1
 1183 1126 l 1
 1666 1126 l 1
 1666 837 l 1
 1556.22182289 799.36203039 1538.47934699 776.993693389 1458 694 c 2
 1288 518 l 1
 1291.33300781 516.666992188 1340.66699219 466.666992188 1436 368 c 1
 1666 368 l 1
 1666 0 l 1
 1127 0 l 1
 1094.33300781 32.6669921875 1036.66699219 93.6669921875 954 183 c 1
 830.666992188 47 677.043473125 -27 493 -27 c 0
558 589 m 1
 530.275094198 569.196495856 497 534.611738842 497 487 c 0
 497 399.521148418 563.575066353 335 651 335 c 0
 692.333007812 335 730.333007812 348.333007812 765 375 c 1
 558 589 l 1
794 1025 m 1
 843.607424209 1059.10510414 886 1083.50883983 886 1152 c 0
 886 1219.50510745 849.947609831 1273 782 1273 c 0
 730.416735554 1273 688 1226.47701744 688 1175 c 0
 688 1102.21845996 750.380224409 1059.07913528 794 1025 c 1
EndSplineSet
EndChar

StartChar: quotesingle
Encoding: 39 39 10
Width: 561
GlyphClass: 2
Flags: HMW
LayerCount: 2
Fore
SplineSet
41 1624 m 1
 521 1624 l 1
 421 945 l 1
 121 945 l 1
 41 1624 l 1
EndSplineSet
EndChar

StartChar: parenleft
Encoding: 40 40 11
Width: 952
GlyphClass: 2
Flags: HMW
LayerCount: 2
Fore
SplineSet
906 1321 m 1
 620.636196791 1313.58971577 548 1110.70661276 548 820 c 0
 548 546.032671827 625.122870149 314 900 314 c 1
 900 -17 l 1
 371.196188344 -17 44 296.820101015 44 819 c 0
 44 1394.45449107 326.521130757 1653 906 1653 c 1
 906 1321 l 1
EndSplineSet
EndChar

StartChar: parenright
Encoding: 41 41 12
Width: 958
GlyphClass: 2
Flags: HMW
LayerCount: 2
Fore
SplineSet
406 820 m 0
 406 1110.78125254 332.687733272 1313.60727185 48 1321 c 1
 48 1653 l 1
 627.132501521 1653 910 1395.19272763 910 819 c 0
 910 295.740982216 583.131778139 -17 54 -17 c 1
 54 314 l 1
 328.872965091 314 406 546.044826448 406 820 c 0
EndSplineSet
EndChar

StartChar: asterisk
Encoding: 42 42 13
Width: 1308
GlyphClass: 2
Flags: HMW
LayerCount: 2
Fore
SplineSet
1269.58542282 660.068607447 m 0
 1269.58542282 574.773819848 1189.31147224 490.912597582 1106.62388147 490.912597582 c 0
 933.079770604 490.912597582 816.776535666 701.574827701 728.98046875 804 c 1
 762.273391562 695.807143934 814.98046875 558.008832161 814.98046875 429 c 0
 814.98046875 327.637940415 749.809844714 249 653.98046875 249 c 128
 558.200966952 249 492.98046875 327.678640913 492.98046875 429 c 0
 492.98046875 565.080969632 544.253349482 691.579013832 577.98046875 804 c 1
 490.584384337 699.114455959 370.131277744 490.948680261 201.243374089 490.948680261 c 0
 119.642001452 490.948680261 39.2915708531 572.711244509 39.2915708531 657.699306164 c 0
 39.2915708531 826.465005318 391.897473411 895.129173177 536.98046875 945 c 1
 416.61325805 986.508660278 38.4851112036 1053.39593625 38.4851112036 1230.0650701 c 0
 38.4851112036 1315.42219252 118.686761872 1399.08211471 201.329160582 1399.08211471 c 0
 373.931282678 1399.08211471 491.812417676 1189.39661262 577.98046875 1086 c 1
 544.20680282 1194.08958485 492.98046875 1332.12399376 492.98046875 1461 c 0
 492.98046875 1562.36205958 558.151092786 1641 653.98046875 1641 c 128
 749.759970548 1641 814.98046875 1562.32135909 814.98046875 1461 c 0
 814.98046875 1320.11948153 765.205100535 1200.71428198 728.98046875 1086 c 1
 818.826927554 1187.82306193 934.620775014 1399.07697235 1106.68572095 1399.07697235 c 0
 1188.52636863 1399.07697235 1268.90034529 1316.82542481 1268.90034529 1231.77440597 c 0
 1268.90034529 1062.68259427 915.394666102 995.146119383 769.98046875 945 c 1
 888.845898692 901.776207294 1269.58542282 836.977439754 1269.58542282 660.068607447 c 0
EndSplineSet
EndChar

StartChar: plus
Encoding: 43 43 14
Width: 895
GlyphClass: 2
Flags: HMW
LayerCount: 2
Fore
SplineSet
53 762 m 1
 325 762 l 1
 325 1051 l 1
 580 1051 l 1
 580 762 l 1
 845 762 l 1
 845 517 l 1
 580 517 l 1
 580 238 l 1
 325 238 l 1
 325 517 l 1
 53 517 l 1
 53 762 l 1
EndSplineSet
EndChar

StartChar: comma
Encoding: 44 44 15
Width: 658
GlyphClass: 2
Flags: HMW
LayerCount: 2
Fore
SplineSet
66 -223 m 1
 224.51647783 -223 255 -156.808574502 255 0 c 1
 66 0 l 1
 66 366 l 1
 576 366 l 1
 592 263.333007812 600 171 600 89 c 0
 600 -280.128169972 433.73414808 -448 66 -448 c 1
 66 -223 l 1
EndSplineSet
EndChar

StartChar: hyphen
Encoding: 45 45 16
Width: 778
GlyphClass: 2
Flags: HMW
LayerCount: 2
Fore
SplineSet
713 836 m 1
 713 537 l 1
 66 537 l 1
 66 836 l 1
 713 836 l 1
EndSplineSet
EndChar

StartChar: period
Encoding: 46 46 17
Width: 677
GlyphClass: 2
Flags: HMW
LayerCount: 2
Fore
SplineSet
623 223 m 0
 623 66.7884169208 493.571749024 -27 336 -27 c 0
 180.567184446 -27 59 68.2037149927 59 223 c 0
 59 377.577397285 179.227090866 468 336 468 c 0
 496.570266444 468 623 379.926779723 623 223 c 0
EndSplineSet
EndChar

StartChar: slash
Encoding: 47 47 18
Width: 915
GlyphClass: 2
Flags: HMW
LayerCount: 2
Fore
SplineSet
30 0 m 1
 521 1623 l 1
 885 1623 l 1
 383 0 l 1
 30 0 l 1
EndSplineSet
EndChar

StartChar: zero
Encoding: 48 48 19
Width: 1326
GlyphClass: 2
Flags: HMW
LayerCount: 2
Fore
SplineSet
664 -26 m 0
 241.133143285 -26 46 270.034009814 46 695 c 0
 46 1085.02284889 277.009990599 1365 664 1365 c 0
 1049.49483227 1365 1280 1083.60751053 1280 695 c 0
 1280 271.795562037 1085.05107536 -26 664 -26 c 0
531 669 m 2
 531 539.291429192 535.35105584 349 663 349 c 0
 791.180674549 349 795 539.282442711 795 669 c 2
 795 697 l 2
 795 832.707813669 797.674666737 998 663 998 c 0
 533.771851448 998 522.423168634 829.975444894 531 697 c 1
 531 669 l 2
EndSplineSet
EndChar

StartChar: one
Encoding: 49 49 20
Width: 840
GlyphClass: 2
Flags: HMW
LayerCount: 2
Fore
SplineSet
51 0 m 1
 50 325 l 1
 200 324 l 1
 200 951 l 1
 36 950 l 1
 36 1208 l 1
 698 1375 l 1
 704 324 l 1
 820 324 l 5
 820 0 l 5
 51 0 l 1
EndSplineSet
EndChar

StartChar: two
Encoding: 50 50 21
Width: 1267
GlyphClass: 2
Flags: HMW
LayerCount: 2
Fore
SplineSet
672.22265625 324 m 1
 853.071367021 459.115837873 1138.22265625 635.26823653 1138.22265625 928 c 0
 1138.22265625 1533.75376987 42.22265625 1534.87980274 42.22265625 950 c 0
 42.22265625 790.349543994 101.094824866 665.744869429 190.22265625 586 c 1
 416.22265625 760 l 1
 392.762683729 783.459972521 354.22265625 837.692639934 354.22265625 889 c 0
 354.22265625 972.817857111 404.197678244 1031 489.22265625 1031 c 0
 572.051758654 1031 626.22265625 945.077042383 626.22265625 859 c 0
 626.22265625 720.724976535 559.500250773 634.671095281 489.72265625 566 c 128
 380.042851793 458.059444672 250.063465814 368.503629314 79.22265625 303 c 1
 79.22265625 0 l 1
 1222.22265625 0 l 1
 1222.22265625 471 l 1
 1049.22265625 471 l 1
 1049.22265625 350.015551467 951.241376006 324 833.22265625 324 c 2
 672.22265625 324 l 1
EndSplineSet
EndChar

StartChar: three
Encoding: 51 51 22
Width: 1226
GlyphClass: 2
Flags: HMW
LayerCount: 2
Fore
SplineSet
283 572 m 0
 304.947771689 572 377.55954289 592 410 592 c 0
 536.34737274 592 659 551.02235017 659 424 c 0
 659 313.779860775 545.742982574 278 436 278 c 0
 310 278 186.666992188 326.666992188 66 424 c 1
 66 78 l 1
 188.730955694 -4.74042407071 332.702050461 -18 540 -18 c 0
 901.150971189 -18 1189 130.803894466 1189 474 c 0
 1189 667.377547041 1019.25949517 834.635680952 838 851 c 1
 1027.33300781 1007 1122 1086 1122 1088 c 2
 1122 1352 l 1
 53 1352 l 1
 53 899 l 1
 247 898 l 1
 272.431832317 994.882579402 281.067060538 1041 384 1041 c 2
 604 1041 l 1
 604 1031 l 1
 262 740 l 1
 262 582 l 1
 263.769373729 573.153131353 271.11696875 572 283 572 c 0
EndSplineSet
EndChar

StartChar: four
Encoding: 52 52 23
Width: 1307
GlyphClass: 2
Flags: HMW
LayerCount: 2
Fore
SplineSet
1037 288 m 1
 1159 288 l 1
 1159 0 l 1
 454 0 l 1
 454 288 l 1
 581 288 l 1
 581 420 l 1
 48 419 l 1
 48 688 l 1
 599 1342 l 1
 1038 1341 l 1
 1038 675 l 1
 1265 677 l 1
 1265 420 l 1
 1037 420 l 1
 1037 288 l 1
581 677 m 1
 581 911 l 1
 392 678 l 1
 581 677 l 1
EndSplineSet
EndChar

StartChar: five
Encoding: 53 53 24
Width: 1098
GlyphClass: 2
Flags: HMW
LayerCount: 2
Fore
SplineSet
435 -18 m 0
 797.33413292 -18 1060 151.19559887 1060 513 c 0
 1060 764.790777915 840.760202424 941 585 941 c 0
 513.280792048 941 429.195680645 932.831308903 374 924 c 1
 374 1063 l 1
 985 1063 l 1
 985 1360 l 1
 69 1360 l 1
 69 566 l 1
 81 555 l 1
 138.333007812 597.666992188 197.666992188 619 259 619 c 0
 381.292787489 619 511 567.634505806 511 446 c 0
 511 330.418719047 394.482152916 281 282 281 c 0
 210.955654535 281 119.224749629 323.754979342 70 347 c 1
 70 75 l 1
 130.8919734 15.4323974523 311.812771124 -18 435 -18 c 0
EndSplineSet
EndChar

StartChar: six
Encoding: 54 54 25
Width: 1329
GlyphClass: 2
Flags: HMW
LayerCount: 2
Fore
SplineSet
42 534 m 0
 42 186.61901863 320.646950036 -18 669 -18 c 0
 1004.48738834 -18 1286.90205204 212.687022581 1289 544 c 0
 1291.73579905 832.697950653 1093.99497315 1008.84347702 816 1023 c 1
 840.091813299 1088.04471989 985.779615674 1221.46290137 1041 1275.5 c 128
 1087.66699219 1321.16699219 1111 1344.33300781 1111 1345 c 2
 575 1345 l 1
 413.139889432 1183.13988947 242.855641416 1028.67602477 126.5 822.5 c 128
 81.092817254 742.040880695 42 652.48402054 42 534 c 0
675 775 m 0
 774.196457398 775 779 643.128841041 779 544 c 0
 779 399.333007812 740.333007812 327 663 327 c 0
 571.556813058 327 558 459.10932409 558 550 c 0
 558 662.675088292 565.7029204 775 675 775 c 0
EndSplineSet
EndChar

StartChar: seven
Encoding: 55 55 26
Width: 1233
GlyphClass: 2
Flags: HMW
LayerCount: 2
Fore
SplineSet
314 878 m 5
 314 984.166954592 345.010518649 1020 445 1020 c 6
 636 1020 l 1
 181 0 l 5
 713 0 l 5
 1189 1067 l 1
 1189 1337 l 1
 96 1337 l 5
 96 878 l 5
 314 878 l 5
EndSplineSet
EndChar

StartChar: eight
Encoding: 56 56 27
Width: 1275
GlyphClass: 2
Flags: HMW
LayerCount: 2
Fore
SplineSet
640 1378 m 0
 907.197635481 1378 1162 1282.00668529 1162 1010 c 0
 1162 868.443969125 1084.81629977 770.5165275 978 730 c 1
 1152 663.333007812 1239 545 1239 375 c 0
 1239 71.3295251169 942.309932503 -18 639 -18 c 256
 335.79769521 -18 39 72.0609412449 39 375 c 0
 39 545 126 663.333007812 300 730 c 1
 193.129255766 770.537178847 116 868.397993384 116 1010 c 0
 116 1284.63790824 372.19333148 1378 640 1378 c 0
559 406 m 0
 559 295.333007812 585.666992188 240 639 240 c 256
 692.333007812 240 719 295.333007812 719 406 c 0
 719 520.666992188 693 578 641 578 c 0
 586.333007812 578 559 520.666992188 559 406 c 0
641 1122 m 0
 568.910389526 1122 559 1059.15120242 559 986 c 0
 559 878 586.3167581 826 641 826 c 0
 693.017082865 826 719 878 719 986 c 0
 719 1056.11722564 709.113738468 1122 641 1122 c 0
EndSplineSet
EndChar

StartChar: nine
Encoding: 57 57 28
Width: 1341
GlyphClass: 2
Flags: HMW
LayerCount: 2
Fore
SplineSet
44 812 m 4
 44 546.786979034 260.837707375 351 529 351 c 5
 475.053265817 274.890462359 343.775237143 123.828634574 281 54 c 1
 226 0 l 1
 763 0 l 1
 956.326611498 202.105408285 1295 439.704838416 1295 813 c 0
 1295 1152.53429735 1026.99932565 1368 685 1368 c 0
 326.33720298 1368 44 1144.85466832 44 812 c 4
566 812 m 4
 566 965.333007812 603 1042 677 1042 c 4
 759.791843591 1042 773 902.083418056 773 820 c 4
 773 675.333007812 740.333007812 603 675 603 c 4
 602.333007812 603 566 672.666992188 566 812 c 4
EndSplineSet
EndChar

StartChar: colon
Encoding: 58 58 29
Width: 675
GlyphClass: 2
Flags: HMW
LayerCount: 2
Fore
SplineSet
620 846 m 0
 620 689.788416921 490.571749024 596 333 596 c 0
 177.567184446 596 56 691.203714993 56 846 c 0
 56 1000.57739728 176.227090866 1091 333 1091 c 0
 493.570266444 1091 620 1002.92677972 620 846 c 0
620 232 m 0
 620 75.7884169208 490.571749024 -18 333 -18 c 0
 177.567184446 -18 56 77.2037149927 56 232 c 0
 56 386.577397285 176.227090866 477 333 477 c 0
 493.570266444 477 620 388.926779723 620 232 c 0
EndSplineSet
EndChar

StartChar: semicolon
Encoding: 59 59 30
Width: 673
GlyphClass: 2
Flags: HMW
LayerCount: 2
Fore
SplineSet
257 0 m 1
 257 -156.371935374 227.586397687 -223 68 -223 c 1
 68 -448 l 1
 435.726563693 -448 602 -280.123550381 602 89 c 0
 602 171 594 263.333007812 578 366 c 1
 68 366 l 1
 68 0 l 1
 257 0 l 1
622 845 m 0
 622 688.788416921 492.571749024 595 335 595 c 0
 179.567184446 595 58 690.203714993 58 845 c 0
 58 999.577397285 178.227090866 1090 335 1090 c 0
 495.570266444 1090 622 1001.92677972 622 845 c 0
EndSplineSet
EndChar

StartChar: less
Encoding: 60 60 31
Width: 822
GlyphClass: 2
Flags: HMW
LayerCount: 2
Fore
SplineSet
49 946 m 1
 764 1542 l 1
 764 1077 l 1
 431 761 l 1
 764 445 l 1
 764 -20 l 1
 49 576 l 1
 49 946 l 1
EndSplineSet
EndChar

StartChar: equal
Encoding: 61 61 32
Width: 793
GlyphClass: 2
Flags: HMW
LayerCount: 2
Fore
SplineSet
723 392 m 1
 723 169 l 1
 76 169 l 1
 76 392 l 1
 723 392 l 1
723 761 m 1
 723 538 l 1
 76 538 l 1
 76 761 l 1
 723 761 l 1
EndSplineSet
EndChar

StartChar: greater
Encoding: 62 62 33
Width: 825
GlyphClass: 2
Flags: HMW
LayerCount: 2
Fore
SplineSet
773 576 m 1
 58 -20 l 1
 58 445 l 1
 391 761 l 1
 58 1077 l 1
 58 1542 l 1
 773 946 l 1
 773 576 l 1
EndSplineSet
EndChar

StartChar: question
Encoding: 63 63 34
Width: 1280
GlyphClass: 2
Flags: HMW
LayerCount: 2
Fore
SplineSet
1242 1272 m 0
 1242 934.301120867 931.624121069 812.624004025 680 726 c 1
 680 539 l 1
 333 539 l 1
 334 891 l 1
 598 1010.33300781 730 1129.66699219 730 1249 c 0
 730 1315.46989682 703.346552615 1381 634 1381 c 0
 554 1381 510.666992188 1327 504 1219 c 1
 32 1219 l 1
 51.0599213515 1526.69298377 310.39069886 1737 642 1737 c 0
 953.69999357 1737 1242 1575.62078404 1242 1272 c 0
800 223 m 0
 800 66.7884169208 670.571749024 -27 513 -27 c 0
 357.567184445 -27 236 68.2037149927 236 223 c 0
 236 377.577397285 356.227090866 468 513 468 c 0
 673.570266444 468 800 379.926779723 800 223 c 0
EndSplineSet
EndChar

StartChar: at
Encoding: 64 64 35
Width: 1848
GlyphClass: 2
Flags: HMW
LayerCount: 2
Fore
SplineSet
542 588 m 0
 542 838.508428519 710.3022179 964 967 964 c 0
 1214.84001241 964 1360 854.035118636 1360 603 c 1
 1361 398 l 1
 1498.59229814 398 1519 532.723294447 1519 677 c 0
 1519 979.809979616 1276.28826547 1117 949 1117 c 0
 587.928703718 1117 359 918.003182558 359 567 c 0
 359 210.177154135 634.208576448 37 999 37 c 0
 1057 37 1111.33300781 44.3330078125 1162 59 c 1
 1214 -169 l 1
 1140.66699219 -188.333007812 1069 -198 999 -198 c 0
 474.085489208 -198 44 55.6243036013 44 567 c 0
 44 1079.07607759 427.970427397 1372 949 1372 c 0
 1419.72830663 1372 1804 1136.46639658 1804 677 c 0
 1804 341.325842461 1571.2070907 204 1229 204 c 2
 1079 204 l 1
 1041 294 l 1
 1001.43999631 238.61467026 916.370524844 190 828 190 c 0
 643.175200073 190 542 386.55694702 542 588 c 0
1041 671 m 2
 1041 756.646040433 1035.41178215 817 965 817 c 0
 882.927389498 817 885 667.770950726 885 582 c 0
 885 503.013116042 897.245538972 374 958 374 c 0
 994.666992188 374 1022.33300781 385.666992188 1041 409 c 1
 1041 671 l 2
EndSplineSet
EndChar

StartChar: A
Encoding: 65 65 36
Width: 1726
GlyphClass: 2
Flags: HMW
LayerCount: 2
Fore
SplineSet
612 523 m 1
 935 523 l 1
 935 523 983 348 973 359 c 1
 853 359 l 1
 853 0 l 1
 1680 0 l 1
 1680 359 l 1
 1553 359 l 1
 1231 1623 l 1
 237 1623 l 1
 237 1270 l 1
 449 1270 l 1
 207 360 l 1
 50 359 l 1
 50 0 l 1
 728 0 l 1
 728 359 l 1
 585 359 l 1
 612 523 l 1
658 763 m 1
 770 1281 l 1
 887 763 l 1
 658 763 l 1
EndSplineSet
EndChar

StartChar: B
Encoding: 66 66 37
Width: 1609
GlyphClass: 2
Flags: HMW
LayerCount: 2
Fore
SplineSet
1515 1204 m 0
 1515 1559.30664062 1235.08496094 1623 878 1623 c 2
 64 1623 l 1
 64 1270 l 1
 230 1270 l 1
 230 359 l 1
 57 359 l 1
 57 0 l 1
 999 0 l 2
 1320.359375 0 1584 100.590820312 1584 420 c 0
 1584 656.541015625 1459.06445312 793.80078125 1270 848 c 1
 1270 850 l 1
 1403.15332031 900.083984375 1515 1027.37988281 1515 1204 c 0
1029 527 m 0
 1029 379.328125 929.904296875 351.451171875 779 359 c 1
 757 359 l 1
 757 699 l 1
 799 699.666992188 823.666992188 700 831 700 c 0
 954.618164062 700 1029 652.37890625 1029 527 c 0
1021 1131 m 0
 1021 991.31640625 935.896484375 961 798 961 c 2
 757 961 l 1
 757 1270 l 1
 883 1270 l 2
 962.860351562 1270 1021 1214.51464844 1021 1131 c 0
EndSplineSet
EndChar

StartChar: C
Encoding: 67 67 38
Width: 1497
GlyphClass: 2
Flags: HMW
LayerCount: 2
Fore
SplineSet
1135 612 m 1
 1126.18723632 448.995379593 1069.65449145 343 908 343 c 0
 660.793945312 343 657.998046875 593.390625 657.998046875 838.02734375 c 0
 657.998046875 843.689453125 658 849.34765625 658 855 c 0
 658 1071.16015625 679.708007812 1290 895 1290 c 0
 1054.51855469 1290 1129.09082031 1158.85644531 1129.09082031 1000.6171875 c 0
 1129.09082031 997.421875 1129.06054688 994.215820312 1129 991 c 1
 1427 991 l 1
 1427 1623 l 1
 1115 1623 l 1
 1081 1552 l 1
 999.372070312 1630.00097656 875.45703125 1652 721 1652 c 0
 252.883789062 1652 37 1268.46484375 37 804 c 0
 37 296.620117188 298.666992188 -29 805 -29 c 0
 1075.96386719 -29 1290.47363281 81.564453125 1436 202 c 1
 1436 612 l 1
 1135 612 l 1
EndSplineSet
EndChar

StartChar: D
Encoding: 68 68 39
Width: 1744
GlyphClass: 2
Flags: HMW
LayerCount: 2
Fore
SplineSet
862 0 m 2
 1369.1824216 0 1706 317.819701141 1706 816 c 0
 1706 1351.76074219 1425.11523438 1623 884 1623 c 2
 54 1623 l 1
 54 1271 l 1
 223 1271 l 1
 223 359 l 1
 60 359 l 1
 60 0 l 1
 862 0 l 2
1112 817 m 0
 1112 578.163085938 1044.30957031 359 805 359 c 2
 770 359 l 1
 770 1271 l 1
 817 1271 l 2
 1057.84179688 1271 1112 1056.91113281 1112 817 c 0
EndSplineSet
EndChar

StartChar: E
Encoding: 69 69 40
Width: 1402
GlyphClass: 2
Flags: HMW
LayerCount: 2
Fore
SplineSet
1059 969 m 1
 983 1270 l 1
 770 1270 l 1
 770 988 l 1
 975 988 l 1
 975 726 l 5
 770 726 l 5
 770 359 l 1
 987.680664062 359.311523438 l 1
 1065 687 l 1
 1338 687 l 1
 1338 0 l 1
 59 0 l 1
 59 359 l 1
 217 359 l 1
 217 1270 l 1
 59 1270 l 1
 59 1623 l 1
 1327 1623 l 1
 1327 969 l 1
 1059 969 l 1
EndSplineSet
EndChar

StartChar: F
Encoding: 70 70 41
Width: 1389
GlyphClass: 2
Flags: HMW
LayerCount: 2
Fore
SplineSet
984 683 m 1
 782 683 l 1
 782 359 l 1
 936 359 l 1
 936 0 l 1
 59 0 l 1
 59 359 l 1
 217 359 l 1
 217 1270 l 1
 59 1270 l 1
 59 1623 l 1
 1334 1623 l 1
 1334 959 l 1
 1050 959 l 1
 986 1270 l 1
 782 1270 l 1
 782 949 l 5
 984 949 l 5
 984 683 l 1
EndSplineSet
EndChar

StartChar: G
Encoding: 71 71 42
Width: 1663
GlyphClass: 2
Flags: HMW
LayerCount: 2
Fore
SplineSet
36 792 m 0
 36 275.088699047 376.633795543 -29 890 -29 c 0
 1056.66699219 -29 1188.33300781 14.3330078125 1285 101 c 1
 1327 0 l 1
 1603 0 l 1
 1603 862 l 1
 978 862 l 1
 978 558 l 1
 1138 558 l 1
 1143.33300781 538.666992188 1146 510.666992188 1146 476 c 0
 1146 377.560546875 1054.58105469 318 956 318 c 0
 746 318 641 465 641 759 c 0
 641 1028.30761719 691.903320312 1280 962 1280 c 0
 1171.05957031 1280 1221.54394531 1131.96582031 1243 945 c 1
 1531 945 l 1
 1531 1623 l 1
 1216 1623 l 1
 1172 1561 l 1
 1086.66699219 1621.66699219 975.666992188 1652 839 1652 c 0
 328.645619614 1652 36 1298.7507963 36 792 c 0
EndSplineSet
EndChar

StartChar: H
Encoding: 72 72 43
Width: 1811
GlyphClass: 2
Flags: HMW
LayerCount: 2
Fore
SplineSet
59 359 m 1
 206 359 l 1
 206 1270 l 1
 59 1270 l 1
 59 1623 l 1
 868 1623 l 1
 868 1270 l 1
 773 1270 l 1
 773 986 l 1
 1042 986 l 1
 1042 1270 l 1
 954 1270 l 1
 954 1623 l 1
 1752 1623 l 1
 1752 1270 l 1
 1611 1270 l 1
 1611 359 l 1
 1758 359 l 1
 1758 0 l 1
 958 0 l 1
 958 359 l 1
 1042 359 l 1
 1042 635 l 1
 773 635 l 1
 773 359 l 1
 869 359 l 1
 869 0 l 1
 59 0 l 1
 59 359 l 1
EndSplineSet
EndChar

StartChar: I
Encoding: 73 73 44
Width: 977
GlyphClass: 2
Flags: HMW
LayerCount: 2
Fore
SplineSet
925 1270 m 1
 778 1270 l 1
 778 359 l 1
 919 359 l 1
 919 0 l 1
 57 0 l 1
 57 359 l 1
 204 359 l 1
 204 1270 l 1
 61 1270 l 1
 61 1623 l 1
 925 1623 l 1
 925 1270 l 1
EndSplineSet
EndChar

StartChar: J
Encoding: 74 74 45
Width: 1336
GlyphClass: 2
Flags: HMW
LayerCount: 2
Fore
SplineSet
485 365 m 0
 367.176757812 365 362 514.034179688 362 633 c 1
 58 633 l 1
 58 -13 l 1
 328 -13 l 1
 365 79 l 1
 424.333007812 6.3330078125 520.333007812 -30 653 -30 c 0
 962.21875 -30 1149 167.39453125 1149 475 c 2
 1149 1270 l 1
 1296 1270 l 1
 1296 1623 l 1
 442 1623 l 1
 442 1270 l 1
 596 1270 l 1
 596 572 l 2
 596 458.393554688 580.283203125 365 485 365 c 0
EndSplineSet
EndChar

StartChar: K
Encoding: 75 75 46
Width: 1759
GlyphClass: 2
Flags: HMW
LayerCount: 2
Fore
SplineSet
1033 492 m 2
 1033 553.37890625 984.772460938 640 923 640 c 2
 753 640 l 1
 753 359 l 1
 880 359 l 1
 886.647460938 0.01171875 l 1
 59 0 l 1
 59 359 l 1
 206 359 l 1
 206 1270 l 1
 59 1270 l 1
 59 1622 l 1
 880 1622 l 1
 880 1270 l 1
 753 1270 l 1
 753 887 l 1
 1040 1270 l 1
 1040 1622 l 1
 1664 1622 l 1
 1664 1270 l 1
 1527 1270 l 1
 1208 864 l 1
 1208 850 l 1
 1403.93261719 850 1554 798.032226562 1554 602 c 2
 1554 461 l 2
 1554 417.807617188 1578.13671875 359 1621 359 c 2
 1711 359 l 1
 1717 0 l 1
 1369 0 l 2
 1145 0 1033 102.333007812 1033 307 c 2
 1033 492 l 2
EndSplineSet
EndChar

StartChar: L
Encoding: 76 76 47
Width: 1388
GlyphClass: 2
Flags: HMW
LayerCount: 2
Fore
SplineSet
768 359 m 1
 959 359 l 1
 1046 709 l 1
 1332 709 l 1
 1332 0 l 1
 59 0 l 1
 59 359 l 1
 201 359 l 1
 201 1270 l 1
 54 1270 l 1
 54 1622 l 1
 922 1622 l 1
 922 1270 l 1
 768 1270 l 1
 768 359 l 1
EndSplineSet
EndChar

StartChar: M
Encoding: 77 77 48
Width: 2321
GlyphClass: 2
Flags: HMW
LayerCount: 2
Fore
SplineSet
711 359 m 1
 615.249023438 359 549 360 549 360 c 1
 549 999 l 1
 965 0 l 1
 1246 0 l 1
 1588 977 l 1
 1588 359 l 1
 1465 359 l 1
 1465 0 l 1
 2268 0 l 1
 2268 359 l 1
 2114 359 l 1
 2114 1270 l 1
 2261 1270 l 1
 2261 1623 l 1
 1477 1623 l 1
 1201 856 l 1
 891 1623 l 1
 56 1623 l 1
 56 1270 l 1
 224 1270 l 1
 224 360 l 1
 224 360 172.657226562 359 60 359 c 1
 60 0 l 1
 711 0 l 1
 711 359 l 1
EndSplineSet
EndChar

StartChar: N
Encoding: 78 78 49
Width: 1813
GlyphClass: 2
Flags: HMW
LayerCount: 2
Fore
SplineSet
1616 1270 m 1
 1616 1270 1665.9765625 1270 1774 1270 c 1
 1774 1622 l 1
 1137 1622 l 1
 1137 1270 l 1
 1295 1270 l 1
 1295 647 l 1
 799 1623 l 1
 64 1623 l 1
 64 1272 l 1
 221 1272 l 1
 221 360 l 1
 221 360 160.08203125 359 58 359 c 1
 58 0 l 1
 695 0 l 1
 695 359 l 1
 582.908203125 360 537 360 537 360 c 1
 537 908 l 1
 1010 0 l 1
 1616 0 l 1
 1616 1270 l 1
EndSplineSet
EndChar

StartChar: O
Encoding: 79 79 50
Width: 1714
GlyphClass: 2
Flags: HMW
LayerCount: 2
Fore
SplineSet
1676 808 m 0
 1676 325.521060795 1335.82854839 -29 856 -29 c 256
 374.707120917 -29 36 327.163274991 36 808 c 0
 36 1317.1667906 353.157978936 1653 858 1653 c 0
 1360.18690489 1653 1676 1314.23252701 1676 808 c 0
856 1296 m 0
 630.309976946 1296 641.841420771 1010.20066496 641.841420771 775.690200352 c 0
 641.841420771 555.434331227 661.951562046 319 856 319 c 0
 1086.52451421 319 1066.20264568 632.508011106 1066.20264568 873.544051307 c 0
 1066.20264568 1079.38060488 1054.60755409 1296 856 1296 c 0
EndSplineSet
EndChar

StartChar: P
Encoding: 80 80 51
Width: 1614
GlyphClass: 2
Flags: HMW
LayerCount: 2
Fore
SplineSet
922 559 m 0
 1321.47558594 559 1587.4453125 702.974609375 1582 1106 c 0
 1577.20470638 1513.35054521 1324.09460369 1623 913 1623 c 130
 62 1623 l 1
 62 1270 l 1
 213 1270 l 1
 213 359 l 1
 57 359 l 1
 57 0 l 1
 918 0 l 1
 918 359 l 1
 772 359 l 1
 772 569 l 1
 824.666992188 562.333007812 874.666992188 559 922 559 c 0
856 1270 m 2
 965.822265625 1270 1040 1210.24511719 1040 1096 c 0
 1040 962 964.333007812 895 813 895 c 2
 772 895 l 1
 772 1270 l 1
 856 1270 l 2
EndSplineSet
EndChar

StartChar: Q
Encoding: 81 81 52
Width: 1772
GlyphClass: 2
Flags: HMW
LayerCount: 2
Fore
SplineSet
870 1652 m 0
 365.367713484 1652 36 1318.32145016 36 815 c 0
 36 459.9921875 196.326171875 207.348632812 433 76 c 128
 560.333007812 5.3330078125 708.830078125 -46.8193359375 876.188476562 -32.150390625 c 2
 1243 0 l 1
 1727 0 l 1
 1727 359 l 1
 1564 359 l 1
 1644.66699219 494.333007812 1685 643.666992188 1685 807 c 0
 1685 1317.13002802 1375.74648043 1652 870 1652 c 0
876 338 m 0
 686.127929688 338 653 510.327148438 653 692 c 130
 653 895.5 l 130
 653 1090.74316406 669.7734375 1275 865 1275 c 0
 1074.40332031 1275 1075 1030.73144531 1075 822 c 2
 1075 775 l 1
 1088.62304688 579.728515625 1069.79882812 338 876 338 c 0
EndSplineSet
EndChar

StartChar: R
Encoding: 82 82 53
Width: 1728
GlyphClass: 2
Flags: HMW
LayerCount: 2
Fore
SplineSet
1602 1170 m 0
 1602 1498.31835938 1400.25585938 1623 1073 1623 c 2
 58 1623 l 1
 58 1270 l 1
 213 1270 l 1
 213 359 l 1
 59 359 l 1
 59 -1 l 1
 423 -0.3330078125 693 0 869 0 c 1
 869 359 l 1
 748 359 l 1
 748 694 l 1
 846 694 l 2
 999.381835938 694 1032 602.813476562 1032 451 c 2
 1032 256 l 2
 1032 54.111328125 1163.24414062 0 1360.5 0 c 130
 1684 0 l 1
 1684 359 l 1
 1581.95996094 359 1520 367.984375 1520 466 c 2
 1520 559 l 2
 1520 716.512695312 1396.27636719 772.0234375 1243 807 c 1
 1442.11230469 844.04296875 1602 951.124023438 1602 1170 c 0
1053 1096 m 0
 1053 960.024414062 938.477539062 920 803 920 c 2
 742 920 l 1
 742 1270 l 1
 863 1270 l 2
 975.956054688 1270 1053 1205.94238281 1053 1096 c 0
EndSplineSet
EndChar

StartChar: S
Encoding: 83 83 54
Width: 1314
GlyphClass: 2
Flags: HMW
LayerCount: 2
Back
SplineSet
597 1305 m 4
 705.612304688 1305 762.83203125 1268.07395242 814 1147 c 5
 1121 1147 l 5
 1121 1623 l 5
 836 1623 l 5
 817.333007812 1591 806.666992188 1571 804 1563 c 5
 724.666992188 1623 620.666992188 1653 492 1653 c 4
 187.708984375 1653 36 1440.83105469 36 1133 c 4
 36 734.272460938 294.727539062 623.499023438 605 535 c 4
 664.938476562 517.904296875 736 494.176757812 736 420 c 4
 736 364.067382812 683.3203125 334 627 334 c 4
 519.16015625 334 433.744140625 367.885296365 394 488 c 5
 72 488 l 5
 72 0 l 5
 395 0 l 5
 431 92 l 5
 526.635742188 11.0771484375 597.530273438 -29 760 -29 c 4
 996.80859375 -29 1142.21191406 131.057617188 1205.5 309 c 132
 1270.97363281 493.0859375 1225.46484375 725.203125 1140 837.5 c 132
 1036.6640625 973.278320312 875.02734375 1039.02050781 690.5 1091.5 c 132
 621.969726562 1110.99023438 503 1133.92773438 503 1213 c 4
 503 1273.32324219 537.436523438 1305 597 1305 c 4
EndSplineSet
Fore
SplineSet
617 1305 m 0
 750.637695312 1305 821.041992188 1268.07421875 884 1147 c 1
 1191 1147 l 1
 1191 1623 l 1
 906 1623 l 1
 887.333007812 1591 876.666992188 1571 874 1563 c 1
 776.359375 1623 648.359375 1653 490 1653 c 0
 245.708984375 1653 34 1453.07128906 34 1163 c 0
 34 744.26953125 301.912579202 624.78944923 625 535 c 0
 697.846172952 514.755269543 786 494.176757812 786 420 c 0
 786 364.067382812 718.821289062 334 647 334 c 0
 528.977539062 334 435.497070312 367.885742188 392 488 c 1
 70 488 l 1
 70 0 l 1
 393 0 l 1
 429 92 l 1
 531.03125 11.0771484375 606.666015625 -29 780 -29 c 0
 1088.00292969 -29 1286.61328125 202.858398438 1286.61328125 500.76953125 c 0
 1286.61328125 893.327148438 1020.9765625 1008.72558594 710.5 1091.5 c 128
 633.928710938 1110.99023438 501 1133.92773438 501 1213 c 0
 501 1273.32324219 543.49609375 1305 617 1305 c 0
EndSplineSet
EndChar

StartChar: T
Encoding: 84 84 55
Width: 1594
GlyphClass: 2
Flags: HMW
LayerCount: 2
Fore
SplineSet
1260 965 m 1
 1218 1270 l 1
 1072 1270 l 1
 1072 360 l 1
 1236 360 l 1
 1236 0 l 1
 345 0 l 1
 345 360 l 1
 509 360 l 1
 509 1270 l 1
 369 1270 l 1
 325 965 l 1
 44 965 l 1
 44 1622 l 1
 1541 1622 l 1
 1541 965 l 1
 1260 965 l 1
EndSplineSet
EndChar

StartChar: U
Encoding: 85 85 56
Width: 1670
GlyphClass: 2
Flags: HMW
LayerCount: 2
Fore
SplineSet
195 704 m 2
 195 245.033203125 363.958984375 -29 825 -29 c 0
 1168.42480469 -29 1476 180.677734375 1476 520 c 2
 1476 1270 l 1
 1630 1270 l 1
 1630 1622 l 1
 976 1622 l 1
 976 1270 l 1
 1140 1270 l 1
 1140 536 l 2
 1140 416.981445312 1064.24023438 346 944 346 c 0
 804.94140625 346 755 462.040039062 755 600 c 2
 755 1270 l 1
 903 1270 l 1
 903 1622 l 1
 34 1622 l 1
 34 1270 l 1
 195 1270 l 1
 195 704 l 2
EndSplineSet
EndChar

StartChar: V
Encoding: 86 86 57
Width: 1767
GlyphClass: 2
Flags: HMW
LayerCount: 2
Fore
SplineSet
784 1270 m 1
 900 1270 l 1
 900 1622 l 1
 35 1622 l 1
 35 1270 l 1
 201 1270 l 1
 562 0 l 1
 1146 0 l 1
 1544.99511719 1270.17285156 l 1
 1544.99511719 1270.17285156 1623.33691406 1270 1725 1270 c 1
 1725 1622 l 1
 1031 1622 l 1
 1031 1270 l 1
 1161 1269 l 1
 986 517 l 1
 784 1270 l 1
EndSplineSet
EndChar

StartChar: W
Encoding: 87 87 58
Width: 2552
GlyphClass: 2
Flags: HMW
LayerCount: 2
Fore
SplineSet
34 1623 m 1
 34 1270 l 1
 177 1270 l 1
 526 0 l 1
 1063 0 l 1
 1265 706 l 1
 1458 0 l 1
 2001 0 l 1
 2342 1270 l 1
 2342 1270 2407.13085938 1270 2511 1270 c 1
 2511 1623 l 1
 1860 1623 l 1
 1860 1270 l 1
 1990 1270 l 1
 1835 703 l 1
 1582 1623 l 1
 1173 1623 l 1
 913 672 l 1
 754 1270 l 1
 895 1270 l 1
 895 1623 l 1
 34 1623 l 1
EndSplineSet
EndChar

StartChar: X
Encoding: 88 88 59
Width: 1947
GlyphClass: 2
Flags: HMW
LayerCount: 2
Fore
SplineSet
649 357.700195312 m 5
 855 634 l 1
 1098 359 l 1
 972 359 l 1
 972 0 l 1
 1901 0 l 1
 1901 359 l 1
 1749 359 l 1
 1320 829 l 1
 1653 1269.70019531 l 1
 1850 1269.70019531 l 1
 1850 1623 l 1
 1103 1623 l 1
 1103 1270 l 1
 1247 1270 l 1
 1099 1064 l 1
 937 1270 l 1
 1019 1270 l 1
 1019 1623 l 1
 101 1623 l 1
 101 1270 l 1
 272 1270 l 1
 643 862 l 1
 209 357.700195312 l 1
 50 357.700195312 l 1
 50 0 l 1
 878 0 l 1
 872 359 l 1
 762.144402806 359.455836159 649 357.700195312 649 357.700195312 c 5
EndSplineSet
EndChar

StartChar: Y
Encoding: 89 89 60
Width: 1656
GlyphClass: 2
Flags: HMW
LayerCount: 2
Fore
SplineSet
977 1270 m 1
 1124 1270 l 1
 1124 1272.02539062 1006 1026.11914062 980 993 c 1
 962.9140625 1017.40820312 813.470703125 1246.17675781 796 1270 c 1
 887 1270 l 1
 887 1622 l 1
 5 1622 l 1
 5 1270 l 1
 147 1270 l 1
 568 672 l 1
 568 359 l 1
 413 359 l 1
 413 0 l 1
 1282 0 l 1
 1282 359 l 1
 1125 359 l 1
 1125 724 l 1
 1434.47460938 1269.51464844 l 129
 1670.2471837 1287.03868363 1614 1384.61609854 1614 1622 c 5
 977 1622 l 1
 977 1270 l 1
EndSplineSet
EndChar

StartChar: Z
Encoding: 90 90 61
Width: 1537
GlyphClass: 2
Flags: HMW
LayerCount: 2
Fore
SplineSet
1458 1293 m 1
 781 359 l 1
 1090 359 l 1
 1197 705 l 1
 1479 705 l 1
 1479 0 l 1
 69 0 l 1
 69 350 l 1
 747 1270 l 1
 432 1270 l 1
 352 938 l 1
 64 938 l 1
 64 1622 l 1
 1458 1622 l 1
 1458 1293 l 1
EndSplineSet
EndChar

StartChar: bracketleft
Encoding: 91 91 62
Width: 835
GlyphClass: 2
Flags: HMW
LayerCount: 2
Fore
SplineSet
75 0 m 1
 75 1623 l 1
 789 1623 l 1
 789 1322 l 1
 592 1322 l 1
 592 311 l 1
 785 311 l 1
 784 0 l 1
 75 0 l 1
EndSplineSet
EndChar

StartChar: backslash
Encoding: 92 92 63
Width: 975
GlyphClass: 2
Flags: HMW
LayerCount: 2
Fore
SplineSet
373 0 m 1
 31 1623 l 1
 605 1623 l 1
 946 0 l 1
 373 0 l 1
EndSplineSet
EndChar

StartChar: bracketright
Encoding: 93 93 64
Width: 838
GlyphClass: 2
Flags: HMWO
LayerCount: 2
Fore
SplineSet
53 0 m 1
 52 311 l 1
 245 311 l 1
 245 1322 l 1
 48 1322 l 1
 48 1623 l 1
 762 1623 l 1
 762 0 l 1
 53 0 l 1
EndSplineSet
EndChar

StartChar: asciicircum
Encoding: 94 94 65
Width: 1438
GlyphClass: 2
Flags: HMW
LayerCount: 2
Fore
SplineSet
902 1624 m 1
 1398 909 l 1
 933 909 l 1
 717 1242 l 1
 501 909 l 1
 36 909 l 1
 532 1624 l 1
 902 1624 l 1
EndSplineSet
EndChar

StartChar: underscore
Encoding: 95 95 66
Width: 1328
GlyphClass: 2
Flags: HMW
LayerCount: 2
Fore
SplineSet
1262 -1 m 1
 1262 -224 l 1
 69 -224 l 1
 69 -1 l 1
 1262 -1 l 1
EndSplineSet
EndChar

StartChar: grave
Encoding: 96 96 67
Width: 756
GlyphClass: 2
Flags: HMW
LayerCount: 2
Fore
SplineSet
232 1708 m 1
 706 1271 l 1
 602 1130 l 1
 48 1443 l 1
 232 1708 l 1
EndSplineSet
EndChar

StartChar: a
Encoding: 97 97 68
Width: 1325
GlyphClass: 2
Flags: HMW
LayerCount: 2
Fore
SplineSet
477 630 m 0
 254.817382812 630 42 528.96484375 42 308 c 0
 42 103.868164062 224.232421875 -18 431 -18 c 0
 555.478515625 -18 679.5078125 44.259765625 737 119 c 1
 787 0 l 1
 1279 0 l 1
 1279 305 l 1
 1183 305 l 1
 1183 750 l 2
 1183 1032.31835938 897.0703125 1092 615 1092 c 0
 490.98828125 1092 292.662109375 1063.76367188 199 1040 c 1
 132 1022 l 1
 132 708 l 1
 307 708 l 1
 355 771.333007812 426.666992188 803 522 803 c 0
 662.666992188 803 733 747.666992188 733 637 c 2
 733 592 l 1
 659.666992188 617.333007812 574.333007812 630 477 630 c 0
628 224 m 0
 569.036132812 224 532 266.856445312 532 326 c 0
 532 382.65625 580.163085938 438 637 438 c 0
 673.076171875 438 711.118164062 425.88671875 736 417 c 1
 736 270 l 1
 718.629882812 248.29296875 671.98828125 224 628 224 c 0
EndSplineSet
EndChar

StartChar: b
Encoding: 98 98 69
Width: 1441
GlyphClass: 2
Flags: HMW
LayerCount: 2
Fore
SplineSet
657 1560 m 5
 31 1495 l 5
 31 1222 l 5
 175 1222 l 5
 175 0 l 1
 625 0 l 1
 665 102 l 1
 772.005859375 25.56640625 808.073242188 -18 941 -18 c 0
 1253.62402344 -18 1414 227.609375 1414 538 c 0
 1414 836.970703125 1259.84472656 1092 962 1092 c 0
 863.333007812 1092 761.666992188 1049.66699219 657 965 c 1
 657 1560 l 5
948 519 m 0
 948 411.229492188 895.985351562 328 796 328 c 0
 736.080078125 328 687.959960938 365.4453125 661 396 c 1
 661 662 l 1
 683.248046875 706.512695312 728.297851562 758 796 758 c 0
 918.241210938 758 948 640.93359375 948 519 c 0
EndSplineSet
EndChar

StartChar: c
Encoding: 99 99 70
Width: 1093
GlyphClass: 2
Flags: HMW
LayerCount: 2
Fore
SplineSet
661 778 m 0
 735.873046875 778 784 706.870117188 784 628 c 1
 1026 628 l 1
 1026 1072 l 1
 851 1072 l 1
 810 995 l 1
 729.333007812 1059.66699219 643.333007812 1092 552 1092 c 0
 235.669921875 1092 33 859.709960938 33 546 c 4
 33 200.340820312 243.323242188 -18 585 -18 c 0
 836.833007812 -18 1028 124 1028 124 c 1
 1028 425 l 1
 788 425 l 1
 774.602539062 358.051757812 742.82421875 295 661 295 c 0
 546.67578125 295 506 399.40234375 506 513 c 0
 506 648.689453125 548.045898438 778 661 778 c 0
EndSplineSet
EndChar

StartChar: d
Encoding: 100 100 71
Width: 1441
GlyphClass: 2
Flags: HMW
LayerCount: 2
Fore
SplineSet
495 -19 m 1
 627.385742188 -17.5283203125 729.383789062 47.1787109375 790 128 c 1
 790 0 l 1
 1399 0 l 1
 1399 304 l 1
 1282 304 l 1
 1282 1560 l 1
 636 1495 l 1
 636 1222 l 1
 786 1222 l 1
 786 960 l 1
 706.908203125 1040.25585938 630.603515625 1090 487 1090 c 0
 200.404296875 1090 32 834.786132812 32 550 c 0
 32 245.7109375 190.842773438 -19 495 -19 c 1
503 558 m 0
 503 672.541429769 555.014648438 761 655 761 c 0
 714.919921875 761 763.040039062 716.946691176 790 681 c 1
 790 415 l 1
 767.751953125 370.487304688 722.702148438 319 655 319 c 0
 532.758789062 319 503 436.06640625 503 558 c 0
EndSplineSet
EndChar

StartChar: e
Encoding: 101 101 72
Width: 1207
GlyphClass: 2
Flags: HMW
LayerCount: 2
Fore
SplineSet
619 1092 m 0
 263.956054688 1092 32 872.936523438 32 521 c 0
 32 202.009765625 281.541992188 -18 603 -18 c 0
 843.533203125 -18 988.1171875 30.1142578125 1150 127 c 1
 1150 374 l 5
 843 374 l 5
 840.155273438 275.109556687 793.614257812 222 703 222 c 0
 585.446289062 222 526 341.211571848 526 472 c 5
 1128 472 l 5
 1165.19921875 473.184895834 1170 530.648753156 1170 576 c 4
 1170 890.903871333 951.16015625 1092 619 1092 c 0
528 677 m 6
 528 752.93359375 561.07421875 835 636 835 c 4
 724.908203125 835 743.3125 757.22265625 743.3125 668.889648438 c 4
 743.3125 661.98046875 743.200195312 655.006835938 743 648 c 5
 528 648 l 5
 528 677 l 6
EndSplineSet
EndChar

StartChar: f
Encoding: 102 102 73
Width: 956
GlyphClass: 2
Flags: HMW
LayerCount: 2
Fore
SplineSet
889 1523 m 5
 823.750976562 1546.30175781 683.114257812 1570 581 1570 c 4
 335.666992188 1570 213 1435.66699219 213 1167 c 4
 213 1105.06738281 215 1073.40722656 215 1072 c 1
 60 1072 l 1
 60 761 l 1
 216 761 l 1
 216 305 l 1
 60 305 l 1
 60 0 l 1
 889 0 l 1
 889 305 l 1
 702 305 l 1
 702 761 l 1
 889 761 l 1
 889 1072 l 1
 695 1072 l 1
 689.137695312 1165.89648438 702.60546875 1225 793 1225 c 4
 818.333007812 1225 850.333007812 1220.66699219 889 1212 c 5
 889 1523 l 5
EndSplineSet
EndChar

StartChar: g
Encoding: 103 103 74
Width: 1391
GlyphClass: 2
Flags: HMW
LayerCount: 2
Fore
SplineSet
163 -328 m 1
 237.830078125 -368.293945312 417.473632812 -389 551 -389 c 0
 1013.66699219 -389 1245 -214.333007812 1245 135 c 2
 1245 761 l 1
 1352 761 l 1
 1352 1072 l 1
 879 1072 l 1
 846 997 l 1
 730.666992188 1059 622.333007812 1090 521 1090 c 0
 231.555664062 1090 32 836.337890625 32 548 c 0
 32 249.403320312 210.28515625 28 509 28 c 4
 621.943359375 28 727.071289062 67.0859375 796 117 c 1
 796 -53.2568359375 696.762695312 -87 527 -87 c 0
 408.333007812 -87 287 -64.3330078125 163 -19 c 1
 163 -328 l 1
660 299 m 0
 547.690429688 299 515 418.069335938 515 532 c 0
 515 643.181640625 543.453125 760 652 760 c 0
 757.479492188 760 795 630.8515625 795 523 c 0
 795 422.48046875 759.923828125 299 660 299 c 0
EndSplineSet
EndChar

StartChar: h
Encoding: 104 104 75
Width: 1474
GlyphClass: 2
Flags: HMW
LayerCount: 2
Fore
SplineSet
965 1090 m 0
 798.991210938 1090 693.901367188 1003.66796875 645 916 c 1
 645 1560 l 5
 52 1495 l 5
 52 1222 l 5
 156 1222 l 5
 156 304 l 1
 57 304 l 1
 57 0 l 1
 729 0 l 1
 729 304 l 1
 649 304 l 1
 649 645 l 2
 649 723.666992188 682.666992188 763 750 763 c 0
 804.666992188 763 833 721.3359375 833 638 c 2
 833 0 l 1
 1429 0 l 1
 1429 304 l 1
 1323 304 l 1
 1323 702 l 2
 1323 943.606445312 1200.69140625 1090 965 1090 c 0
EndSplineSet
EndChar

StartChar: i
Encoding: 105 105 76
Width: 790
GlyphClass: 2
Flags: HMW
LayerCount: 2
Fore
SplineSet
644 1072 m 1
 54 1072 l 1
 54 761 l 1
 163 761 l 1
 163 305 l 1
 31 305 l 5
 31 0 l 5
 748 0 l 1
 748 305 l 1
 644 305 l 1
 644 1072 l 1
650 1385 m 0
 650 1228.78808594 520.571289062 1135 363 1135 c 0
 207.567382812 1135 86 1230.20410156 86 1385 c 0
 86 1539.57714844 206.227539062 1630 363 1630 c 0
 523.5703125 1630 650 1541.92675781 650 1385 c 0
EndSplineSet
EndChar

StartChar: j
Encoding: 106 106 77
Width: 713
GlyphClass: 2
Flags: HMW
LayerCount: 2
Fore
SplineSet
144 -9 m 2
 144 -57.47265625 64.9519202687 -77.408203125 -1 -72 c 5
 1 -398 l 5
 429.602387081 -398 643 -268.831054688 643 129 c 2
 643 1072 l 1
 34 1072 l 1
 34 761 l 1
 144 761 l 1
 144 -9 l 2
646 1385 m 0
 646 1228.78808594 516.571289062 1135 359 1135 c 0
 203.567382812 1135 82 1230.20410156 82 1385 c 0
 82 1539.57714844 202.227539062 1630 359 1630 c 0
 519.5703125 1630 646 1541.92675781 646 1385 c 0
EndSplineSet
EndChar

StartChar: k
Encoding: 107 107 78
Width: 1464
GlyphClass: 2
Flags: HMW
LayerCount: 2
Fore
SplineSet
653 438 m 1
 653 0 l 1
 56 0 l 1
 56 305 l 1
 159 305 l 1
 159 1222 l 5
 55 1222 l 5
 55 1495 l 5
 653 1560 l 5
 653 587 l 1
 854 762 l 1
 759 762 l 1
 759 1072 l 1
 1393 1072 l 1
 1393 762 l 1
 1222 762 l 2
 1221.69042969 762.736560314 1049.796875 617.672530595 1049 618 c 2
 1256 305 l 1
 1411 305 l 1
 1411 0 l 1
 938 0 l 1
 653 438 l 1
EndSplineSet
EndChar

StartChar: l
Encoding: 108 108 79
Width: 809
GlyphClass: 2
Flags: HMW
LayerCount: 2
Fore
SplineSet
669 304 m 1
 767 304 l 1
 767 0 l 1
 59 0 l 1
 59 304 l 1
 174 304 l 1
 174 1222 l 5
 49 1222 l 5
 49 1495 l 5
 669 1560 l 5
 669 304 l 1
EndSplineSet
EndChar

StartChar: m
Encoding: 109 109 80
Width: 2115
GlyphClass: 2
Flags: HMW
LayerCount: 2
Back
SplineSet
1598 1092 m 4
 1431 1092 1308 1021 1240 916 c 5
 1240 1092 l 5
 637 1032 l 5
 637 761 l 5
 753 761 l 5
 753 305 l 5
 637 305 l 5
 637 0 l 5
 1328 0 l 5
 1328 305 l 5
 1240 305 l 5
 1240 624 l 6
 1240 686 1282 737 1344 737 c 4
 1398 737 1434 684 1434 627 c 6
 1434 0 l 5
 2048 0 l 5
 2048 305 l 5
 1928 305 l 5
 1928 680 l 6
 1928 955 1818 1092 1598 1092 c 4
EndSplineSet
Fore
SplineSet
618 1092 m 1
 62 1032 l 1
 62 761 l 1
 178 761 l 1
 176 305 l 1
 62 305 l 1
 62 0 l 1
 698 0 l 1
 698 304 l 1
 618 304 l 1
 618 541 l 2
 618 629.936523438 636.776367188 738 726 738 c 0
 800.666992188 738 838 704.666992188 838 638 c 2
 838 0 l 1
 1360 0 l 1
 1360 305 l 1
 1275 305 l 1
 1275 579 l 2
 1275 666.206054688 1305.83398438 743 1395 743 c 0
 1458.52050781 743 1488.81835938 694.349609375 1495 635 c 1
 1495 0 l 1
 2069 0 l 5
 2069 305 l 5
 1950 305 l 1
 1950 729 l 2
 1950 958.069335938 1824.73144531 1092 1600 1092 c 0
 1457.33300781 1092 1341 1025 1251 891 c 1
 1204.47949219 995.94140625 1118.31054688 1092 983 1092 c 0
 815.14453125 1092 691.16015625 1003.13085938 618 902 c 1
 618 1092 l 1
EndSplineSet
EndChar

StartChar: n
Encoding: 110 110 81
Width: 1519
GlyphClass: 2
Flags: HMW
LayerCount: 2
Fore
SplineSet
1023 1092 m 4
 856 1092 733 1021 665 916 c 5
 665 1092 l 5
 62 1032 l 5
 62 761 l 5
 178 761 l 5
 178 305 l 5
 62 305 l 5
 62 0 l 5
 753 0 l 5
 753 305 l 5
 665 305 l 5
 665 624 l 6
 665 686 707 737 769 737 c 4
 823 737 859 684 859 627 c 6
 859 0 l 5
 1473 0 l 5
 1473 305 l 5
 1353 305 l 5
 1353 680 l 6
 1353 955 1243 1092 1023 1092 c 4
EndSplineSet
EndChar

StartChar: o
Encoding: 111 111 82
Width: 1265
GlyphClass: 2
Flags: HMW
LayerCount: 2
Fore
SplineSet
635 -18 m 256
 273.999023438 -18 33 186.831054688 33 547 c 0
 33 902.385742188 273.513671875 1091 634 1091 c 0
 996.157226562 1091 1237 903.387695312 1237 547 c 0
 1237 186.662109375 996.07421875 -18 635 -18 c 256
635 779 m 0
 513.307617188 779 498 666.270507812 498 545 c 0
 498 377.666992188 543.666992188 294 635 294 c 0
 726.333007812 294 772 377.666992188 772 545 c 0
 772 666.29296875 756.696289062 779 635 779 c 0
EndSplineSet
EndChar

StartChar: p
Encoding: 112 112 83
Width: 1422
GlyphClass: 2
Flags: HMW
LayerCount: 2
Back
SplineSet
957 1092 m 4
 790 1092 667 1021 599 916 c 5
 599 1092 l 5
 -4 1032 l 5
 -4 761 l 5
 112 761 l 5
 112 305 l 5
 -4 305 l 5
 -4 0 l 5
 687 0 l 5
 687 305 l 5
 599 305 l 5
 599 624 l 6
 599 686 641 737 703 737 c 4
 757 737 793 684 793 627 c 6
 793 0 l 5
 1407 0 l 5
 1407 305 l 5
 1287 305 l 5
 1287 680 l 6
 1287 955 1177 1092 957 1092 c 4
EndSplineSet
Fore
SplineSet
943 1093 m 0
 790.826171875 1093 691.624023438 1003.39453125 637 922 c 1
 637 1092 l 1
 34 1030 l 1
 34 761 l 1
 151 761 l 1
 151 -94 l 1
 34 -94 l 1
 34 -397 l 1
 741 -397 l 1
 741 -96 l 1
 630 -96 l 1
 630 119 l 1
 711.588867188 53.330078125 795.201171875 -17 941 -17 c 0
 1242.01074219 -17 1394 241.53125 1394 541 c 0
 1394 839.056640625 1239.36132812 1093 943 1093 c 0
925 545 m 0
 925 420.08203125 885.206054688 310 759 310 c 0
 691.8515625 310 632.579101562 350.952148438 632.096679688 406.000976562 c 2
 630 645 l 1
 643.422851562 698.670898438 692.236328125 739 762 739 c 0
 870.666992188 739 925 674.333007812 925 545 c 0
EndSplineSet
EndChar

StartChar: q
Encoding: 113 113 84
Width: 1413
GlyphClass: 2
Flags: HMW
LayerCount: 2
Fore
SplineSet
494 1092 m 0
 644.684591907 1092 744 1024.34579439 806 965 c 5
 870 1072 l 1
 1370 1072 l 1
 1370 761 l 1
 1276 761 l 1
 1276 -94 l 1
 1380 -94 l 1
 1380 -398 l 1
 686 -398 l 1
 686 -96 l 1
 797 -96 l 1
 797 128 l 1
 726.834960938 49.98046875 632.4609375 -17 486 -17 c 0
 170.231445312 -17 33 257.051757812 33 571 c 0
 33 859.344726562 206.690429688 1092 494 1092 c 0
668 329 m 0
 759.764648438 329 797 433.795898438 797 526 c 0
 797 637.573242188 772.495117188 768 665 768 c 0
 569.666992188 768 522 696.666992188 522 554 c 0
 522 439.966796875 554.788085938 329 668 329 c 0
EndSplineSet
EndChar

StartChar: r
Encoding: 114 114 85
Width: 1020
GlyphClass: 2
Flags: HMW
LayerCount: 2
Back
SplineSet
984 1092 m 4
 817 1092 694 1021 626 916 c 5
 626 1092 l 5
 23 1032 l 5
 23 761 l 5
 139 761 l 5
 139 305 l 5
 23 305 l 5
 23 0 l 5
 714 0 l 5
 714 305 l 5
 626 305 l 5
 626 624 l 6
 626 686 668 737 730 737 c 4
 784 737 820 684 820 627 c 6
 820 0 l 5
 1434 0 l 5
 1434 305 l 5
 1314 305 l 5
 1314 680 l 6
 1314 955 1204 1092 984 1092 c 4
EndSplineSet
Fore
SplineSet
635 426 m 2
 635 581.397863974 719.145389368 674 871 674 c 1
 977 667 l 1
 977 1090 l 1
 877.091796875 1090 730.4765625 1025.88574219 663 917 c 1
 663 1092 l 1
 60 1032 l 1
 60 761 l 1
 177 761 l 1
 177 305 l 1
 61 305 l 1
 61 0 l 1
 772 0 l 1
 772 305 l 1
 635 305 l 1
 635 426 l 2
EndSplineSet
EndChar

StartChar: s
Encoding: 115 115 86
Width: 1032
GlyphClass: 2
Flags: HMW
LayerCount: 2
Fore
SplineSet
509 846 m 0
 509 893.486328125 553.326171875 920 601 920 c 0
 694.672851562 920 730.227539062 849.134765625 759 782 c 1
 767 761 l 1
 968 761 l 1
 968 1081 l 1
 800 1081 l 1
 773 1033 l 1
 719.88671875 1070.18066406 583.952148438 1092 479 1092 c 0
 237.586914062 1092 67 986.369140625 67 746 c 0
 67 493.518554688 280.234375 453.41015625 463.5 386 c 128
 508.453125 369.46484375 562 341.2578125 562 287 c 0
 562 235.088867188 506.099609375 209 454 209 c 0
 360.125 209 298.361328125 304.421875 284 387 c 1
 63 387 l 1
 56 9 l 1
 233 9 l 1
 269 76 l 1
 335.666992188 13.3330078125 438.333007812 -18 577 -18 c 0
 847.536132812 -18 988 124.516601562 988 395 c 0
 988 565.3671875 876.115234375 687.459960938 686 736 c 128
 622.514648438 752.208984375 509 772.3359375 509 846 c 0
EndSplineSet
EndChar

StartChar: t
Encoding: 116 116 87
Width: 896
GlyphClass: 2
Flags: HMW
LayerCount: 2
Fore
SplineSet
741 334 m 0
 673.928710938 334 643 376.825195312 643 438 c 2
 643 761 l 1
 816 761 l 1
 816 1072 l 1
 644 1072 l 1
 644 1406 l 1
 157 1301 l 1
 157 1072 l 1
 34 1072 l 1
 34 761 l 1
 162 761 l 1
 162 385 l 1
 160.666992188 116.333007812 286.333007812 -18 541 -18 c 0
 657.09165623 -18 776.627950329 15.7479771782 849 49 c 5
 849 348 l 1
 807 338.666992188 771 334 741 334 c 0
EndSplineSet
EndChar

StartChar: u
Encoding: 117 117 88
Width: 1453
GlyphClass: 2
Flags: HMW
LayerCount: 2
Fore
SplineSet
1310.5 1092 m 1
 719.5 1032 l 1
 719.5 761 l 1
 815.5 761 l 1
 818 438 l 2
 818.504882812 372.731445312 778.357421875 318 714 318 c 0
 658.427734375 318 624 377.825195312 624 438 c 2
 624 1092 l 1
 34 1032 l 1
 34 761 l 1
 130 761 l 1
 130 385 l 2
 130 116.333007812 240 -18 460 -18 c 0
 627.6015625 -18 749.740234375 50.5078125 818 156 c 1
 818 0 l 1
 1408 0 l 5
 1408 305 l 5
 1312 305 l 1
 1310.5 1092 l 1
EndSplineSet
EndChar

StartChar: v
Encoding: 118 118 89
Width: 1410
GlyphClass: 2
Flags: HMW
LayerCount: 2
Fore
SplineSet
165 762 m 5
 38 762 l 1
 38 1072 l 1
 718 1072 l 1
 716 761 l 1
 611 761 l 1
 788 298 l 1
 941 762 l 1
 828 762 l 1
 828 1072 l 1
 1369 1072 l 1
 1369 761 l 1
 1246 761 l 1
 975 0 l 1
 502 0 l 1
 165 762 l 5
EndSplineSet
EndChar

StartChar: w
Encoding: 119 119 90
Width: 1973
GlyphClass: 2
Flags: HMW
LayerCount: 2
Fore
SplineSet
1375 761 m 1
 1431.24414062 761 1493 759.799804688 1493 759.799804688 c 129
 1472.2473819 629.915780694 1424.97930389 502.300592881 1394 380 c 1
 1327.32675686 555.450764861 1233.11305711 884.161501045 1176 1072 c 1
 910 1072 l 1
 700 392 l 1
 587 761 l 1
 701 761 l 1
 701 1072 l 1
 37 1072 l 1
 37 761 l 1
 106 761 l 1
 364 0 l 1
 808 0 l 1
 959 430 l 1
 1089 0 l 1
 1564 0 l 1
 1790 759.799804688 l 129
 1932 759.799804688 l 1
 1932 1072 l 1
 1375 1072 l 1
 1375 761 l 1
EndSplineSet
EndChar

StartChar: x
Encoding: 120 120 91
Width: 1274
GlyphClass: 2
Flags: HMW
LayerCount: 2
Fore
SplineSet
1223 0 m 5
 750 0 l 1
 561 277 l 1
 354 0 l 1
 57 0 l 1
 57 305 l 1
 208 305 l 1
 388 512 l 1
 206 761 l 1
 77 761 l 1
 77 1072 l 1
 571 1072 l 1
 733 821 l 1
 918 1072 l 1
 1192 1072 l 5
 1192 761 l 5
 1062 761 l 1
 899 580 l 1
 1092 305 l 1
 1223 305 l 5
 1223 0 l 5
EndSplineSet
EndChar

StartChar: y
Encoding: 121 121 92
Width: 1499
GlyphClass: 2
Flags: HMW
LayerCount: 2
Fore
SplineSet
435 -377 m 1
 1126 -377 l 1
 1126 -82 l 1
 894 -82 l 1
 1329 760.799804688 l 129
 1458 761 l 5
 1458 1072 l 5
 898 1072 l 1
 898 761 l 1
 1018 760.799804688 l 1
 866 454 l 1
 690 761 l 1
 788 761 l 1
 788 1072 l 1
 38 1072 l 1
 38 761 l 1
 166 761 l 1
 632 31 l 1
 435 -377 l 1
EndSplineSet
EndChar

StartChar: z
Encoding: 122 122 93
Width: 1193
GlyphClass: 2
Flags: HMW
LayerCount: 2
Fore
SplineSet
278 636 m 1
 278 757.967773438 367.701171875 761 489 761 c 2
 549 761 l 1
 549 750 l 1
 55 283 l 1
 55 0 l 1
 1140 0 l 1
 1140 451 l 1
 957 451 l 5
 925.545898438 334.624023438 885.12890625 305 735 305 c 6
 634 305 l 1
 634 316 l 1
 1103 795 l 1
 1103 1072 l 1
 81 1072 l 1
 81 636 l 1
 278 636 l 1
EndSplineSet
EndChar

StartChar: braceleft
Encoding: 123 123 94
Width: 898
GlyphClass: 2
Flags: HMW
LayerCount: 2
Fore
SplineSet
40 965 m 1
 151.049804688 969.189453125 205 1017.09960938 205 1128 c 0
 205 1303.77246094 269.39453125 1435.72949219 361 1531.5 c 128
 463.96875 1639.15039062 638.969726562 1704 851 1704 c 1
 851 1373 l 1
 743 1373 689 1291 689 1127 c 0
 689 999.666992188 605.333007812 905 438 843 c 1
 605.333007812 781.666992188 689 687.333007812 689 560 c 0
 689 396 743 314 851 314 c 1
 851 -17 l 1
 536.798828125 -17 330.819335938 114.505859375 244.5 338.5 c 128
 218.166992188 406.833007812 205 480.333007812 205 559 c 0
 205 669.903320312 151.05078125 717.810546875 40 722 c 1
 40 965 l 1
EndSplineSet
EndChar

StartChar: bar
Encoding: 124 124 95
Width: 546
GlyphClass: 2
Flags: HMW
LayerCount: 2
Fore
SplineSet
470 1623 m 1
 470 0 l 1
 75 0 l 1
 75 1623 l 1
 470 1623 l 1
EndSplineSet
EndChar

StartChar: braceright
Encoding: 125 125 96
Width: 904
GlyphClass: 2
Flags: HMW
LayerCount: 2
Fore
SplineSet
860 722 m 1
 748.950195312 717.810546875 695 669.900390625 695 559 c 0
 695 383.227539062 630.60546875 251.270507812 539 155.5 c 128
 436.03125 47.849609375 261.030273438 -17 49 -17 c 1
 49 314 l 1
 157 314 211 396 211 560 c 0
 211 687.333007812 294.666992188 781.666992188 462 843 c 1
 294.666992188 905 211 999.666992188 211 1127 c 0
 211 1291 157 1373 49 1373 c 1
 49 1704 l 1
 363.201171875 1704 569.180664062 1572.49414062 655.5 1348.5 c 128
 681.833007812 1280.16699219 695 1206.66699219 695 1128 c 0
 695 1017.09667969 748.94921875 969.189453125 860 965 c 1
 860 722 l 1
EndSplineSet
EndChar

StartChar: asciitilde
Encoding: 126 126 97
Width: 1299
GlyphClass: 2
Flags: HMW
LayerCount: 2
Fore
SplineSet
909 629 m 0
 824.893385572 629 741.344451032 667.400507075 683 700.5 c 128
 616.292037844 738.344211101 552.438718165 781.824512734 479.5 811 c 128
 444.5 825 412.333007812 832 383 832 c 0
 365 832 343.333007812 820.666992188 318 798 c 128
 292.666992188 775.333007812 243.666992188 720.666992188 171 634 c 1
 40 720 l 1
 71.8877473289 769.160925891 120.924001449 875.419698953 150 929.5 c 128
 197.862568789 1018.52263922 259.688600507 1122 394 1122 c 0
 528.792702194 1122 633.067582085 1044.35586881 722.5 993 c 128
 775.415525845 962.613671788 850.114052139 923 923 923 c 0
 939.666992188 923 961.5 934.666992188 988.5 958 c 128
 1015.5 981.333007812 1063.33300781 1034.33300781 1132 1117 c 1
 1261 1032 l 1
 1200.74746195 941.621192931 1155.28218448 815.511520231 1093 728.5 c 128
 1053.52418691 673.350192105 996.620162939 629 909 629 c 0
EndSplineSet
EndChar

StartChar: exclamdown
Encoding: 161 161 99
Width: 689
GlyphClass: 2
Flags: HMW
LayerCount: 2
Fore
SplineSet
556 1072 m 1
 135 1074 l 1
 53 299 l 1
 53 0 l 1
 640 0 l 1
 640 299 l 1
 556 1072 l 1
632 1408 m 0
 632 1251.78841692 502.571749024 1158 345 1158 c 0
 189.567184446 1158 68 1253.20371499 68 1408 c 0
 68 1562.57739728 188.227090866 1653 345 1653 c 0
 505.570266444 1653 632 1564.92677972 632 1408 c 0
EndSplineSet
EndChar

StartChar: cent
Encoding: 162 162 100
Width: 1101
GlyphClass: 2
Flags: HMW
LayerCount: 2
Fore
SplineSet
721 1362 m 1
 721 1057 l 1
 754.333007812 1041.66699219 787.666992188 1021 821 995 c 1
 862 1072 l 1
 1037 1072 l 1
 1037 628 l 1
 795 628 l 1
 795 692.997895135 764.648536201 744.836427515 721 766 c 1
 721 305 l 1
 764.273523441 323.218850627 785.529995819 367.119983278 797.5 415 c 128
 798.5 419 799 422.333007812 799 425 c 1
 1039 425 l 1
 1039 124 l 1
 970.333007812 55.3330078125 864.333007812 11 721 -9 c 1
 721 -261 l 1
 609 -261 l 1
 609 -18 l 1
 596 -18 l 2
 363.856149017 -18 206.341316931 81.9706508446 117.5 238.5 c 128
 68.5 324.833007812 44 427.333007812 44 546 c 0
 44 705.601514684 104.08235647 838.209474478 182.5 928 c 128
 262.867108461 1020.02272063 396.722929697 1092 563 1092 c 0
 578.333007812 1092 593.666992188 1091 609 1089 c 1
 609 1362 l 1
 721 1362 l 1
517 513 m 0
 517 422.141706046 546.713894996 338.844791706 609 309 c 1
 609 759 l 1
 547.666992188 720.333007812 517 638.333007812 517 513 c 0
EndSplineSet
EndChar

StartChar: sterling
Encoding: 163 163 101
Width: 1235
GlyphClass: 2
Flags: HMW
LayerCount: 2
Fore
SplineSet
952 1265 m 0
 822.657354124 1265 723 1237.21692881 723 1117 c 2
 723 993 l 1
 976 993 l 1
 976 760 l 1
 723 760 l 1
 723 628.333333333 723 496.666666667 723 365 c 1
 754 356 l 1
 815.856409883 340.536605432 931.693098422 331 1019 331 c 0
 1069.66699219 331 1128 334 1194 340 c 1
 1194 29 l 1
 1102.66699219 -2.3330078125 1012 -18 922 -18 c 0
 752.666992188 -18 668 39 668 153 c 1
 598.666992188 38.3330078125 484.666992188 -19 326 -19 c 0
 251.333007812 -19 157 -3 43 29 c 1
 43 340 l 1
 81.6669921875 331.333007812 113.666992188 327 139 327 c 0
 239.422931999 327 249 401.750158176 249 520 c 2
 249 760 l 1
 125 760 l 1
 125 993 l 1
 249 993 l 1
 249 1207 l 2
 249 1398.11540175 373.124059465 1497.95956339 513.5 1552.5 c 128
 610.25786442 1590.09345192 715.327789386 1609 843 1609 c 0
 966.333007812 1609 1072 1593.66699219 1160 1563 c 1
 1160 1252 l 1
 1078.66699219 1260.66699219 1009.33300781 1265 952 1265 c 0
EndSplineSet
EndChar

StartChar: currency
Encoding: 164 164 102
Width: 1234
GlyphClass: 2
Flags: HMW
LayerCount: 2
Fore
SplineSet
40 1097 m 0
 40 1237 78.3330078125 1354.66699219 155 1450 c 1
 88 1518 l 1
 191 1621 l 1
 262 1549 l 1
 364 1619 481.333007812 1654 614 1654 c 0
 750.666992188 1654 870 1617.33300781 972 1544 c 1
 1049 1621 l 1
 1152 1518 l 1
 1078 1444 l 1
 1151.33300781 1349.33300781 1188 1233.66699219 1188 1097 c 0
 1188 955 1149 836.333007812 1071 741 c 1
 1152 660 l 1
 1049 557 l 1
 963 643 l 1
 862.333007812 574.333007812 746 540 614 540 c 0
 484.666992188 540 370.666992188 572.666992188 272 638 c 1
 191 557 l 1
 88 660 l 1
 162 734 l 1
 80.6669921875 830.666992188 40 951.666992188 40 1097 c 0
753 1467.5 m 128
 708.333007812 1484.5 662 1493 614 1493 c 128
 504.425264946 1493 416.662366973 1449.55082849 353.5 1394.5 c 128
 283.513117502 1333.50108483 234 1226.4256695 234 1097 c 128
 234 901.998345064 334.433371802 779.998849202 475 726.5 c 128
 519.666992188 709.5 566 701 614 701 c 128
 723.574735056 701 811.337633025 744.44917151 874.5 799.5 c 128
 944.486882499 860.498915169 994 967.574330504 994 1097 c 128
 994 1291.06039521 893.16105007 1414.1555115 753 1467.5 c 128
EndSplineSet
EndChar

StartChar: yen
Encoding: 165 165 103
Width: 1662
GlyphClass: 2
Flags: HMW
LayerCount: 2
Fore
SplineSet
982 1272 m 1
 1059.93737455 1272 1099 1278.3603214 1099 1221 c 0
 1099 1184.33300781 1061 1108.33300781 985 993 c 1
 968.018209909 1018.06875166 818.660465481 1249.91808156 801 1274 c 1
 892 1274 l 1
 892 1622 l 1
 40 1622 l 1
 40 1274 l 1
 152 1274 l 1
 388 936 l 1
 151 936 l 1
 151 762 l 1
 510 762 l 1
 573 672 l 1
 573 630 l 1
 151 630 l 1
 151 456 l 1
 573 456 l 1
 573 371 l 1
 418 371 l 1
 418 0 l 1
 1287 0 l 1
 1287 371 l 1
 1130 371 l 1
 1130 456 l 1
 1544 456 l 1
 1544 630 l 1
 1130 630 l 1
 1130 762 l 1
 1544 762 l 1
 1544 936 l 1
 1233 936 l 1
 1334 1095 l 1
 1365.61391535 1153.16908558 1367.32431777 1160.65647858 1401.5 1206.5 c 128
 1433.40782571 1249.30140134 1473.12327524 1272 1545 1272 c 2
 1619 1272 l 1
 1619 1622 l 1
 982 1622 l 1
 982 1272 l 1
EndSplineSet
EndChar

StartChar: brokenbar
Encoding: 166 166 104
Width: 544
GlyphClass: 2
Flags: HMW
LayerCount: 2
Fore
SplineSet
469 721 m 1
 469 0 l 1
 74 0 l 1
 74 721 l 1
 469 721 l 1
469 1623 m 1
 469 902 l 1
 74 902 l 1
 74 1623 l 1
 469 1623 l 1
EndSplineSet
EndChar

StartChar: section
Encoding: 167 167 105
Width: 1016
GlyphClass: 2
Flags: HMW
LayerCount: 2
Fore
SplineSet
477 209 m 0
 524.099264464 209 565 238.320834309 565 287 c 0
 565 349.121489688 505.117481259 395.25454398 460.5 425 c 128
 358.71655042 492.856701849 236.129597 554.177879117 144.5 633 c 128
 92.3776014049 677.837019231 40 747.925002495 40 837 c 0
 40 967.343228044 140.358478603 1059.82403958 244 1097 c 1
 134 1176.33300781 79 1262.66699219 79 1356 c 0
 79 1526.38894574 251.734516028 1638 430 1638 c 0
 530.772418066 1638 626.809021122 1619.44290898 684.5 1579.5 c 128
 688.833007812 1576.5 692 1574 694 1572 c 1
 721 1623 l 1
 889 1623 l 1
 889 1300 l 1
 688 1300 l 1
 645 1395 l 1
 626.911856204 1429.0487291 588.90775219 1466 542 1466 c 0
 494.430215975 1466 459 1427.54173134 459 1377 c 0
 459 1358.33300781 468.5 1339.33300781 487.5 1320 c 128
 532.089794445 1274.62869241 599.976214083 1241.37630531 663 1207 c 128
 736.139416334 1167.10612708 813.689364668 1117.59901747 874 1064.5 c 128
 926.312742938 1018.44253044 977 946.098909456 977 855 c 0
 977 704.140228098 886.407619375 591.42210797 765 555 c 1
 872.333007812 489.666992188 926 403.333007812 926 296 c 0
 926 215.333007812 891.666992188 142.833007812 823 78.5 c 128
 754.333007812 14.1669921875 670 -18 570 -18 c 0
 437.278111602 -18 349.518666457 -0.815822165445 282 68 c 1
 246 1 l 1
 76 1 l 1
 76 379 l 1
 297 379 l 1
 311.905936668 294.533632072 379.646694026 209 477 209 c 0
461 988 m 1
 393 954.666992188 359 918 359 878 c 0
 359 846 381.833007812 813.666992188 427.5 781 c 128
 473.166992188 748.333007812 531.333007812 717.666992188 602 689 c 1
 659.333007812 725.666992188 688 769.666992188 688 821 c 0
 688 853.666992188 665.833007812 885 621.5 915 c 128
 577.166992188 945 523.666992188 969.333007812 461 988 c 1
EndSplineSet
EndChar

StartChar: dieresis
Encoding: 168 168 106
Width: 1184
GlyphClass: 2
Flags: HMW
LayerCount: 2
Fore
SplineSet
282 1572 m 128
 412.591205834 1572 508 1478.1474012 508 1342 c 0
 508 1207.25517007 413.256177078 1112 284 1112 c 0
 152.09762122 1112 56 1207.57218823 56 1345 c 0
 56 1479.57114626 152.389756838 1572 282 1572 c 128
899 1572 m 128
 1029.59120583 1572 1125 1478.1474012 1125 1342 c 0
 1125 1207.25517007 1030.25617708 1112 901 1112 c 0
 769.09762122 1112 673 1207.57218823 673 1345 c 0
 673 1479.57114626 769.389756838 1572 899 1572 c 128
EndSplineSet
EndChar

StartChar: copyright
Encoding: 169 169 107
Width: 1770
GlyphClass: 2
Flags: HMW
LayerCount: 2
Fore
SplineSet
44 792 m 128
 44 1036.31372713 157.625320109 1237.31476999 289.5 1364.5 c 128
 423.531663237 1493.76551125 633.944066452 1602 884 1602 c 128
 1133.86833458 1602 1344.60467982 1493.63401654 1478.5 1364.5 c 128
 1610.35107938 1237.33753127 1724 1035.69816456 1724 792 c 128
 1724 548.505059496 1610.20115722 346.517877791 1478.5 219.5 c 128
 1344.46833677 90.2344887493 1134.05593355 -18 884 -18 c 128
 634.131665418 -18 423.395320178 90.3659834609 289.5 219.5 c 128
 157.648920618 346.662468733 44 548.301835443 44 792 c 128
884 1448 m 0
 685.395087141 1448 519.341483433 1360.0676135 413.5 1256 c 128
 308.205730791 1152.47042958 218 988.899054187 218 792 c 128
 218 595.261649999 308.322738903 431.414523321 413.5 328 c 128
 519.454690128 223.821077114 685.238259303 136 884 136 c 0
 1150.7047273 136 1355.32861905 285.560410774 1460.5 463 c 128
 1520.16699219 563.666992188 1550 673.333007812 1550 792 c 128
 1550 1057.21308912 1396.76527187 1257.22813265 1217.5 1360 c 128
 1115.16699219 1418.66699219 1004 1448 884 1448 c 0
763 812 m 0
 763 652.888427434 760.90829955 488 921 488 c 0
 994.416211404 488 1047.55054177 534.510863096 1060 598 c 0
 1062 606.666992188 1063.66699219 626.666992188 1065 658 c 1
 1256 658 l 1
 1256 398 l 1
 1238 383 l 2
 1204.24556291 354.871302428 1147.95773219 325.914280013 1100 303.5 c 128
 1040.80507089 275.833726892 943.057658319 252 856 252 c 0
 537.767226246 252 369 460.055842652 369 780 c 0
 369 1025.26761515 464.722147759 1213.57115055 640 1287 c 128
 689.333007812 1307.66699219 743.666992188 1318 803 1318 c 0
 911 1318 987 1296.66699219 1031 1254 c 1
 1053 1299 l 1
 1250 1299 l 1
 1250 898 l 1
 1061 898 l 1
 1063.21368739 999.781002494 1015.02450506 1088 913 1088 c 0
 775.80500795 1088 763 948.707935057 763 812 c 0
EndSplineSet
EndChar

StartChar: ordfeminine
Encoding: 170 170 108
Width: 991
GlyphClass: 2
Flags: HMW
LayerCount: 2
Fore
SplineSet
326 806 m 0
 173.808975759 806 39 895.559496527 39 1046 c 0
 39 1175.26021859 138.487840984 1241.38639111 242.5 1269 c 128
 280.166992188 1279 319.333007812 1284 360 1284 c 0
 432 1284 495 1274.66699219 549 1256 c 1
 549 1289 l 2
 549 1370.33300781 497 1411 393 1411 c 0
 323 1411 270.333007812 1387.66699219 235 1341 c 1
 105 1341 l 1
 105 1573 l 1
 155 1586 l 2
 223.327738392 1604.12826757 370.715986132 1625 462 1625 c 0
 644.09807984 1625 803.575252413 1590.06971398 862 1464 c 128
 874.666992188 1436.66699219 881 1406 881 1372 c 2
 881 1044 l 1
 937 1044 l 1
 937 819 l 1
 589 819 l 1
 552 907 l 1
 509.272765771 851.570806002 418.446638875 806 326 806 c 0
478 1142 m 0
 436.18622134 1142 401 1101.37070497 401 1060 c 0
 401 1015.96354673 427.485021363 984 471 984 c 0
 505.69044699 984 535.578519522 1002.57851952 551 1018 c 1
 551 1127 l 1
 533.251864987 1134.09925401 504.057775579 1142 478 1142 c 0
EndSplineSet
EndChar

StartChar: guillemotleft
Encoding: 171 171 109
Width: 1314
GlyphClass: 2
Flags: HMW
LayerCount: 2
Fore
SplineSet
659 669 m 1
 1085 1073 l 1
 1276 849 l 1
 961 534 l 1
 1276 219 l 1
 1085 -5 l 1
 659 399 l 1
 659 669 l 1
49 669 m 1
 475 1073 l 1
 666 849 l 1
 351 534 l 1
 666 219 l 1
 475 -5 l 1
 49 399 l 1
 49 669 l 1
EndSplineSet
EndChar

StartChar: logicalnot
Encoding: 172 172 110
Width: 1137
GlyphClass: 2
Flags: HMW
LayerCount: 2
Fore
SplineSet
56 1092 m 1
 1067 1092 l 1
 1067 542 l 1
 836 542 l 1
 836 761 l 1
 57 761 l 1
 56 1092 l 1
EndSplineSet
EndChar

StartChar: uni00AD
Encoding: 173 173 111
Width: 778
GlyphClass: 2
Flags: HMW
LayerCount: 2
Fore
SplineSet
713 836 m 1
 713 537 l 1
 66 537 l 1
 66 836 l 1
 713 836 l 1
EndSplineSet
EndChar

StartChar: registered
Encoding: 174 174 112
Width: 1770
GlyphClass: 2
Flags: HMW
LayerCount: 2
Fore
SplineSet
44 792 m 128
 44 1036.31372713 157.625320109 1237.31476999 289.5 1364.5 c 128
 423.531663237 1493.76551125 633.944066452 1602 884 1602 c 128
 1133.86833458 1602 1344.60467982 1493.63401654 1478.5 1364.5 c 128
 1610.35107938 1237.33753127 1724 1035.69816456 1724 792 c 128
 1724 548.505059496 1610.20115722 346.517877791 1478.5 219.5 c 128
 1344.46833677 90.2344887493 1134.05593355 -18 884 -18 c 128
 634.131665418 -18 423.395320178 90.3659834609 289.5 219.5 c 128
 157.648920618 346.662468733 44 548.301835443 44 792 c 128
884 1448 m 0
 685.395087141 1448 519.341483433 1360.0676135 413.5 1256 c 128
 308.205730791 1152.47042958 218 988.899054187 218 792 c 128
 218 595.261649999 308.322738903 431.414523321 413.5 328 c 128
 519.454690128 223.821077114 685.238259303 136 884 136 c 0
 1150.7047273 136 1355.32861905 285.560410774 1460.5 463 c 128
 1520.16699219 563.666992188 1550 673.333007812 1550 792 c 128
 1550 1057.21308912 1396.76527187 1257.22813265 1217.5 1360 c 128
 1115.16699219 1418.66699219 1004 1448 884 1448 c 0
995 614 m 2
 995 700.997800168 977.276141418 749 891 749 c 2
 837 749 l 1
 837 568 l 1
 904 568 l 1
 904 363 l 1
 806 363 656 362.666992188 454 362 c 1
 454 565 l 1
 539 565 l 1
 539 1061 l 1
 453 1061 l 1
 453 1265 l 1
 1017 1265 l 2
 1201.04193743 1265 1312 1195.92023465 1312 1014 c 0
 1312 892.083476113 1223.51543719 831.746958137 1112 812 c 1
 1196.38335559 792.447373026 1266 761.133866547 1266 674 c 2
 1266 622 l 2
 1266 567.816734808 1292.82819349 562 1357 562 c 1
 1357 363 l 1
 1211 363 l 2
 1144.21537602 363 1080.11625542 363.57730688 1041 394 c 128
 1014.26990051 414.789352281 995 454.863440505 995 505 c 2
 995 614 l 2
1006 972 m 0
 1006 1032.93198568 963.474713118 1071 901 1071 c 2
 833 1071 l 1
 833 875 l 1
 867 875 l 2
 959.666992188 875 1006 907.333007812 1006 972 c 0
EndSplineSet
EndChar

StartChar: glyph113
Encoding: 175 175 113
Width: 778
GlyphClass: 2
Flags: HMW
LayerCount: 2
Fore
SplineSet
710 1433 m 1
 710 1164 l 1
 63 1164 l 1
 63 1433 l 1
 710 1433 l 1
EndSplineSet
EndChar

StartChar: degree
Encoding: 176 176 114
Width: 808
GlyphClass: 2
Flags: HMW
LayerCount: 2
Fore
SplineSet
195 1296 m 0
 195 1181.77121712 278.077298929 1092 396 1092 c 0
 517.658865765 1092 604 1178.87620515 604 1296 c 0
 604 1411.93842491 517.355001235 1495 396 1495 c 0
 276.873825225 1495 195 1410.51901593 195 1296 c 0
396 951 m 0
 222.201467716 951 113.469871047 1044.09796573 66 1170 c 128
 50.6669921875 1210.66699219 43 1253 43 1297 c 0
 43 1451.15785503 128.51988551 1557.6277788 242 1604.5 c 128
 288 1623.5 339.333007812 1633 396 1633 c 0
 574.170737293 1633 688.17817414 1547.33623262 738.5 1421 c 128
 754.166992188 1381.66699219 762 1340.33300781 762 1297 c 0
 762 1196.39391895 720.956676073 1116.73769702 669.5 1059.5 c 128
 612.481275544 996.075373226 514.834539772 951 396 951 c 0
EndSplineSet
EndChar

StartChar: plusminus
Encoding: 177 177 115
Width: 814
GlyphClass: 2
Flags: HMW
LayerCount: 2
Fore
SplineSet
730 223 m 1
 730 -1 l 1
 83 -1 l 1
 83 223 l 1
 730 223 l 1
53 762 m 1
 285 762 l 1
 285 1031 l 1
 540 1031 l 1
 540 762 l 1
 765 762 l 1
 765 517 l 1
 540 517 l 1
 540 278 l 1
 285 278 l 1
 285 517 l 1
 53 517 l 1
 53 762 l 1
EndSplineSet
EndChar

StartChar: uni00B2
Encoding: 178 178 116
Width: 805
GlyphClass: 2
Flags: HMW
LayerCount: 2
Fore
SplineSet
525.094726562 481 m 1
 598.92879815 483.420178846 655.094726562 497.095428737 655.094726562 570 c 1
 759.094726562 570 l 1
 759.094726562 286 l 1
 71.0947265625 286 l 1
 71.0947265625 468 l 1
 180.052152039 511.207895444 266.7958692 571.818962203 334.594726562 642.5 c 128
 365.466826278 674.6844959 400.094726562 739.082398465 400.094726562 803 c 1
 396.797104544 853.56407433 367.127421351 907 318.094726562 907 c 0
 267.206811887 907 236.094726562 871.106449178 236.094726562 821 c 0
 236.094726562 793 248.76171875 767.333007812 274.094726562 744 c 1
 137.094726562 639 l 1
 75.76171875 693.666992188 46.0947265625 766.666992188 48.0947265625 858 c 1
 48.0947265625 978.316741175 140.908275714 1061.81648911 233.094726562 1095.5 c 128
 369.663097567 1145.39998171 526.27872164 1119.10844893 619.094726562 1043.5 c 128
 678.427734375 995.166992188 708.094726562 929 708.094726562 845 c 0
 708.094726562 783 686.76171875 725 644.094726562 671 c 0
 610.094726562 627 538.094726562 563.666992188 428.094726562 481 c 1
 525.094726562 481 l 1
EndSplineSet
EndChar

StartChar: uni00B3
Encoding: 179 179 117
Width: 769
GlyphClass: 2
Flags: HMW
LayerCount: 2
Fore
SplineSet
343 270 m 0
 220.62784991 270 138.133142689 277.704757241 65 326 c 1
 65 529 l 1
 135.666992188 471.666992188 208 443 282 443 c 0
 345.362977793 443 413 466.473566846 413 529 c 0
 413 600.928676869 339.693596389 627 267 627 c 0
 247.363775472 627 205.700612684 616 192 616 c 1
 187.965826137 617.632492804 180.433877245 615.767210578 180 621 c 2
 180 714 l 1
 380 884 l 1
 380 890 l 1
 252 890 l 2
 190.824542077 890 183.684647081 854.923083273 171 806 c 1
 58 807 l 1
 58 1072 l 1
 684 1072 l 1
 684 918 l 2
 684 916.666992188 628.333007812 870.333007812 517 779 c 1
 623.561185716 768.971381682 723 671.807776562 723 558 c 0
 723 357.123968601 554.553132308 270 343 270 c 0
EndSplineSet
EndChar

StartChar: acute
Encoding: 180 180 118
Width: 754
GlyphClass: 2
Flags: HMW
LayerCount: 2
Fore
SplineSet
706 1443 m 1
 152 1130 l 1
 48 1271 l 1
 522 1708 l 1
 706 1443 l 1
EndSplineSet
EndChar

StartChar: uni00B5
Encoding: 181 181 119
Width: 1426
GlyphClass: 2
Flags: HMW
LayerCount: 2
Fore
SplineSet
709 318 m 0
 773.351176736 318 813 372.743947523 813 438 c 2
 813 761 l 1
 732 761 l 1
 732 1072 l 1
 1307 1072 l 1
 1307 305 l 1
 1383 305 l 1
 1383 0 l 1
 813 0 l 1
 813 156 l 1
 744.704500259 50.4527402073 622.660266812 -18 455 -18 c 0
 235 -18 125 116.333007812 125 385 c 2
 125 761 l 1
 45 761 l 1
 45 1072 l 1
 619 1072 l 1
 619 438 l 2
 619 377.777684196 653.389938709 318 709 318 c 0
EndSplineSet
EndChar

StartChar: paragraph
Encoding: 182 182 120
Width: 1461
GlyphClass: 2
Flags: HMW
LayerCount: 2
Fore
SplineSet
607.095703125 739 m 1
 278.707411865 739 31.4461715252 835.663698433 37.095703125 1166 c 0
 39.0891214093 1315.65251636 84.405517261 1416.92187747 162.095703125 1489.5 c 128
 212.082107075 1536.19906711 273.567351481 1561.9774429 346.595703125 1584.5 c 128
 417.163228281 1606.26421344 496.077795439 1612.25320595 581.095703125 1619 c 128
 664.544586311 1625.62228046 751.631145611 1621.65897343 840.095703125 1623 c 1
 1407.09570312 1623 l 1
 1407.09570312 1268 l 1
 1256.09570312 1268 l 1
 1256.09570312 363 l 1
 1412.09570312 363 l 1
 1412.09570312 0 l 1
 1003.09570312 0 l 1
 1003.09570312 1270 l 1
 878.095703125 1270 l 1
 878.095703125 0 l 1
 461.095703125 0 l 1
 461.095703125 363 l 1
 607.095703125 363 l 1
 607.095703125 739 l 1
EndSplineSet
EndChar

StartChar: periodcentered
Encoding: 183 183 121
Width: 670
GlyphClass: 2
Flags: HMW
LayerCount: 2
Fore
SplineSet
616 764 m 0
 616 607.788416921 486.571749024 514 329 514 c 0
 173.567184446 514 52 609.203714993 52 764 c 0
 52 918.577397285 172.227090866 1009 329 1009 c 0
 489.570266444 1009 616 920.926779723 616 764 c 0
EndSplineSet
EndChar

StartChar: cedilla
Encoding: 184 184 122
Width: 512
GlyphClass: 2
Flags: HMW
LayerCount: 2
Fore
SplineSet
247 -271 m 0
 247 -205.53684063 183.753100776 -145.424888884 137 -119 c 1
 137 0 l 1
 317 0 l 1
 317 -119 l 1
 405.666992188 -170.333007812 450 -225.666992188 450 -285 c 0
 450 -420.370851562 234.29856221 -485 81 -485 c 2
 60 -485 l 1
 60 -372 l 1
 124.666992188 -371.333007812 172 -361.666992188 202 -343 c 128
 232 -324.333007812 247 -300.333007812 247 -271 c 0
EndSplineSet
EndChar

StartChar: uni00B9
Encoding: 185 185 123
Width: 535
GlyphClass: 2
Flags: HMW
LayerCount: 2
Fore
SplineSet
86 286 m 1
 85 476 l 1
 138 476 l 1
 138 843 l 1
 42 842 l 1
 42 993 l 1
 429 1091 l 1
 433 476 l 1
 489 476 l 1
 489 286 l 1
 86 286 l 1
EndSplineSet
EndChar

StartChar: ordmasculine
Encoding: 186 186 124
Width: 993
GlyphClass: 2
Flags: HMW
LayerCount: 2
Fore
SplineSet
497 270 m 128
 233.38272662 270 51 425.703682541 51 688 c 0
 51 951.76689986 229.498635783 1091 497 1091 c 0
 765.386881271 1091 943 952.28330576 943 688 c 0
 943 425.712688879 760.599313881 270 497 270 c 128
497 860 m 128
 406.4462591 860 396 776.404251262 396 686 c 0
 396 562.666992188 429.666992188 501 497 501 c 0
 565 501 599 562.666992188 599 686 c 0
 599 776.229749948 587.713487517 860 497 860 c 128
EndSplineSet
EndChar

StartChar: guillemotright
Encoding: 187 187 125
Width: 1311
GlyphClass: 2
Flags: HMW
LayerCount: 2
Fore
SplineSet
655 399 m 1
 229 -5 l 1
 38 219 l 1
 353 534 l 1
 38 849 l 1
 229 1073 l 1
 655 669 l 1
 655 399 l 1
1265 399 m 1
 839 -5 l 1
 648 219 l 1
 963 534 l 1
 648 849 l 1
 839 1073 l 1
 1265 669 l 1
 1265 399 l 1
EndSplineSet
EndChar

StartChar: onequarter
Encoding: 188 188 126
Width: 1674
GlyphClass: 2
Flags: HMW
LayerCount: 2
Fore
SplineSet
79 818 m 1
 78 1008 l 1
 131 1008 l 1
 131 1375 l 1
 35 1374 l 1
 35 1525 l 1
 422 1623 l 1
 426 1008 l 1
 482 1008 l 1
 482 818 l 1
 79 818 l 1
316 0 m 1
 807 1623 l 1
 1171 1623 l 1
 669 0 l 1
 316 0 l 1
1504 170 m 1
 1576 170 l 1
 1576 1 l 1
 1162 1 l 1
 1162 170 l 1
 1236 170 l 1
 1236 247 l 1
 923 247 l 1
 923 405 l 1
 1247 789 l 1
 1505 788 l 1
 1505 397 l 1
 1638 398 l 1
 1638 247 l 1
 1504 247 l 1
 1504 170 l 1
1236 398 m 1
 1236 536 l 1
 1125 399 l 1
 1236 398 l 1
EndSplineSet
EndChar

StartChar: onehalf
Encoding: 189 189 127
Width: 1741
GlyphClass: 2
Flags: HMW
LayerCount: 2
Fore
SplineSet
78 818 m 1
 77 1008 l 1
 130 1008 l 1
 130 1375 l 1
 34 1374 l 1
 34 1525 l 1
 421 1623 l 1
 425 1008 l 1
 481 1008 l 1
 481 818 l 1
 78 818 l 1
323 0 m 1
 814 1623 l 1
 1178 1623 l 1
 676 0 l 1
 323 0 l 1
1467 194 m 1
 1540.83407159 196.420178846 1597 210.095428737 1597 283 c 1
 1701 283 l 1
 1701 -1 l 1
 1013 -1 l 1
 1013 181 l 1
 1121.95742548 224.207895446 1208.70114263 284.818962207 1276.5 355.5 c 128
 1307.37209972 387.684495898 1342 452.082398467 1342 516 c 1
 1338.70237798 566.56407433 1309.03269479 620 1260 620 c 0
 1209.11208532 620 1178 584.106449178 1178 534 c 0
 1178 506 1190.66699219 480.333007812 1216 457 c 1
 1079 352 l 1
 1017.66699219 406.666992188 988 479.666992188 990 571 c 1
 990 691.316741174 1082.81354915 774.816489114 1175 808.5 c 128
 1311.568371 858.399981713 1468.18399508 832.108448928 1561 756.5 c 128
 1620.33300781 708.166992188 1650 642 1650 558 c 0
 1650 496 1628.66699219 438 1586 384 c 0
 1552 340 1480 276.666992188 1370 194 c 1
 1467 194 l 1
EndSplineSet
EndChar

StartChar: threequarters
Encoding: 190 190 128
Width: 1778
GlyphClass: 2
Flags: HMW
LayerCount: 2
Fore
SplineSet
329 822 m 0
 206.62784991 822 124.133142689 829.704757242 51 878 c 1
 51 1081 l 1
 121.666992188 1023.66699219 194 995 268 995 c 0
 331.362977793 995 399 1018.47356685 399 1081 c 0
 399 1152.92867687 325.693596389 1179 253 1179 c 0
 233.363775472 1179 191.700612684 1168 178 1168 c 0
 170.433922699 1168 167.549067242 1168.35279827 166 1173 c 1
 166 1266 l 1
 366 1436 l 1
 366 1442 l 1
 238 1442 l 2
 176.824542077 1442 169.68464708 1406.92308327 157 1358 c 1
 44 1359 l 1
 44 1624 l 1
 670 1624 l 1
 670 1470 l 2
 670 1468.66699219 614.333007812 1422.33300781 503 1331 c 1
 609.561185716 1320.97138169 709 1223.80777656 709 1110 c 0
 709 909.123968601 540.553132308 822 329 822 c 0
470 0 m 1
 961 1623 l 1
 1325 1623 l 1
 823 0 l 1
 470 0 l 1
1610 168 m 1
 1682 168 l 1
 1682 -1 l 1
 1268 -1 l 1
 1268 168 l 1
 1342 168 l 1
 1342 245 l 1
 1029 245 l 1
 1029 403 l 1
 1353 787 l 1
 1611 786 l 1
 1611 395 l 1
 1744 396 l 1
 1744 245 l 1
 1610 245 l 1
 1610 168 l 1
1342 396 m 1
 1342 534 l 1
 1231 397 l 1
 1342 396 l 1
EndSplineSet
EndChar

StartChar: questiondown
Encoding: 191 191 129
Width: 1288
GlyphClass: 2
Flags: HMW
LayerCount: 2
Fore
SplineSet
652 338 m 0
 582.654309269 338 556 403.527717547 556 470 c 0
 556 589.333007812 688 708.666992188 952 828 c 1
 953 1180 l 1
 606 1180 l 1
 606 993 l 1
 447.532454138 938.446035649 303.747525147 875.518922525 190.5 773 c 128
 108.963633931 699.188052365 44 597.984324298 44 447 c 0
 44 243.193901463 182.898607388 109.462186299 337.5 42 c 128
 429.166992188 2 531.333007812 -18 644 -18 c 0
 815.333007812 -18 957.5 30.6669921875 1070.5 128 c 128
 1183.5 225.333007812 1244.66699219 349.333007812 1254 500 c 1
 782 500 l 1
 775.333007812 392 732 338 652 338 c 0
486 1496 m 0
 486 1652.21158308 615.428250976 1746 773 1746 c 0
 928.432815555 1746 1050 1650.79628501 1050 1496 c 0
 1050 1341.42260272 929.772909135 1251 773 1251 c 0
 612.429733556 1251 486 1339.07322028 486 1496 c 0
EndSplineSet
EndChar

StartChar: Agrave
Encoding: 192 192 130
Width: 1726
GlyphClass: 2
Flags: HMW
LayerCount: 2
Fore
SplineSet
601 459 m 1
 602.430249416 489.020579238 601.783025433 523 631 523 c 2
 906 523 l 2
 950.666992188 523 973 468.333007812 973 359 c 1
 853 359 l 1
 854 0 l 1
 1680 0 l 1
 1680 359 l 1
 1594 359 l 2
 1554.81455351 359 1547.12835735 411.624898962 1538 447 c 2
 1231 1623 l 1
 237 1623 l 1
 237 1270 l 1
 449 1270 l 1
 277 591 l 2
 259 521 246.333007812 478 239 462 c 0
 207.226675925 388.824601695 149.651995107 359 50 359 c 1
 50 0 l 1
 728 0 l 1
 728 359 l 1
 644 359 l 2
 613.847370109 359 601 428.35089175 601 459 c 1
658 773 m 1
 770 1281 l 1
 887 773 l 1
 658 773 l 1
694 2270 m 1
 1168 1833 l 1
 1064 1692 l 1
 510 2005 l 1
 694 2270 l 1
EndSplineSet
EndChar

StartChar: Aacute
Encoding: 193 193 131
Width: 1726
GlyphClass: 2
Flags: HMW
LayerCount: 2
Fore
SplineSet
601 459 m 1
 601 428.304298444 613.841097937 359 644 359 c 2
 728 359 l 1
 728 0 l 1
 50 0 l 1
 50 359 l 1
 219.132340562 359 237.862309184 438.797869051 277 591 c 2
 449 1270 l 1
 237 1270 l 1
 237 1623 l 1
 1231 1623 l 1
 1538 447 l 2
 1547.1631561 411.490043447 1549.49927422 392.523664017 1568 371.5 c 128
 1575.33300781 363.166992188 1584 359 1594 359 c 2
 1680 359 l 1
 1680 0 l 1
 854 0 l 1
 853 359 l 1
 973 359 l 1
 973 468.333007812 950.666992188 523 906 523 c 2
 631 523 l 2
 601.79151488 523 602.428910039 488.992466041 601 459 c 1
887 773 m 1
 770 1281 l 1
 658 773 l 1
 887 773 l 1
1168 2005 m 1
 614 1692 l 1
 510 1833 l 1
 984 2270 l 1
 1168 2005 l 1
EndSplineSet
EndChar

StartChar: Acircumflex
Encoding: 194 194 132
Width: 1726
GlyphClass: 2
Flags: HMW
LayerCount: 2
Fore
SplineSet
601 459 m 1
 601 428.304298444 613.841097937 359 644 359 c 2
 728 359 l 1
 728 0 l 1
 50 0 l 1
 50 359 l 1
 219.132340562 359 237.862309184 438.797869051 277 591 c 2
 449 1270 l 1
 237 1270 l 1
 237 1623 l 1
 1231 1623 l 1
 1538 447 l 2
 1547.1631561 411.490043447 1549.49927422 392.523664017 1568 371.5 c 128
 1575.33300781 363.166992188 1584 359 1594 359 c 2
 1680 359 l 1
 1680 0 l 1
 854 0 l 1
 853 359 l 1
 973 359 l 1
 973 468.333007812 950.666992188 523 906 523 c 2
 631 523 l 2
 601.79151488 523 602.428910039 488.992466041 601 459 c 1
887 773 m 1
 770 1281 l 1
 658 773 l 1
 887 773 l 1
874 2162 m 1
 1148 1786 l 1
 994 1685 l 1
 739 1930 l 1
 484 1685 l 1
 330 1786 l 1
 603 2163 l 1
 874 2162 l 1
EndSplineSet
EndChar

StartChar: Atilde
Encoding: 195 195 133
Width: 1726
GlyphClass: 2
Flags: HMW
LayerCount: 2
Fore
SplineSet
601 459 m 1
 602.430249416 489.020579238 601.783025433 523 631 523 c 2
 906 523 l 2
 950.666992188 523 973 468.333007812 973 359 c 1
 853 359 l 1
 854 0 l 1
 1680 0 l 1
 1680 359 l 1
 1594 359 l 2
 1554.81455351 359 1547.12835735 411.624898962 1538 447 c 2
 1231 1623 l 1
 237 1623 l 1
 237 1270 l 1
 449 1270 l 1
 277 591 l 2
 259 521 246.333007812 478 239 462 c 0
 207.226675925 388.824601695 149.651995107 359 50 359 c 1
 50 0 l 1
 728 0 l 1
 728 359 l 1
 644 359 l 2
 613.847370109 359 601 428.35089175 601 459 c 1
658 773 m 1
 770 1281 l 1
 887 773 l 1
 658 773 l 1
1013 2085 m 0
 1114.93732145 2085 1162.82215744 2009.69564332 1200.5 1944 c 128
 1222.95653857 1904.84444736 1260.59865502 1829.24572526 1285 1794 c 1
 1172 1720 l 1
 1123.33300781 1766.66699219 1089.83300781 1796.33300781 1071.5 1809 c 128
 1053.16699219 1821.66699219 1037.66699219 1828 1025 1828 c 0
 995 1828 959.333007812 1818 918 1798 c 128
 876.666992188 1778 833.833007812 1757.83300781 789.5 1737.5 c 128
 745.166992188 1717.16699219 704.666992188 1707 668 1707 c 0
 565.319761701 1707 516.578383918 1780.24604412 479 1846.5 c 128
 457.088239324 1885.13233789 418.054683697 1962.2549983 394 1997 c 1
 508 2072 l 1
 558.666992188 2023.33300781 593.333007812 1992.5 612 1979.5 c 128
 630.666992188 1966.5 646 1960 658 1960 c 0
 715.647181426 1960 786.849656083 1998.30634136 827 2022.5 c 128
 871.011546455 2049.02032902 946.611957486 2085 1013 2085 c 0
EndSplineSet
EndChar

StartChar: Adieresis
Encoding: 196 196 134
Width: 1724
GlyphClass: 2
Flags: HMW
LayerCount: 2
Fore
SplineSet
601 459 m 1
 602.430249416 489.020579238 601.783025433 523 631 523 c 2
 906 523 l 2
 950.666992188 523 973 468.333007812 973 359 c 1
 853 359 l 1
 854 0 l 1
 1680 0 l 1
 1680 359 l 1
 1594 359 l 2
 1554.81455351 359 1547.12835735 411.624898962 1538 447 c 2
 1231 1623 l 1
 237 1623 l 1
 237 1270 l 1
 449 1270 l 1
 277 591 l 2
 259 521 246.333007812 478 239 462 c 0
 207.226675925 388.824601695 149.651995107 359 50 359 c 1
 50 0 l 1
 728 0 l 1
 728 359 l 1
 644 359 l 2
 613.847370109 359 601 428.35089175 601 459 c 1
658 773 m 1
 770 1281 l 1
 887 773 l 1
 658 773 l 1
531 2134 m 128
 661.591205834 2134 757 2040.1474012 757 1904 c 0
 757 1769.25517007 662.256177078 1674 533 1674 c 0
 401.09762122 1674 305 1769.57218823 305 1907 c 0
 305 2041.57114626 401.389756838 2134 531 2134 c 128
1148 2134 m 128
 1278.59120583 2134 1374 2040.1474012 1374 1904 c 0
 1374 1769.25517007 1279.25617708 1674 1150 1674 c 0
 1018.09762122 1674 922 1769.57218823 922 1907 c 0
 922 2041.57114626 1018.38975684 2134 1148 2134 c 128
EndSplineSet
EndChar

StartChar: Aring
Encoding: 197 197 135
Width: 1724
GlyphClass: 2
Flags: HMW
LayerCount: 2
Fore
SplineSet
601 459 m 1
 601 428.304298444 613.841097937 359 644 359 c 2
 728 359 l 1
 728 0 l 1
 50 0 l 1
 50 359 l 1
 219.132340562 359 237.862309184 438.797869051 277 591 c 2
 449 1270 l 1
 237 1270 l 1
 237 1623 l 1
 1231 1623 l 1
 1538 447 l 2
 1547.1631561 411.490043447 1549.49927422 392.523664017 1568 371.5 c 128
 1575.33300781 363.166992188 1584 359 1594 359 c 2
 1680 359 l 1
 1680 0 l 1
 854 0 l 1
 853 359 l 1
 973 359 l 1
 973 468.333007812 950.666992188 523 906 523 c 2
 631 523 l 2
 601.79151488 523 602.428910039 488.992466041 601 459 c 1
887 773 m 1
 770 1281 l 1
 658 773 l 1
 887 773 l 1
674 1950 m 0
 674 1863.02348292 743.397123761 1802 835 1802 c 0
 928.150451871 1802 1000 1861.80185268 1000 1950 c 0
 1000 2037.75705184 928.365119287 2095 835 2095 c 0
 743.079970675 2095 674 2036.89706443 674 1950 c 0
835 2195 m 0
 993.934887467 2195 1115 2100.1645352 1115 1951 c 0
 1115 1883.66699219 1090.16699219 1825 1040.5 1775 c 128
 990.833007812 1725 922.333007812 1700 835 1700 c 0
 750.333007812 1700 684 1725 636 1775 c 128
 588 1825 564 1883.66699219 564 1951 c 0
 564 2097.48858795 679.552004428 2195 835 2195 c 0
EndSplineSet
EndChar

StartChar: AE
Encoding: 198 198 136
Width: 2151
GlyphClass: 2
Flags: HMW
LayerCount: 2
Fore
SplineSet
1808 969 m 1
 1732 1271 l 1
 1519 1271 l 1
 1519 988 l 1
 1724 988 l 1
 1724 636 l 1
 1519 636 l 1
 1519 350 l 1
 1738 350 l 1
 1758.74297295 466.923693722 1788.8564602 574.476873135 1814 687 c 1
 2087 687 l 1
 2087 0 l 1
 858 0 l 1
 857 376 l 1
 977 376 l 1
 998.333007812 485.333007812 986.333007812 540 941 540 c 2
 666 540 l 2
 634.944179367 540 630.55825125 503.547345424 624 476 c 1
 615.374980709 451.56314725 621.110365168 376 648 376 c 2
 732 376 l 1
 732 0 l 1
 51 -1 l 1
 51 354 l 1
 112.145932792 354 150.584314856 370.091117742 189 390.5 c 128
 207.729657656 400.450398552 233.592462727 432.835905375 246 448 c 128
 255.301587176 459.368101905 280.865120672 508.627713022 287.5 522.5 c 128
 292.644029121 533.255199101 320.049835406 597.109057738 325 608 c 2
 647 1274 l 1
 435 1274 l 1
 506 1623 l 1
 2076 1623 l 1
 2076 970 l 1
 1808 969 l 1
969 771 m 1
 970 1292 l 1
 730 771 l 1
 969 771 l 1
EndSplineSet
EndChar

StartChar: Ccedilla
Encoding: 199 199 137
Width: 1496
GlyphClass: 2
Flags: HMW
LayerCount: 2
Fore
SplineSet
896 1290 m 0
 680.709657227 1290 659 1071.14662688 659 855 c 0
 659 841 659 841 659 811 c 1
 654.631117548 745.466763218 661.18143147 671.634333296 666 609 c 128
 671.516529074 537.293201919 698.347646693 470.653049873 730.5 424 c 128
 763.956718676 375.454316575 827.216901828 343 909 343 c 0
 1023.28354856 343 1109.34317671 418.497549752 1128 518 c 0
 1130.66699219 531.333007812 1133.33300781 562.666992188 1136 612 c 1
 1437 612 l 1
 1437 202 l 1
 1408 178 l 2
 1354.06603682 133.364244442 1266.7092209 87.7014281672 1190 52.5 c 128
 1096.03522157 9.38009395232 943.325942871 -29 806 -29 c 0
 464.862313957 -29 233.020347185 128.885054039 123.5 366.5 c 128
 66.5 490.166992188 38 636 38 804 c 0
 38 1091.80304381 127.320176032 1320.95108049 271 1472 c 128
 369.046807829 1575.07546304 525.732465044 1652 722 1652 c 0
 876.542424729 1652 1000.32547478 1630.04543255 1082 1552 c 1
 1116 1623 l 1
 1427 1623 l 1
 1428 991 l 1
 1130 991 l 1
 1133.06341626 1153.28032675 1058.87050674 1290 896 1290 c 0
798 -271 m 0
 798 -205.53684063 734.753100776 -145.424888884 688 -119 c 1
 688 0 l 1
 868 0 l 1
 868 -119 l 1
 956.666992188 -170.333007812 1001 -225.666992188 1001 -285 c 0
 1001 -420.370851562 785.29856221 -485 632 -485 c 2
 611 -485 l 1
 611 -372 l 1
 675.666992188 -371.333007812 723 -361.666992188 753 -343 c 128
 783 -324.333007812 798 -300.333007812 798 -271 c 0
EndSplineSet
EndChar

StartChar: Egrave
Encoding: 200 200 138
Width: 1402
GlyphClass: 2
Flags: HMW
LayerCount: 2
Fore
SplineSet
1328 969 m 1
 1328 1623 l 1
 60 1623 l 1
 60 1270 l 1
 218 1270 l 1
 218 359 l 1
 60 359 l 1
 60 0 l 1
 1339 0 l 1
 1339 687 l 1
 1066 687 l 1
 1003 420 l 1
 990 359 l 1
 771 359 l 1
 771 636 l 1
 976 636 l 1
 976 988 l 1
 771 988 l 1
 771 1270 l 1
 984 1270 l 1
 1060 968 l 1
 1328 969 l 1
552 2270 m 1
 1026 1833 l 1
 922 1692 l 1
 368 2005 l 1
 552 2270 l 1
EndSplineSet
EndChar

StartChar: Eacute
Encoding: 201 201 139
Width: 1402
GlyphClass: 2
Flags: HMW
LayerCount: 2
Fore
SplineSet
1060 968 m 1
 984 1270 l 1
 771 1270 l 1
 771 988 l 1
 976 988 l 1
 976 636 l 1
 771 636 l 1
 771 359 l 1
 990 359 l 1
 1013.43684993 470.229816737 1040.7948585 577.538474835 1066 687 c 1
 1339 687 l 1
 1339 0 l 1
 60 0 l 1
 60 359 l 1
 218 359 l 1
 218 1270 l 1
 60 1270 l 1
 60 1623 l 1
 1328 1623 l 1
 1328 969 l 1
 1060 968 l 1
1026 2005 m 1
 472 1692 l 1
 368 1833 l 1
 842 2270 l 1
 1026 2005 l 1
EndSplineSet
EndChar

StartChar: Ecircumflex
Encoding: 202 202 140
Width: 1401
GlyphClass: 2
Flags: HMW
LayerCount: 2
Fore
SplineSet
1059 968 m 1
 983 1270 l 1
 770 1270 l 1
 770 988 l 1
 975 988 l 1
 975 636 l 1
 770 636 l 1
 770 359 l 1
 989 359 l 1
 1012.43684993 470.229816737 1039.7948585 577.538474835 1065 687 c 1
 1338 687 l 1
 1338 0 l 1
 59 0 l 1
 59 359 l 1
 217 359 l 1
 217 1270 l 1
 59 1270 l 1
 59 1623 l 1
 1327 1623 l 1
 1327 969 l 1
 1059 968 l 1
831 2162 m 1
 1105 1786 l 1
 951 1685 l 1
 696 1930 l 1
 441 1685 l 1
 287 1786 l 1
 560 2163 l 1
 831 2162 l 1
EndSplineSet
EndChar

StartChar: Edieresis
Encoding: 203 203 141
Width: 1401
GlyphClass: 2
Flags: HMW
LayerCount: 2
Fore
SplineSet
1327 969 m 1
 1327 1623 l 1
 59 1623 l 1
 59 1270 l 1
 217 1270 l 1
 217 359 l 1
 59 359 l 1
 59 0 l 1
 1338 0 l 1
 1338 687 l 1
 1065 687 l 1
 1002 420 l 1
 989 359 l 1
 770 359 l 1
 770 636 l 1
 975 636 l 1
 975 988 l 1
 770 988 l 1
 770 1270 l 1
 983 1270 l 1
 1059 968 l 1
 1327 969 l 1
388 2134 m 128
 518.591205834 2134 614 2040.1474012 614 1904 c 0
 614 1769.25517007 519.256177078 1674 390 1674 c 0
 258.09762122 1674 162 1769.57218823 162 1907 c 0
 162 2041.57114626 258.389756838 2134 388 2134 c 128
1005 2134 m 128
 1135.59120583 2134 1231 2040.1474012 1231 1904 c 0
 1231 1769.25517007 1136.25617708 1674 1007 1674 c 0
 875.09762122 1674 779 1769.57218823 779 1907 c 0
 779 2041.57114626 875.389756838 2134 1005 2134 c 128
EndSplineSet
EndChar

StartChar: Igrave
Encoding: 204 204 142
Width: 974
GlyphClass: 2
Flags: HMW
LayerCount: 2
Fore
SplineSet
926 1623 m 1
 62 1623 l 1
 62 1270 l 1
 205 1270 l 1
 205 359 l 1
 58 359 l 1
 58 0 l 1
 920 0 l 1
 920 359 l 1
 779 359 l 1
 779 1270 l 1
 926 1270 l 1
 926 1623 l 1
349 2270 m 1
 823 1833 l 1
 719 1692 l 1
 165 2005 l 1
 349 2270 l 1
EndSplineSet
EndChar

StartChar: Iacute
Encoding: 205 205 143
Width: 974
GlyphClass: 2
Flags: HMW
LayerCount: 2
Fore
SplineSet
926 1270 m 1
 779 1270 l 1
 779 359 l 1
 920 359 l 1
 920 0 l 1
 58 0 l 1
 58 359 l 1
 205 359 l 1
 205 1270 l 1
 62 1270 l 1
 62 1623 l 1
 926 1623 l 1
 926 1270 l 1
823 2005 m 1
 269 1692 l 1
 165 1833 l 1
 639 2270 l 1
 823 2005 l 1
EndSplineSet
EndChar

StartChar: Icircumflex
Encoding: 206 206 144
Width: 974
GlyphClass: 2
Flags: HMW
LayerCount: 2
Fore
SplineSet
926 1270 m 1
 779 1270 l 1
 779 359 l 1
 920 359 l 1
 920 0 l 1
 58 0 l 1
 58 359 l 1
 205 359 l 1
 205 1270 l 1
 62 1270 l 1
 62 1623 l 1
 926 1623 l 1
 926 1270 l 1
629 2162 m 1
 903 1786 l 1
 749 1685 l 1
 494 1930 l 1
 239 1685 l 1
 85 1786 l 1
 358 2163 l 1
 629 2162 l 1
EndSplineSet
EndChar

StartChar: Idieresis
Encoding: 207 207 145
Width: 1108
GlyphClass: 2
Flags: HMW
LayerCount: 2
Fore
SplineSet
986 1623 m 1
 122 1623 l 1
 122 1270 l 1
 265 1270 l 1
 265 359 l 1
 118 359 l 1
 118 0 l 1
 980 0 l 1
 980 359 l 1
 839 359 l 1
 839 1270 l 1
 986 1270 l 1
 986 1623 l 1
246 2134 m 128
 376.591205834 2134 472 2040.1474012 472 1904 c 0
 472 1769.25517007 377.256177078 1674 248 1674 c 0
 116.09762122 1674 20 1769.57218823 20 1907 c 0
 20 2041.57114626 116.389756838 2134 246 2134 c 128
863 2134 m 128
 993.591205835 2134 1089 2040.1474012 1089 1904 c 0
 1089 1769.25517007 994.256177077 1674 865 1674 c 0
 733.09762122 1674 637 1769.57218823 637 1907 c 0
 637 2041.57114626 733.389756838 2134 863 2134 c 128
EndSplineSet
EndChar

StartChar: Eth
Encoding: 208 208 146
Width: 1746
GlyphClass: 2
Flags: HMW
LayerCount: 2
Fore
SplineSet
885 1623 m 2
 1426.14405496 1623 1707 1351.78661857 1707 816 c 0
 1707 574.063842358 1616.34023166 382.311749546 1494 247.5 c 128
 1361.46841213 101.457974507 1138.23150838 0 863 0 c 2
 61 0 l 1
 61 351 l 1
 224 351 l 1
 224 653 l 1
 94 653 l 1
 94 952 l 1
 224 952 l 1
 224 1271 l 1
 55 1271 l 1
 55 1623 l 1
 885 1623 l 2
1113 817 m 0
 1113 1056.92503017 1058.84559343 1271 818 1271 c 2
 771 1271 l 1
 771 952 l 1
 857 952 l 1
 857 653 l 1
 772 653 l 1
 775 351 l 1
 806 351 l 2
 1046.61229897 351 1113 578.207117758 1113 817 c 0
EndSplineSet
EndChar

StartChar: Ntilde
Encoding: 209 209 147
Width: 1811
GlyphClass: 2
Flags: HMW
LayerCount: 2
Fore
SplineSet
1616 1118 m 2
 1616 1222.13777549 1665.97653713 1270 1774 1270 c 1
 1774 1622 l 1
 1137 1623 l 1
 1137 1270 l 1
 1207.49365807 1271.80841228 1247.56368566 1258.29215909 1277 1221.5 c 128
 1295.43514495 1198.45809407 1295 1156.00449341 1295 1116 c 2
 1295 647 l 1
 799 1623 l 1
 64 1623 l 1
 64 1272 l 1
 221 1272 l 1
 221 550 l 2
 221 485.945296826 217.601619401 427.001472183 183.5 396 c 128
 157.456130235 372.323754759 111.750861525 359 58 359 c 1
 58 0 l 1
 695 0 l 1
 695 359 l 1
 582.908193855 359 537 395.795479841 537 507 c 2
 537 908 l 1
 1010 0 l 1
 1616 0 l 1
 1616 1118 l 2
1042 2085 m 0
 1143.93732145 2085 1191.82215744 2009.69564332 1229.5 1944 c 128
 1251.95653857 1904.84444736 1289.59865502 1829.24572526 1314 1794 c 1
 1201 1720 l 1
 1152.33300781 1766.66699219 1118.83300781 1796.33300781 1100.5 1809 c 128
 1082.16699219 1821.66699219 1066.66699219 1828 1054 1828 c 0
 1024 1828 988.333007812 1818 947 1798 c 128
 905.666992188 1778 862.833007812 1757.83300781 818.5 1737.5 c 128
 774.166992188 1717.16699219 733.666992188 1707 697 1707 c 0
 594.319761701 1707 545.578383918 1780.24604412 508 1846.5 c 128
 486.088239324 1885.13233789 447.054683697 1962.2549983 423 1997 c 1
 537 2072 l 1
 587.666992188 2023.33300781 622.333007812 1992.5 641 1979.5 c 128
 659.666992188 1966.5 675 1960 687 1960 c 0
 744.647181426 1960 815.849656083 1998.30634136 856 2022.5 c 128
 900.011546455 2049.02032902 975.611957486 2085 1042 2085 c 0
EndSplineSet
EndChar

StartChar: Ograve
Encoding: 210 210 148
Width: 1714
GlyphClass: 2
Flags: HMW
LayerCount: 2
Fore
SplineSet
1676 808 m 0
 1676 466.761669236 1499.38069571 211.253566269 1273 80 c 128
 1147.66699219 7.3330078125 1008.66699219 -29 856 -29 c 128
 519.081347179 -29 271.227725567 152.8733775 143.5 381 c 128
 71.8330078125 509 36 651.333007812 36 808 c 0
 36 1163.61394832 200.574750618 1425.66861979 435.5 1553 c 128
 558.5 1619.66699219 698.666992188 1653 856 1653 c 128
 1201.09327131 1653 1438.60922884 1493.30232612 1568.5 1259.5 c 128
 1640.16699219 1130.5 1676 980 1676 808 c 0
856 319 m 0
 998.042877745 319 1037.03367462 441.718885018 1056 565 c 128
 1066.65458385 634.254795052 1068.27339266 715.741263618 1066 793 c 1
 1066 858 l 1
 1064.51770958 911.336411589 1067.99226407 964.62921302 1062.5 1016.5 c 128
 1047.40039147 1159.10577543 1012.62556337 1296 856 1296 c 0
 716.212857224 1296 676.655694889 1187.30469902 655.5 1068.5 c 128
 647.362425563 1022.80156812 647.643893644 974.023487142 645.5 924 c 128
 644.5 900.666992188 644.666992188 878.666992188 646 858 c 1
 646 793 l 1
 649.128321658 699.196152998 645.873977164 601.905784387 663.5 522 c 128
 686.557663308 417.470425184 729.544579098 319 856 319 c 0
709 2270 m 1
 1183 1833 l 1
 1079 1692 l 1
 525 2005 l 1
 709 2270 l 1
EndSplineSet
EndChar

StartChar: Oacute
Encoding: 211 211 149
Width: 1714
GlyphClass: 2
Flags: HMW
LayerCount: 2
Fore
SplineSet
1676 808 m 0
 1676 466.761669236 1499.38069571 211.253566269 1273 80 c 128
 1147.66699219 7.3330078125 1008.66699219 -29 856 -29 c 128
 519.081347179 -29 271.227725567 152.8733775 143.5 381 c 128
 71.8330078125 509 36 651.333007812 36 808 c 0
 36 1163.61394832 200.574750618 1425.66861979 435.5 1553 c 128
 558.5 1619.66699219 698.666992188 1653 856 1653 c 128
 1201.09327131 1653 1438.60922884 1493.30232612 1568.5 1259.5 c 128
 1640.16699219 1130.5 1676 980 1676 808 c 0
856 319 m 0
 998.042877745 319 1037.03367462 441.718885018 1056 565 c 128
 1066.65458385 634.254795052 1068.27339266 715.741263618 1066 793 c 1
 1066 858 l 1
 1064.51770958 911.336411589 1067.99226407 964.62921302 1062.5 1016.5 c 128
 1047.40039147 1159.10577543 1012.62556337 1296 856 1296 c 0
 716.212857224 1296 676.655694889 1187.30469902 655.5 1068.5 c 128
 647.362425563 1022.80156812 647.643893644 974.023487142 645.5 924 c 128
 644.5 900.666992188 644.666992188 878.666992188 646 858 c 1
 646 793 l 1
 649.128321658 699.196152998 645.873977164 601.905784387 663.5 522 c 128
 686.557663308 417.470425184 729.544579098 319 856 319 c 0
1183 2005 m 1
 629 1692 l 1
 525 1833 l 1
 999 2270 l 1
 1183 2005 l 1
EndSplineSet
EndChar

StartChar: Ocircumflex
Encoding: 212 212 150
Width: 1714
GlyphClass: 2
Flags: HMW
LayerCount: 2
Fore
SplineSet
1676 808 m 0
 1676 466.761669236 1499.38069571 211.253566269 1273 80 c 128
 1147.66699219 7.3330078125 1008.66699219 -29 856 -29 c 128
 519.081347179 -29 271.227725567 152.8733775 143.5 381 c 128
 71.8330078125 509 36 651.333007812 36 808 c 0
 36 1163.61394832 200.574750618 1425.66861979 435.5 1553 c 128
 558.5 1619.66699219 698.666992188 1653 856 1653 c 128
 1201.09327131 1653 1438.60922884 1493.30232612 1568.5 1259.5 c 128
 1640.16699219 1130.5 1676 980 1676 808 c 0
856 319 m 0
 998.042877745 319 1037.03367462 441.718885018 1056 565 c 128
 1066.65458385 634.254795052 1068.27339266 715.741263618 1066 793 c 1
 1066 858 l 1
 1064.51770958 911.336411589 1067.99226407 964.62921302 1062.5 1016.5 c 128
 1047.40039147 1159.10577543 1012.62556337 1296 856 1296 c 0
 716.212857224 1296 676.655694889 1187.30469902 655.5 1068.5 c 128
 647.362425563 1022.80156812 647.643893644 974.023487142 645.5 924 c 128
 644.5 900.666992188 644.666992188 878.666992188 646 858 c 1
 646 793 l 1
 649.128321658 699.196152998 645.873977164 601.905784387 663.5 522 c 128
 686.557663308 417.470425184 729.544579098 319 856 319 c 0
989 2162 m 1
 1263 1786 l 1
 1109 1685 l 1
 854 1930 l 1
 599 1685 l 1
 445 1786 l 1
 718 2163 l 1
 989 2162 l 1
EndSplineSet
EndChar

StartChar: Otilde
Encoding: 213 213 151
Width: 1714
GlyphClass: 2
Flags: HMW
LayerCount: 2
Fore
SplineSet
1676 808 m 0
 1676 466.761669236 1499.38069571 211.253566269 1273 80 c 128
 1147.66699219 7.3330078125 1008.66699219 -29 856 -29 c 128
 519.081347179 -29 271.227725567 152.8733775 143.5 381 c 128
 71.8330078125 509 36 651.333007812 36 808 c 0
 36 1163.61394832 200.574750618 1425.66861979 435.5 1553 c 128
 558.5 1619.66699219 698.666992188 1653 856 1653 c 128
 1201.09327131 1653 1438.60922884 1493.30232612 1568.5 1259.5 c 128
 1640.16699219 1130.5 1676 980 1676 808 c 0
856 319 m 0
 998.042877745 319 1037.03367462 441.718885018 1056 565 c 128
 1066.65458385 634.254795052 1068.27339266 715.741263618 1066 793 c 1
 1066 858 l 1
 1064.51770958 911.336411589 1067.99226407 964.62921302 1062.5 1016.5 c 128
 1047.40039147 1159.10577543 1012.62556337 1296 856 1296 c 0
 716.212857224 1296 676.655694889 1187.30469902 655.5 1068.5 c 128
 647.362425563 1022.80156812 647.643893644 974.023487142 645.5 924 c 128
 644.5 900.666992188 644.666992188 878.666992188 646 858 c 1
 646 793 l 1
 649.128321658 699.196152998 645.873977164 601.905784387 663.5 522 c 128
 686.557663308 417.470425184 729.544579098 319 856 319 c 0
1028 2085 m 0
 1129.93732145 2085 1177.82215744 2009.69564332 1215.5 1944 c 128
 1237.95653857 1904.84444736 1275.59865502 1829.24572526 1300 1794 c 1
 1187 1720 l 1
 1138.33300781 1766.66699219 1104.83300781 1796.33300781 1086.5 1809 c 128
 1068.16699219 1821.66699219 1052.66699219 1828 1040 1828 c 0
 1010 1828 974.333007812 1818 933 1798 c 128
 891.666992188 1778 848.833007812 1757.83300781 804.5 1737.5 c 128
 760.166992188 1717.16699219 719.666992188 1707 683 1707 c 0
 580.319761701 1707 531.578383918 1780.24604412 494 1846.5 c 128
 472.088239324 1885.13233789 433.054683697 1962.2549983 409 1997 c 1
 523 2072 l 1
 573.666992188 2023.33300781 608.333007812 1992.5 627 1979.5 c 128
 645.666992188 1966.5 661 1960 673 1960 c 0
 730.647181426 1960 801.849656083 1998.30634136 842 2022.5 c 128
 886.011546455 2049.02032902 961.611957486 2085 1028 2085 c 0
EndSplineSet
EndChar

StartChar: Odieresis
Encoding: 214 214 152
Width: 1714
GlyphClass: 2
Flags: HMW
LayerCount: 2
Fore
SplineSet
1676 808 m 0
 1676 466.761669236 1499.38069571 211.253566269 1273 80 c 128
 1147.66699219 7.3330078125 1008.66699219 -29 856 -29 c 128
 519.081347179 -29 271.227725567 152.8733775 143.5 381 c 128
 71.8330078125 509 36 651.333007812 36 808 c 0
 36 1163.61394832 200.574750618 1425.66861979 435.5 1553 c 128
 558.5 1619.66699219 698.666992188 1653 856 1653 c 128
 1201.09327131 1653 1438.60922884 1493.30232612 1568.5 1259.5 c 128
 1640.16699219 1130.5 1676 980 1676 808 c 0
856 319 m 0
 998.042877745 319 1037.03367462 441.718885018 1056 565 c 128
 1066.65458385 634.254795052 1068.27339266 715.741263618 1066 793 c 1
 1066 858 l 1
 1064.51770958 911.336411589 1067.99226407 964.62921302 1062.5 1016.5 c 128
 1047.40039147 1159.10577543 1012.62556337 1296 856 1296 c 0
 716.212857224 1296 676.655694889 1187.30469902 655.5 1068.5 c 128
 647.362425563 1022.80156812 647.643893644 974.023487142 645.5 924 c 128
 644.5 900.666992188 644.666992188 878.666992188 646 858 c 1
 646 793 l 1
 649.128321658 699.196152998 645.873977164 601.905784387 663.5 522 c 128
 686.557663308 417.470425184 729.544579098 319 856 319 c 0
546 2134 m 128
 676.591205834 2134 772 2040.1474012 772 1904 c 0
 772 1769.25517007 677.256177078 1674 548 1674 c 0
 416.09762122 1674 320 1769.57218823 320 1907 c 0
 320 2041.57114626 416.389756838 2134 546 2134 c 128
1163 2134 m 128
 1293.59120583 2134 1389 2040.1474012 1389 1904 c 0
 1389 1769.25517007 1294.25617708 1674 1165 1674 c 0
 1033.09762122 1674 937 1769.57218823 937 1907 c 0
 937 2041.57114626 1033.38975684 2134 1163 2134 c 128
EndSplineSet
EndChar

StartChar: multiply
Encoding: 215 215 153
Width: 810
GlyphClass: 2
Flags: HMW
LayerCount: 2
Fore
SplineSet
405 467 m 1
 213 274 l 1
 40 447 l 1
 232 640 l 1
 28 844 l 1
 208 1024 l 1
 405 820 l 1
 602 1024 l 1
 782 844 l 1
 578 640 l 1
 770 447 l 1
 597 274 l 1
 405 467 l 1
EndSplineSet
EndChar

StartChar: Oslash
Encoding: 216 216 154
Width: 1715
GlyphClass: 2
Flags: HMW
LayerCount: 2
Fore
SplineSet
1121 1616 m 1
 1449.87284444 1518.89168996 1676 1229.41725491 1676 808 c 0
 1676 466.761669236 1499.38069571 211.253566269 1273 80 c 128
 1147.66699219 7.3330078125 1008.66699219 -29 856 -29 c 0
 820.666992188 -29 786 -27 752 -23 c 1
 714 -194 l 1
 552 -155 l 1
 590 12 l 1
 281.029777249 113.749835863 36 409.591618032 36 808 c 0
 36 1163.61394832 200.574750618 1425.66861979 435.5 1553 c 128
 558.5 1619.66699219 698.666992188 1653 856 1653 c 0
 888 1653 925 1650.66699219 967 1646 c 1
 1004 1804 l 1
 1157 1774 l 1
 1121 1616 l 1
856 1296 m 0
 716.212857224 1296 676.655694889 1187.30469902 655.5 1068.5 c 128
 647.362425563 1022.80156812 647.643893644 974.023487142 645.5 924 c 128
 644.5 900.666992188 644.666992188 878.666992188 646 858 c 1
 646 718 l 130
 646 612.011878418 656.336918193 510.819986436 688 438 c 1
 886 1294 l 1
 872.666992188 1295.33300781 862.666992188 1296 856 1296 c 0
856 319 m 0
 998.042877745 319 1037.03367462 441.718885018 1056 565 c 128
 1066.65458385 634.254795052 1068.27339266 715.741263618 1066 793 c 0
 1066 813 1066 813 1066 823 c 0
 1066 889.705687622 1068.88555956 970.358303267 1061 1029.5 c 128
 1053.65882717 1084.5587962 1043.19896615 1142.76339937 1024 1185 c 1
 830 320 l 1
 835.333007812 319.333007812 844 319 856 319 c 0
EndSplineSet
EndChar

StartChar: Ugrave
Encoding: 217 217 155
Width: 1668
GlyphClass: 2
Flags: HMW
LayerCount: 2
Fore
SplineSet
196 704 m 2
 196 245.033688679 364.959171254 -29 826 -29 c 0
 1076.46791027 -29 1274.55182054 81.4324171554 1385 234.5 c 128
 1446.33300781 319.5 1477 414.666992188 1477 520 c 2
 1477 1270 l 1
 1631 1270 l 1
 1631 1622 l 1
 977 1622 l 1
 977 1270 l 1
 1141 1270 l 1
 1141 536 l 2
 1141 416.981133376 1065.2405876 346 945 346 c 0
 805.941654727 346 756 462.040289456 756 600 c 2
 756 1270 l 1
 904 1270 l 1
 904 1622 l 1
 35 1622 l 1
 35 1270 l 1
 196 1270 l 1
 196 704 l 2
688 2270 m 1
 1162 1833 l 1
 1058 1692 l 1
 504 2005 l 1
 688 2270 l 1
EndSplineSet
EndChar

StartChar: Uacute
Encoding: 218 218 156
Width: 1668
GlyphClass: 2
Flags: HMW
LayerCount: 2
Fore
SplineSet
945 346 m 0
 1065.25019487 346 1141 416.974547707 1141 536 c 2
 1141 1270 l 1
 977 1270 l 1
 977 1622 l 1
 1631 1622 l 1
 1631 1270 l 1
 1477 1270 l 1
 1477 520 l 2
 1477 284.805197051 1316.45847558 117.777392932 1145 39 c 128
 1046.33300781 -6.3330078125 940 -29 826 -29 c 0
 364.961439951 -29 196 245.036144309 196 704 c 2
 196 1270 l 1
 35 1270 l 1
 35 1622 l 1
 904 1622 l 1
 904 1270 l 1
 756 1270 l 1
 756 600 l 2
 756 462.033495235 805.938379001 346 945 346 c 0
1162 2005 m 1
 608 1692 l 1
 504 1833 l 1
 978 2270 l 1
 1162 2005 l 1
EndSplineSet
EndChar

StartChar: Ucircumflex
Encoding: 219 219 157
Width: 1668
GlyphClass: 2
Flags: HMW
LayerCount: 2
Fore
SplineSet
945 346 m 0
 1065.25019487 346 1141 416.974547707 1141 536 c 2
 1141 1270 l 1
 977 1270 l 1
 977 1622 l 1
 1631 1622 l 1
 1631 1270 l 1
 1477 1270 l 1
 1477 520 l 2
 1477 284.805197051 1316.45847558 117.777392932 1145 39 c 128
 1046.33300781 -6.3330078125 940 -29 826 -29 c 0
 364.961439951 -29 196 245.036144309 196 704 c 2
 196 1270 l 1
 35 1270 l 1
 35 1622 l 1
 904 1622 l 1
 904 1270 l 1
 756 1270 l 1
 756 600 l 2
 756 462.033495235 805.938379001 346 945 346 c 0
968 2162 m 1
 1242 1786 l 1
 1088 1685 l 1
 833 1930 l 1
 578 1685 l 1
 424 1786 l 1
 697 2163 l 1
 968 2162 l 1
EndSplineSet
EndChar

StartChar: Udieresis
Encoding: 220 220 158
Width: 1670
GlyphClass: 2
Flags: HMW
LayerCount: 2
Fore
SplineSet
196 704 m 2
 196 245.033688679 364.959171254 -29 826 -29 c 0
 1076.46791027 -29 1274.55182054 81.4324171554 1385 234.5 c 128
 1446.33300781 319.5 1477 414.666992188 1477 520 c 2
 1477 1270 l 1
 1631 1270 l 1
 1631 1622 l 1
 977 1622 l 1
 977 1270 l 1
 1141 1270 l 1
 1141 536 l 2
 1141 416.981133376 1065.2405876 346 945 346 c 0
 805.941654727 346 756 462.040289456 756 600 c 2
 756 1270 l 1
 904 1270 l 1
 904 1622 l 1
 35 1622 l 1
 35 1270 l 1
 196 1270 l 1
 196 704 l 2
524 2134 m 128
 654.591205834 2134 750 2040.1474012 750 1904 c 0
 750 1769.25517007 655.256177078 1674 526 1674 c 0
 394.09762122 1674 298 1769.57218823 298 1907 c 0
 298 2041.57114626 394.389756838 2134 524 2134 c 128
1141 2134 m 128
 1271.59120583 2134 1367 2040.1474012 1367 1904 c 0
 1367 1769.25517007 1272.25617708 1674 1143 1674 c 0
 1011.09762122 1674 915 1769.57218823 915 1907 c 0
 915 2041.57114626 1011.38975684 2134 1141 2134 c 128
EndSplineSet
EndChar

StartChar: Yacute
Encoding: 221 221 159
Width: 1653
GlyphClass: 2
Flags: HMW
LayerCount: 2
Fore
SplineSet
1095 1221 m 0
 1095 1256.12828996 1074.83668603 1270 1040 1270 c 130
 978 1270 l 1
 978 1622 l 1
 1615 1622 l 1
 1615 1270 l 1
 1541 1270 l 2
 1409.95921298 1270 1376.96943127 1183.06768363 1330 1095 c 1
 1126 724 l 1
 1126 359 l 1
 1283 359 l 1
 1283 0 l 1
 414 0 l 1
 414 359 l 1
 569 359 l 1
 569 672 l 1
 148 1270 l 1
 36 1270 l 1
 36 1622 l 1
 888 1622 l 1
 888 1270 l 1
 797 1270 l 1
 814.53935978 1246.08322203 963.961922004 1017.34011142 981 993 c 1
 1057 1108.33300781 1095 1184.33300781 1095 1221 c 0
1157 2005 m 1
 603 1692 l 1
 499 1833 l 1
 973 2270 l 1
 1157 2005 l 1
EndSplineSet
EndChar

StartChar: Thorn
Encoding: 222 222 160
Width: 1612
GlyphClass: 2
Flags: HMW
LayerCount: 2
Fore
SplineSet
1578 1066 m 0
 1578 687.535848884 1298.29395311 559 918 559 c 0
 870.666992188 559 820.666992188 562.333007812 768 569 c 1
 768 363 l 1
 914 363 l 1
 914 0 l 1
 53 0 l 1
 53 363 l 1
 209 363 l 1
 209 1488 l 1
 58 1488 l 1
 58 1843 l 1
 768 1843 l 1
 767 1543 l 1
 1199.77020356 1543 1578 1497.64930289 1578 1066 c 0
1056 1056 m 0
 1056 1157.79642034 973.298581411 1208 872 1208 c 2
 768 1208 l 1
 768 895 l 1
 829 895 l 2
 961.200904981 895 1056 930.969212487 1056 1056 c 0
EndSplineSet
EndChar

StartChar: germandbls
Encoding: 223 223 161
Width: 1692
GlyphClass: 2
Flags: HMW
LayerCount: 2
Fore
SplineSet
222 1092 m 2
 222 1487.96543161 463.728363229 1623 859 1623 c 0
 1091.45067725 1623 1282.76238762 1571.5259162 1395 1457 c 128
 1449.51080158 1401.37783055 1489 1333.81440988 1489 1236 c 0
 1489 1079.20130956 1375.4550896 961.653531082 1263 898 c 1
 1390.33300781 857.333007812 1489.16699219 793.666992188 1559.5 707 c 128
 1629.83300781 620.333007812 1665 527.666992188 1665 429 c 0
 1665 288.933872326 1595.05899577 188.500168268 1510.5 118.5 c 128
 1405.93432715 31.9377764571 1232.97386468 -18 1037 -18 c 1
 1036 349 l 1
 1132.66699219 403.666992188 1181 465 1181 533 c 0
 1181 594.333007812 1150.66699219 645.833007812 1090 687.5 c 128
 1029.33300781 729.166992188 940.666992188 750 824 750 c 1
 821 901 l 1
 879.666992188 901 930.166992188 925 972.5 973 c 128
 1014.83300781 1021 1036 1071.33300781 1036 1124 c 0
 1036 1217.4739203 985.709274842 1275 890 1275 c 0
 801.817563263 1275 749 1224.01222152 749 1131 c 2
 750 349 l 1
 834 349 884.333007812 349.333007812 901 350 c 1
 901 0 l 1
 50 0 l 1
 50 369 l 1
 222 369 l 1
 222 1092 l 2
EndSplineSet
EndChar

StartChar: agrave
Encoding: 224 224 162
Width: 1300
GlyphClass: 2
Flags: HMW
LayerCount: 2
Fore
SplineSet
429 -18 m 0
 553.478446148 -18 677.507734885 44.2598869138 735 119 c 1
 785 0 l 1
 1257 0 l 1
 1257 305 l 1
 1181 305 l 1
 1181 750 l 2
 1181 1034.01315832 894.869684045 1092 613 1092 c 0
 488.98810406 1092 290.66163944 1063.76403781 197 1040 c 1
 130 1022 l 1
 130 708 l 1
 305 708 l 1
 353 771.333007812 424.666992188 803 520 803 c 0
 660.666992188 803 731 747.666992188 731 637 c 2
 731 592 l 1
 657.666992188 617.333007812 572.333007812 630 475 630 c 0
 294.468604464 630 146.181106745 563.384259332 77.5 448 c 128
 52.5 406 40 359.333007812 40 308 c 0
 40 103.868495633 222.232446351 -18 429 -18 c 0
626 224 m 0
 567.036209594 224 530 266.856823623 530 326 c 0
 530 382.656135435 578.163347017 438 635 438 c 0
 671.076222525 438 709.118244644 425.886341198 734 417 c 1
 734 270 l 1
 716.630180056 248.292495259 669.988210326 224 626 224 c 0
506 1708 m 1
 980 1271 l 1
 876 1130 l 1
 322 1443 l 1
 506 1708 l 1
EndSplineSet
EndChar

StartChar: aacute
Encoding: 225 225 163
Width: 1299
GlyphClass: 2
Flags: HMW
LayerCount: 2
Fore
SplineSet
429 -18 m 0
 222.188716389 -18 40 103.847366801 40 308 c 0
 40 482.741499296 175.110170598 571.878299966 315.5 609.5 c 128
 366.5 623.166992188 419.666992188 630 475 630 c 0
 572.333007812 630 657.666992188 617.333007812 731 592 c 1
 731 637 l 2
 731 747.666992188 660.666992188 803 520 803 c 0
 424.666992188 803 353 771.333007812 305 708 c 1
 130 708 l 1
 130 1022 l 1
 197 1040 l 1
 290.47759244 1063.717341 489.254267973 1092 613 1092 c 0
 807.001731119 1092 990.505735956 1060.19331839 1092.5 965 c 128
 1140.97100054 919.761030626 1181 843.134829601 1181 750 c 2
 1181 305 l 1
 1257 305 l 1
 1257 0 l 1
 785 0 l 1
 735 119 l 1
 677.432372045 44.1619150005 553.60940212 -18 429 -18 c 0
635 438 m 0
 578.161600005 438 530 382.653746956 530 326 c 0
 530 266.85332952 567.034917636 224 626 224 c 0
 669.991254491 224 716.629868393 248.292105766 734 270 c 1
 734 417 l 1
 709.082679647 425.899042983 671.108749795 438 635 438 c 0
1102 1443 m 1
 548 1130 l 1
 444 1271 l 1
 918 1708 l 1
 1102 1443 l 1
EndSplineSet
EndChar

StartChar: acircumflex
Encoding: 226 226 164
Width: 1299
GlyphClass: 2
Flags: HMW
LayerCount: 2
Fore
SplineSet
429 -18 m 0
 222.188716389 -18 40 103.847366801 40 308 c 0
 40 482.741499296 175.110170598 571.878299966 315.5 609.5 c 128
 366.5 623.166992188 419.666992188 630 475 630 c 0
 572.333007812 630 657.666992188 617.333007812 731 592 c 1
 731 637 l 2
 731 747.666992188 660.666992188 803 520 803 c 0
 424.666992188 803 353 771.333007812 305 708 c 1
 130 708 l 1
 130 1022 l 1
 197 1040 l 1
 290.47759244 1063.717341 489.254267973 1092 613 1092 c 0
 807.001731119 1092 990.505735956 1060.19331839 1092.5 965 c 128
 1140.97100054 919.761030626 1181 843.134829601 1181 750 c 2
 1181 305 l 1
 1257 305 l 1
 1257 0 l 1
 785 0 l 1
 735 119 l 1
 677.432372045 44.1619150005 553.60940212 -18 429 -18 c 0
635 438 m 0
 578.161600005 438 530 382.653746956 530 326 c 0
 530 266.85332952 567.034917636 224 626 224 c 0
 669.991254491 224 716.629868393 248.292105766 734 270 c 1
 734 417 l 1
 709.082679647 425.899042983 671.108749795 438 635 438 c 0
786 1600 m 1
 1060 1224 l 1
 906 1123 l 1
 651 1368 l 1
 396 1123 l 1
 242 1224 l 1
 515 1601 l 1
 786 1600 l 1
EndSplineSet
EndChar

StartChar: atilde
Encoding: 227 227 165
Width: 1300
GlyphClass: 2
Flags: HMW
LayerCount: 2
Fore
SplineSet
429 -18 m 0
 553.478446148 -18 677.507734885 44.2598869138 735 119 c 1
 785 0 l 1
 1257 0 l 1
 1257 305 l 1
 1181 305 l 1
 1181 750 l 2
 1181 1034.01315832 894.869684045 1092 613 1092 c 0
 488.98810406 1092 290.66163944 1063.76403781 197 1040 c 1
 130 1022 l 1
 130 708 l 1
 305 708 l 1
 353 771.333007812 424.666992188 803 520 803 c 0
 660.666992188 803 731 747.666992188 731 637 c 2
 731 592 l 1
 657.666992188 617.333007812 572.333007812 630 475 630 c 0
 294.468604464 630 146.181106745 563.384259332 77.5 448 c 128
 52.5 406 40 359.333007812 40 308 c 0
 40 103.868495633 222.232446351 -18 429 -18 c 0
626 224 m 0
 567.036209594 224 530 266.856823623 530 326 c 0
 530 382.656135435 578.163347017 438 635 438 c 0
 671.076222525 438 709.118244644 425.886341198 734 417 c 1
 734 270 l 1
 716.630180056 248.292495259 669.988210326 224 626 224 c 0
799 1523 m 0
 900.937321454 1523 948.822157438 1447.69564332 986.5 1382 c 128
 1008.95653857 1342.84444736 1046.59865502 1267.24572526 1071 1232 c 1
 958 1158 l 1
 909.333007812 1204.66699219 875.833007812 1234.33300781 857.5 1247 c 128
 839.166992188 1259.66699219 823.666992188 1266 811 1266 c 0
 781 1266 745.333007812 1256 704 1236 c 128
 662.666992188 1216 619.833007812 1195.83300781 575.5 1175.5 c 128
 531.166992188 1155.16699219 490.666992188 1145 454 1145 c 0
 351.319761701 1145 302.578383918 1218.24604412 265 1284.5 c 128
 243.088239324 1323.13233789 204.054683697 1400.2549983 180 1435 c 1
 294 1510 l 1
 344.666992188 1461.33300781 379.333007812 1430.5 398 1417.5 c 128
 416.666992188 1404.5 432 1398 444 1398 c 0
 501.647181426 1398 572.849656083 1436.30634136 613 1460.5 c 128
 657.011546455 1487.02032902 732.611957486 1523 799 1523 c 0
EndSplineSet
EndChar

StartChar: adieresis
Encoding: 228 228 166
Width: 1298
GlyphClass: 2
Flags: HMW
LayerCount: 2
Fore
SplineSet
429 -18 m 0
 553.478446148 -18 677.507734885 44.2598869138 735 119 c 1
 785 0 l 1
 1257 0 l 1
 1257 305 l 1
 1181 305 l 1
 1181 750 l 2
 1181 1034.01315832 894.869684045 1092 613 1092 c 0
 488.98810406 1092 290.66163944 1063.76403781 197 1040 c 1
 130 1022 l 1
 130 708 l 1
 305 708 l 1
 353 771.333007812 424.666992188 803 520 803 c 0
 660.666992188 803 731 747.666992188 731 637 c 2
 731 592 l 1
 657.666992188 617.333007812 572.333007812 630 475 630 c 0
 294.468604464 630 146.181106745 563.384259332 77.5 448 c 128
 52.5 406 40 359.333007812 40 308 c 0
 40 103.868495633 222.232446351 -18 429 -18 c 0
626 224 m 0
 567.036209594 224 530 266.856823623 530 326 c 0
 530 382.656135435 578.163347017 438 635 438 c 0
 671.076222525 438 709.118244644 425.886341198 734 417 c 1
 734 270 l 1
 716.630180056 248.292495259 669.988210326 224 626 224 c 0
343 1572 m 128
 473.591205834 1572 569 1478.1474012 569 1342 c 0
 569 1207.25517007 474.256177078 1112 345 1112 c 0
 213.09762122 1112 117 1207.57218823 117 1345 c 0
 117 1479.57114626 213.389756838 1572 343 1572 c 128
960 1572 m 128
 1090.59120583 1572 1186 1478.1474012 1186 1342 c 0
 1186 1207.25517007 1091.25617708 1112 962 1112 c 0
 830.09762122 1112 734 1207.57218823 734 1345 c 0
 734 1479.57114626 830.389756838 1572 960 1572 c 128
EndSplineSet
EndChar

StartChar: aring
Encoding: 229 229 167
Width: 1300
GlyphClass: 2
Flags: HMW
LayerCount: 2
Fore
SplineSet
429 -18 m 0
 222.188716389 -18 40 103.847366801 40 308 c 0
 40 482.741499296 175.110170598 571.878299966 315.5 609.5 c 128
 366.5 623.166992188 419.666992188 630 475 630 c 0
 572.333007812 630 657.666992188 617.333007812 731 592 c 1
 731 637 l 2
 731 747.666992188 660.666992188 803 520 803 c 0
 424.666992188 803 353 771.333007812 305 708 c 1
 130 708 l 1
 130 1022 l 1
 197 1040 l 1
 290.47759244 1063.717341 489.254267973 1092 613 1092 c 0
 807.001731119 1092 990.505735956 1060.19331839 1092.5 965 c 128
 1140.97100054 919.761030626 1181 843.134829601 1181 750 c 2
 1181 305 l 1
 1257 305 l 1
 1257 0 l 1
 785 0 l 1
 735 119 l 1
 677.432372045 44.1619150005 553.60940212 -18 429 -18 c 0
635 438 m 0
 578.161600005 438 530 382.653746956 530 326 c 0
 530 266.85332952 567.034917636 224 626 224 c 0
 669.991254491 224 716.629868393 248.292105766 734 270 c 1
 734 417 l 1
 709.082679647 425.899042983 671.108749795 438 635 438 c 0
486 1388 m 0
 486 1301.02348292 555.397123761 1240 647 1240 c 0
 740.150451871 1240 812 1299.80185268 812 1388 c 0
 812 1475.75705184 740.365119287 1533 647 1533 c 0
 555.079970675 1533 486 1474.89706443 486 1388 c 0
647 1633 m 0
 805.934887467 1633 927 1538.1645352 927 1389 c 0
 927 1321.66699219 902.166992188 1263 852.5 1213 c 128
 802.833007812 1163 734.333007812 1138 647 1138 c 0
 562.333007812 1138 496 1163 448 1213 c 128
 400 1263 376 1321.66699219 376 1389 c 0
 376 1535.48858795 491.552004428 1633 647 1633 c 0
EndSplineSet
EndChar

StartChar: ae
Encoding: 230 230 168
Width: 1921
GlyphClass: 2
Flags: HMW
LayerCount: 2
Fore
SplineSet
1860 120 m 1
 1697.98453427 23.0355992286 1553.73563149 -25 1313 -25 c 0
 1187 -25 1076.33300781 18.3330078125 981 105 c 1
 836.436578447 -1.66833535324 689.051208846 -29.6121230471 433 -27 c 0
 281.708895113 -25.5584287857 166.486963475 31.9731395355 99 124 c 128
 62.3330078125 174 44 232.333007812 44 299 c 0
 44 473.741499296 179.110170598 562.878299966 319.5 600.5 c 128
 370.5 614.166992188 423.666992188 621 479 621 c 0
 576.333007812 621 661.666992188 608.333007812 735 583 c 1
 735 628 l 2
 735 738.666992188 664.666992188 794 524 794 c 0
 428.666992188 794 357 762.333007812 309 699 c 1
 134 699 l 1
 134 1013 l 1
 201 1030 l 1
 294.000434581 1054.98500929 492.702607231 1083 617 1083 c 0
 765.538216798 1083 889.675072941 1038.25288217 970 974 c 128
 976.666992188 968.666992188 981.666992188 964.333007812 985 961 c 1
 1060.64693013 1031.24357798 1178.78585669 1085 1329 1085 c 0
 1562.5294695 1085 1736.75938295 973.020773634 1817.5 818 c 128
 1859.16699219 738 1880 648 1880 548 c 0
 1880 525.333007812 1878.33300781 499 1875 469 c 1
 1864.35259645 444.156058387 1867.63226982 441 1838 441 c 2
 1236 441 l 1
 1236 324.587510296 1298.94737091 215 1413 215 c 0
 1510.66902282 215 1550.37392851 262.124342037 1553 358 c 1
 1860 358 l 1
 1860 120 l 1
639 429 m 0
 582.161600005 429 534 373.653746956 534 317 c 0
 534 257.85332952 571.034917636 215 630 215 c 0
 673.991254491 215 720.629868393 239.292105766 738 261 c 1
 738 408 l 1
 713.681094935 416.685323238 673.886044197 429 639 429 c 0
1346 807 m 0
 1271.08295586 807 1238 724.904648145 1238 649 c 2
 1238 620 l 1
 1453 620 l 1
 1455.73908627 715.819894497 1442.01989222 807 1346 807 c 0
EndSplineSet
EndChar

StartChar: ccedilla
Encoding: 231 231 169
Width: 1097
GlyphClass: 2
Flags: HMW
LayerCount: 2
Fore
SplineSet
1033 124 m 1
 945.978209778 36.9782097784 761.876194155 -18 590 -18 c 0
 357.856149017 -18 200.341316931 81.9706508446 111.5 238.5 c 128
 62.5 324.833007812 38 427.333007812 38 546 c 0
 38 705.601514684 98.0823564694 838.209474478 176.5 928 c 128
 256.867108461 1020.02272063 390.722929697 1092 557 1092 c 0
 648.333007812 1092 734.333007812 1059.66699219 815 995 c 1
 856 1072 l 1
 1031 1072 l 1
 1031 628 l 1
 789 628 l 1
 789 706.908450473 740.908813589 778 666 778 c 0
 624 778 587.666992188 756.333007812 557 713 c 128
 526.333007812 669.666992188 511 603 511 513 c 0
 511 399.394794385 551.673995556 295 666 295 c 0
 747.822639177 295 779.601024157 358.0443565 793 425 c 1
 1033 425 l 1
 1033 124 l 1
579 -271 m 0
 579 -205.53684063 515.753100776 -145.424888884 469 -119 c 1
 469 0 l 1
 649 0 l 1
 649 -119 l 1
 737.666992188 -170.333007812 782 -225.666992188 782 -285 c 0
 782 -420.370851562 566.29856221 -485 413 -485 c 2
 392 -485 l 1
 392 -372 l 1
 456.666992188 -371.333007812 504 -361.666992188 534 -343 c 128
 564 -324.333007812 579 -300.333007812 579 -271 c 0
EndSplineSet
EndChar

StartChar: egrave
Encoding: 232 232 170
Width: 1210
GlyphClass: 2
Flags: HMW
LayerCount: 2
Fore
SplineSet
847 365 m 1
 844.373793395 269.119409373 804.673891396 222 707 222 c 0
 592.964310633 222 530 331.625703339 530 448 c 1
 1132 448 l 2
 1161.64961842 448 1158.34804186 451.145431012 1169 476 c 1
 1172.33300781 506 1174 532.333007812 1174 555 c 0
 1174 778.777345475 1073.12812897 931.036419116 922 1018.5 c 128
 837.333007812 1067.5 737.666992188 1092 623 1092 c 0
 375.329506161 1092 193.060345165 978.497063073 105 814.5 c 128
 59 728.833007812 36 631 36 521 c 0
 36 299.457615569 160.865545923 139.732686713 313.5 55 c 128
 401.166992188 6.3330078125 499 -18 607 -18 c 0
 847.532944811 -18 992.11675983 30.1147347125 1154 127 c 1
 1154 365 l 1
 847 365 l 1
532 656 m 2
 532 731.933239385 565.074125565 814 640 814 c 0
 735.862846555 814 749.760778885 723.578755278 747 627 c 1
 532 627 l 1
 532 656 l 2
456 1708 m 1
 930 1271 l 1
 826 1130 l 1
 272 1443 l 1
 456 1708 l 1
EndSplineSet
EndChar

StartChar: eacute
Encoding: 233 233 171
Width: 1210
GlyphClass: 2
Flags: HMW
LayerCount: 2
Fore
SplineSet
1154 127 m 1
 991.98453427 30.0355992289 847.735631488 -18 607 -18 c 0
 376.139824185 -18 198.237386332 100.642121893 109 251 c 128
 60.3330078125 333 36 423 36 521 c 0
 36 761.705064126 145.469148113 927.196401658 308.5 1017.5 c 128
 398.166992188 1067.16699219 503 1092 623 1092 c 0
 856.529469499 1092 1030.75938295 980.020773634 1111.5 825 c 128
 1153.16699219 745 1174 655 1174 555 c 0
 1174 532.333007812 1172.33300781 506 1169 476 c 1
 1158.35259645 451.156058387 1161.63226982 448 1132 448 c 2
 530 448 l 1
 530 331.587510296 592.947370909 222 707 222 c 0
 804.669022828 222 844.373928503 269.124342037 847 365 c 1
 1154 365 l 1
 1154 127 l 1
640 814 m 0
 565.082955863 814 532 731.904648145 532 656 c 2
 532 627 l 1
 747 627 l 1
 749.739086259 722.8198945 736.019892228 814 640 814 c 0
930 1443 m 1
 376 1130 l 1
 272 1271 l 1
 746 1708 l 1
 930 1443 l 1
EndSplineSet
EndChar

StartChar: ecircumflex
Encoding: 234 234 172
Width: 1210
GlyphClass: 2
Flags: HMW
LayerCount: 2
Fore
SplineSet
1154 127 m 1
 991.98453427 30.0355992289 847.735631488 -18 607 -18 c 0
 376.139824185 -18 198.237386332 100.642121893 109 251 c 128
 60.3330078125 333 36 423 36 521 c 0
 36 761.705064126 145.469148113 927.196401658 308.5 1017.5 c 128
 398.166992188 1067.16699219 503 1092 623 1092 c 0
 856.529469499 1092 1030.75938295 980.020773634 1111.5 825 c 128
 1153.16699219 745 1174 655 1174 555 c 0
 1174 532.333007812 1172.33300781 506 1169 476 c 1
 1158.35259645 451.156058387 1161.63226982 448 1132 448 c 2
 530 448 l 1
 530 331.587510296 592.947370909 222 707 222 c 0
 804.669022828 222 844.373928503 269.124342037 847 365 c 1
 1154 365 l 1
 1154 127 l 1
640 814 m 0
 565.082955863 814 532 731.904648145 532 656 c 2
 532 627 l 1
 747 627 l 1
 749.739086259 722.8198945 736.019892228 814 640 814 c 0
736 1600 m 1
 1010 1224 l 1
 856 1123 l 1
 601 1368 l 1
 346 1123 l 1
 192 1224 l 1
 465 1601 l 1
 736 1600 l 1
EndSplineSet
EndChar

StartChar: edieresis
Encoding: 235 235 173
Width: 1211
GlyphClass: 2
Flags: HMW
LayerCount: 2
Fore
SplineSet
847 365 m 1
 844.373793395 269.119409373 804.673891396 222 707 222 c 0
 592.964310633 222 530 331.625703339 530 448 c 1
 1132 448 l 2
 1161.64961842 448 1158.34804186 451.145431012 1169 476 c 1
 1172.33300781 506 1174 532.333007812 1174 555 c 0
 1174 778.777345475 1073.12812897 931.036419116 922 1018.5 c 128
 837.333007812 1067.5 737.666992188 1092 623 1092 c 0
 375.329506161 1092 193.060345165 978.497063073 105 814.5 c 128
 59 728.833007812 36 631 36 521 c 0
 36 299.457615569 160.865545923 139.732686713 313.5 55 c 128
 401.166992188 6.3330078125 499 -18 607 -18 c 0
 847.532944811 -18 992.11675983 30.1147347125 1154 127 c 1
 1154 365 l 1
 847 365 l 1
532 656 m 2
 532 731.933239385 565.074125565 814 640 814 c 0
 735.862846555 814 749.760778885 723.578755278 747 627 c 1
 532 627 l 1
 532 656 l 2
293 1572 m 128
 423.591205834 1572 519 1478.1474012 519 1342 c 0
 519 1207.25517007 424.256177078 1112 295 1112 c 0
 163.09762122 1112 67 1207.57218823 67 1345 c 0
 67 1479.57114626 163.389756838 1572 293 1572 c 128
910 1572 m 128
 1040.59120583 1572 1136 1478.1474012 1136 1342 c 0
 1136 1207.25517007 1041.25617708 1112 912 1112 c 0
 780.09762122 1112 684 1207.57218823 684 1345 c 0
 684 1479.57114626 780.389756838 1572 910 1572 c 128
EndSplineSet
EndChar

StartChar: igrave
Encoding: 236 236 174
Width: 749
GlyphClass: 2
Flags: HMW
LayerCount: 2
Fore
SplineSet
233 1708 m 1
 707 1271 l 1
 603 1130 l 1
 49 1443 l 1
 233 1708 l 1
624 1072 m 1
 54 1072 l 1
 54 747 l 1
 143 747 l 1
 143 299 l 1
 61 299 l 1
 61 0 l 1
 708 0 l 1
 708 299 l 1
 624 299 l 1
 624 1072 l 1
EndSplineSet
EndChar

StartChar: iacute
Encoding: 237 237 175
Width: 749
GlyphClass: 2
Flags: HMW
LayerCount: 2
Fore
SplineSet
706 1443 m 1
 152 1130 l 1
 48 1271 l 1
 522 1708 l 1
 706 1443 l 1
623 299 m 1
 707 299 l 1
 707 0 l 1
 60 0 l 1
 60 299 l 1
 142 299 l 1
 142 747 l 1
 53 747 l 1
 53 1072 l 1
 623 1072 l 1
 623 299 l 1
EndSplineSet
EndChar

StartChar: icircumflex
Encoding: 238 238 176
Width: 857
GlyphClass: 2
Flags: HMW
LayerCount: 2
Fore
SplineSet
564 1600 m 1
 838 1224 l 1
 684 1123 l 1
 429 1368 l 1
 174 1123 l 1
 20 1224 l 1
 293 1601 l 1
 564 1600 l 1
675 299 m 1
 759 299 l 1
 759 0 l 1
 112 0 l 1
 112 299 l 1
 194 299 l 1
 194 747 l 1
 105 747 l 1
 105 1072 l 1
 675 1072 l 1
 675 299 l 1
EndSplineSet
EndChar

StartChar: idieresis
Encoding: 239 239 177
Width: 1131
GlyphClass: 2
Flags: HMW
LayerCount: 2
Fore
SplineSet
257 1572 m 128
 387.591205834 1572 483 1478.1474012 483 1342 c 0
 483 1207.25517007 388.256177078 1112 259 1112 c 0
 127.09762122 1112 31 1207.57218823 31 1345 c 0
 31 1479.57114626 127.389756838 1572 257 1572 c 128
874 1572 m 128
 1004.59120583 1572 1100 1478.1474012 1100 1342 c 0
 1100 1207.25517007 1005.25617708 1112 876 1112 c 0
 744.09762122 1112 648 1207.57218823 648 1345 c 0
 648 1479.57114626 744.389756838 1572 874 1572 c 128
811 1072 m 1
 241 1072 l 1
 241 747 l 1
 330 747 l 1
 330 299 l 1
 248 299 l 1
 248 0 l 1
 895 0 l 1
 895 299 l 1
 811 299 l 1
 811 1072 l 1
EndSplineSet
EndChar

StartChar: eth
Encoding: 240 240 178
Width: 1320
GlyphClass: 2
Flags: HMW
LayerCount: 2
Fore
SplineSet
1109 1365 m 1
 1216.07686459 1207.90611978 1281 975.739568196 1281 691 c 0
 1281 346.783993732 1141.52419977 109.508032949 883.5 19.5 c 128
 811.833007812 -5.5 731.666992188 -18 643 -18 c 0
 351.707453865 -18 160.000688964 131.984959923 75.5 337.5 c 128
 48.5 403.166992188 35 470.666992188 35 540 c 0
 35 726.945013347 128.374880035 851.476970337 245.5 929 c 128
 338.552074799 990.589510064 478.003802419 1029 634 1029 c 2
 667 1029 l 1
 651 1090.33300781 635 1137 619 1169 c 1
 368 1068 l 1
 305 1225 l 1
 485 1297 l 1
 443.666992188 1313 395 1321 339 1321 c 0
 287 1321 245.333007812 1317.33300781 214 1310 c 1
 214 1621 l 1
 317.333007812 1643 415.333007812 1654 508 1654 c 0
 705.333007812 1654 865.666992188 1602.33300781 989 1499 c 1
 1203 1585 l 1
 1266 1428 l 1
 1109 1365 l 1
554 568 m 0
 554 414.666992188 591 338 665 338 c 0
 747.791843591 338 761 477.916581944 761 560 c 0
 761 704.666992188 728.333007812 777 663 777 c 0
 590.333007812 777 554 707.333007812 554 568 c 0
EndSplineSet
EndChar

StartChar: ntilde
Encoding: 241 241 179
Width: 1437
GlyphClass: 2
Flags: HMW
LayerCount: 2
Fore
SplineSet
984 1092 m 0
 816.501961594 1092 694.191687763 1021.3868236 626 916 c 1
 626 1072 l 1
 63 1072 l 1
 63 761 l 1
 139 761 l 1
 139 305 l 1
 56 305 l 1
 56 0 l 1
 714 0 l 1
 714 305 l 1
 626 305 l 1
 626 624 l 2
 626 686.1715096 667.594931738 737 730 737 c 0
 783.511132795 737 820 683.696147444 820 627 c 2
 820 0 l 1
 1394 0 l 1
 1394 305 l 1
 1314 305 l 1
 1314 680 l 2
 1314 954.666992188 1204 1092 984 1092 c 0
854 1523 m 0
 955.937321454 1523 1003.82215744 1447.69564332 1041.5 1382 c 128
 1063.95653857 1342.84444736 1101.59865502 1267.24572526 1126 1232 c 1
 1013 1158 l 1
 964.333007812 1204.66699219 930.833007812 1234.33300781 912.5 1247 c 128
 894.166992188 1259.66699219 878.666992188 1266 866 1266 c 0
 836 1266 800.333007812 1256 759 1236 c 128
 717.666992188 1216 674.833007812 1195.83300781 630.5 1175.5 c 128
 586.166992188 1155.16699219 545.666992188 1145 509 1145 c 0
 406.319761701 1145 357.578383918 1218.24604412 320 1284.5 c 128
 298.088239324 1323.13233789 259.054683697 1400.2549983 235 1435 c 1
 349 1510 l 1
 399.666992188 1461.33300781 434.333007812 1430.5 453 1417.5 c 128
 471.666992188 1404.5 487 1398 499 1398 c 0
 556.647181426 1398 627.849656083 1436.30634136 668 1460.5 c 128
 712.011546455 1487.02032902 787.611957486 1523 854 1523 c 0
EndSplineSet
EndChar

StartChar: ograve
Encoding: 242 242 180
Width: 1271
GlyphClass: 2
Flags: HMW
LayerCount: 2
Fore
SplineSet
639 1091 m 128
 1000.34642804 1091 1241 902.902529914 1241 547 c 0
 1241 301.63717213 1122.27875127 130.696959138 952.5 48 c 128
 862.166992188 4 757.666992188 -18 639 -18 c 128
 388.629198379 -18 209.61193816 80.9288885934 113.5 243 c 128
 62.5 329 37 430.333007812 37 547 c 0
 37 902.870301617 277.703463232 1091 639 1091 c 128
639 779 m 128
 517.307772235 779 502 666.27044681 502 545 c 0
 502 377.666992188 547.666992188 294 639 294 c 128
 730.333007812 294 776 377.666992188 776 545 c 0
 776 666.293005352 760.696395535 779 639 779 c 128
489 1708 m 1
 963 1271 l 1
 859 1130 l 1
 305 1443 l 1
 489 1708 l 1
EndSplineSet
EndChar

StartChar: oacute
Encoding: 243 243 181
Width: 1271
GlyphClass: 2
Flags: HMW
LayerCount: 2
Fore
SplineSet
639 1091 m 128
 1000.34642804 1091 1241 902.902529914 1241 547 c 0
 1241 301.63717213 1122.27875127 130.696959138 952.5 48 c 128
 862.166992188 4 757.666992188 -18 639 -18 c 128
 388.629198379 -18 209.61193816 80.9288885934 113.5 243 c 128
 62.5 329 37 430.333007812 37 547 c 0
 37 902.870301617 277.703463232 1091 639 1091 c 128
639 779 m 128
 517.307772235 779 502 666.27044681 502 545 c 0
 502 377.666992188 547.666992188 294 639 294 c 128
 730.333007812 294 776 377.666992188 776 545 c 0
 776 666.293005352 760.696395535 779 639 779 c 128
963 1443 m 1
 409 1130 l 1
 305 1271 l 1
 779 1708 l 1
 963 1443 l 1
EndSplineSet
EndChar

StartChar: ocircumflex
Encoding: 244 244 182
Width: 1271
GlyphClass: 2
Flags: HMW
LayerCount: 2
Fore
SplineSet
639 1091 m 128
 1000.34642804 1091 1241 902.902529914 1241 547 c 0
 1241 301.63717213 1122.27875127 130.696959138 952.5 48 c 128
 862.166992188 4 757.666992188 -18 639 -18 c 128
 388.629198379 -18 209.61193816 80.9288885934 113.5 243 c 128
 62.5 329 37 430.333007812 37 547 c 0
 37 902.870301617 277.703463232 1091 639 1091 c 128
639 779 m 128
 517.307772235 779 502 666.27044681 502 545 c 0
 502 377.666992188 547.666992188 294 639 294 c 128
 730.333007812 294 776 377.666992188 776 545 c 0
 776 666.293005352 760.696395535 779 639 779 c 128
769 1600 m 1
 1043 1224 l 1
 889 1123 l 1
 634 1368 l 1
 379 1123 l 1
 225 1224 l 1
 498 1601 l 1
 769 1600 l 1
EndSplineSet
EndChar

StartChar: otilde
Encoding: 245 245 183
Width: 1271
GlyphClass: 2
Flags: HMW
LayerCount: 2
Fore
SplineSet
639 1091 m 128
 1000.34642804 1091 1241 902.902529914 1241 547 c 0
 1241 301.63717213 1122.27875127 130.696959138 952.5 48 c 128
 862.166992188 4 757.666992188 -18 639 -18 c 128
 388.629198379 -18 209.61193816 80.9288885934 113.5 243 c 128
 62.5 329 37 430.333007812 37 547 c 0
 37 902.870301617 277.703463232 1091 639 1091 c 128
639 779 m 128
 517.307772235 779 502 666.27044681 502 545 c 0
 502 377.666992188 547.666992188 294 639 294 c 128
 730.333007812 294 776 377.666992188 776 545 c 0
 776 666.293005352 760.696395535 779 639 779 c 128
807 1523 m 0
 908.937321454 1523 956.822157438 1447.69564332 994.5 1382 c 128
 1016.95653857 1342.84444736 1054.59865502 1267.24572526 1079 1232 c 1
 966 1158 l 1
 917.333007812 1204.66699219 883.833007812 1234.33300781 865.5 1247 c 128
 847.166992188 1259.66699219 831.666992188 1266 819 1266 c 0
 789 1266 753.333007812 1256 712 1236 c 128
 670.666992188 1216 627.833007812 1195.83300781 583.5 1175.5 c 128
 539.166992188 1155.16699219 498.666992188 1145 462 1145 c 0
 359.319761701 1145 310.578383918 1218.24604412 273 1284.5 c 128
 251.088239324 1323.13233789 212.054683697 1400.2549983 188 1435 c 1
 302 1510 l 1
 352.666992188 1461.33300781 387.333007812 1430.5 406 1417.5 c 128
 424.666992188 1404.5 440 1398 452 1398 c 0
 509.647181426 1398 580.849656083 1436.30634136 621 1460.5 c 128
 665.011546455 1487.02032902 740.611957486 1523 807 1523 c 0
EndSplineSet
EndChar

StartChar: odieresis
Encoding: 246 246 184
Width: 1270
GlyphClass: 2
Flags: HMW
LayerCount: 2
Fore
SplineSet
638 1091 m 128
 999.346428041 1091 1240 902.902529914 1240 547 c 0
 1240 301.63717213 1121.27875127 130.696959138 951.5 48 c 128
 861.166992188 4 756.666992188 -18 638 -18 c 128
 387.629198379 -18 208.61193816 80.9288885934 112.5 243 c 128
 61.5 329 36 430.333007812 36 547 c 0
 36 902.870301617 276.703463232 1091 638 1091 c 128
638 779 m 128
 516.307772235 779 501 666.27044681 501 545 c 0
 501 377.666992188 546.666992188 294 638 294 c 128
 729.333007812 294 775 377.666992188 775 545 c 0
 775 666.293005352 759.696395535 779 638 779 c 128
325 1572 m 128
 455.591205834 1572 551 1478.1474012 551 1342 c 0
 551 1207.25517007 456.256177078 1112 327 1112 c 0
 195.09762122 1112 99 1207.57218823 99 1345 c 0
 99 1479.57114626 195.389756838 1572 325 1572 c 128
942 1572 m 128
 1072.59120583 1572 1168 1478.1474012 1168 1342 c 0
 1168 1207.25517007 1073.25617708 1112 944 1112 c 0
 812.09762122 1112 716 1207.57218823 716 1345 c 0
 716 1479.57114626 812.389756838 1572 942 1572 c 128
EndSplineSet
EndChar

StartChar: divide
Encoding: 247 247 185
Width: 846
GlyphClass: 2
Flags: HMW
LayerCount: 2
Fore
SplineSet
39 761 m 1
 39 538 l 1
 813 538 l 1
 813 761 l 1
 39 761 l 1
678 188 m 0
 678 59.3214748468 571.556799524 -18 442 -18 c 0
 313.829327583 -18 214 60.2625999607 214 188 c 0
 214 314.630834838 313.043821178 389 442 389 c 0
 573.150548653 389 678 316.016704841 678 188 c 0
678 1092 m 0
 678 963.321474848 571.556799524 886 442 886 c 0
 313.829327583 886 214 964.262599962 214 1092 c 0
 214 1218.63083484 313.043821178 1293 442 1293 c 0
 573.150548653 1293 678 1220.01670484 678 1092 c 0
EndSplineSet
EndChar

StartChar: oslash
Encoding: 248 248 186
Width: 1273
GlyphClass: 2
Flags: HMW
LayerCount: 2
Fore
SplineSet
640 1091 m 128
 1001.34642804 1091 1242 902.902529914 1242 547 c 0
 1242 301.63717213 1123.27875127 130.696959138 953.5 48 c 128
 863.166992188 4 758.666992188 -18 640 -18 c 128
 389.629198379 -18 210.61193816 80.9288885934 114.5 243 c 128
 63.5 329 38 430.333007812 38 547 c 0
 38 902.870301617 278.703463232 1091 640 1091 c 128
640 779 m 128
 518.307772235 779 503 666.27044681 503 545 c 0
 503 377.666992188 548.666992188 294 640 294 c 128
 731.333007812 294 777 377.666992188 777 545 c 0
 777 666.293005352 761.696395535 779 640 779 c 128
241 -54 m 1
 942 1192 l 1
 1029 1142 l 1
 328 -104 l 1
 241 -54 l 1
EndSplineSet
EndChar

StartChar: ugrave
Encoding: 249 249 187
Width: 1414
GlyphClass: 2
Flags: HMW
LayerCount: 2
Fore
SplineSet
443 -18 m 0
 610.602007843 -18 732.740092003 50.5077454576 801 156 c 1
 801 0 l 1
 1371 0 l 1
 1371 305 l 1
 1295 305 l 1
 1295 1072 l 1
 720 1072 l 1
 720 761 l 1
 801 761 l 1
 801 438 l 2
 801 372.731222069 761.357870299 318 697 318 c 0
 641.42751781 318 607 377.824745014 607 438 c 2
 607 1072 l 1
 33 1072 l 1
 33 761 l 1
 113 761 l 1
 113 385 l 2
 113 116.333007812 223 -18 443 -18 c 0
563 1708 m 1
 1037 1271 l 1
 933 1130 l 1
 379 1443 l 1
 563 1708 l 1
EndSplineSet
EndChar

StartChar: uacute
Encoding: 250 250 188
Width: 1414
GlyphClass: 2
Flags: HMW
LayerCount: 2
Fore
SplineSet
697 318 m 0
 761.351176736 318 801 372.743947523 801 438 c 2
 801 761 l 1
 720 761 l 1
 720 1072 l 1
 1295 1072 l 1
 1295 305 l 1
 1371 305 l 1
 1371 0 l 1
 801 0 l 1
 801 156 l 1
 732.704500259 50.4527402073 610.660266812 -18 443 -18 c 0
 223 -18 113 116.333007812 113 385 c 2
 113 761 l 1
 33 761 l 1
 33 1072 l 1
 607 1072 l 1
 607 438 l 2
 607 377.777684196 641.389938709 318 697 318 c 0
1037 1443 m 1
 483 1130 l 1
 379 1271 l 1
 853 1708 l 1
 1037 1443 l 1
EndSplineSet
EndChar

StartChar: ucircumflex
Encoding: 251 251 189
Width: 1413
GlyphClass: 2
Flags: HMW
LayerCount: 2
Fore
SplineSet
697 318 m 0
 761.351176736 318 801 372.743947523 801 438 c 2
 801 761 l 1
 720 761 l 1
 720 1072 l 1
 1295 1072 l 1
 1295 305 l 1
 1371 305 l 1
 1371 0 l 1
 801 0 l 1
 801 156 l 1
 732.704500259 50.4527402073 610.660266812 -18 443 -18 c 0
 223 -18 113 116.333007812 113 385 c 2
 113 761 l 1
 33 761 l 1
 33 1072 l 1
 607 1072 l 1
 607 438 l 2
 607 377.777684196 641.389938709 318 697 318 c 0
843 1600 m 1
 1117 1224 l 1
 963 1123 l 1
 708 1368 l 1
 453 1123 l 1
 299 1224 l 1
 572 1601 l 1
 843 1600 l 1
EndSplineSet
EndChar

StartChar: udieresis
Encoding: 252 252 190
Width: 1411
GlyphClass: 2
Flags: HMW
LayerCount: 2
Fore
SplineSet
442 -18 m 0
 609.602007843 -18 731.740092003 50.5077454576 800 156 c 1
 800 0 l 1
 1370 0 l 1
 1370 305 l 1
 1294 305 l 1
 1294 1072 l 1
 719 1072 l 1
 719 761 l 1
 800 761 l 1
 800 438 l 2
 800 372.731222069 760.357870299 318 696 318 c 0
 640.42751781 318 606 377.824745014 606 438 c 2
 606 1072 l 1
 32 1072 l 1
 32 761 l 1
 112 761 l 1
 112 385 l 2
 112 116.333007812 222 -18 442 -18 c 0
399 1572 m 128
 529.591205834 1572 625 1478.1474012 625 1342 c 0
 625 1207.25517007 530.256177078 1112 401 1112 c 0
 269.09762122 1112 173 1207.57218823 173 1345 c 0
 173 1479.57114626 269.389756838 1572 399 1572 c 128
1016 1572 m 128
 1146.59120583 1572 1242 1478.1474012 1242 1342 c 0
 1242 1207.25517007 1147.25617708 1112 1018 1112 c 0
 886.09762122 1112 790 1207.57218823 790 1345 c 0
 790 1479.57114626 886.389756838 1572 1016 1572 c 128
EndSplineSet
EndChar

StartChar: yacute
Encoding: 253 253 191
Width: 1444
GlyphClass: 2
Flags: HMW
LayerCount: 2
Fore
SplineSet
588 31 m 1
 122 761 l 1
 34 761 l 1
 34 1072 l 1
 714 1072 l 1
 714 761 l 1
 646 761 l 1
 822 454 l 1
 919 662 l 2
 961.604709552 753.867806765 913.474338763 761 824 761 c 1
 824 1072 l 1
 1404 1072 l 1
 1404 761 l 1
 1293.10369782 761 1267.33269225 702.920328351 1228 628 c 2
 850 -82 l 1
 1082 -82 l 1
 1082 -377 l 1
 391 -377 l 1
 588 31 l 1
1047 1443 m 1
 493 1130 l 1
 389 1271 l 1
 863 1708 l 1
 1047 1443 l 1
EndSplineSet
EndChar

StartChar: thorn
Encoding: 254 254 192
Width: 1387
GlyphClass: 2
Flags: HMW
LayerCount: 2
Fore
SplineSet
903 -9 m 0
 770.247474049 -9 650.327112504 47.1099213946 592 119 c 1
 592 -96 l 1
 703 -96 l 1
 703 -397 l 1
 29 -398 l 1
 29 -94 l 1
 113 -94 l 1
 113 1141 l 1
 39 1141 l 1
 39 1447 l 1
 603 1447 l 1
 603 956 l 1
 613 956 l 1
 688.545525309 1035.08669479 763.924681974 1083 905 1083 c 0
 1139.70482858 1083 1269.55195712 926.07361917 1326 744.5 c 128
 1346 680.166992188 1356 612.333007812 1356 541 c 0
 1356 387.936261159 1309.42633206 258.458371434 1243.5 163.5 c 128
 1177.0658482 67.8101797852 1058.82582777 -9 903 -9 c 0
592 417 m 1
 603.052086943 356.213521814 646.44624749 310 721 310 c 0
 847.203873467 310 887 420.089841546 887 545 c 0
 887 674.333007812 832.666992188 739 724 739 c 0
 654.234429205 739 605.423197094 698.673135055 592 645 c 1
 592 417 l 1
EndSplineSet
EndChar

StartChar: ydieresis
Encoding: 255 255 193
Width: 1442
GlyphClass: 2
Flags: HMW
LayerCount: 2
Fore
SplineSet
390 -377 m 1
 1081 -377 l 1
 1081 -82 l 1
 849 -82 l 1
 1227 628 l 2
 1253.58906224 678.646451069 1254.94809376 687.325782662 1289 723 c 128
 1316.32089156 751.622521644 1348.54314704 761 1403 761 c 1
 1403 1072 l 1
 823 1072 l 1
 823 761 l 1
 912.584700493 761 960.615731214 753.891572587 918 662 c 2
 821 454 l 1
 645 761 l 1
 713 761 l 1
 713 1072 l 1
 33 1072 l 1
 33 761 l 1
 121 761 l 1
 587 31 l 1
 390 -377 l 1
409 1572 m 128
 539.591205834 1572 635 1478.1474012 635 1342 c 0
 635 1207.25517007 540.256177078 1112 411 1112 c 0
 279.09762122 1112 183 1207.57218823 183 1345 c 0
 183 1479.57114626 279.389756838 1572 409 1572 c 128
1026 1572 m 128
 1156.59120583 1572 1252 1478.1474012 1252 1342 c 0
 1252 1207.25517007 1157.25617708 1112 1028 1112 c 0
 896.09762122 1112 800 1207.57218823 800 1345 c 0
 800 1479.57114626 896.389756838 1572 1026 1572 c 128
EndSplineSet
EndChar

StartChar: dcroat
Encoding: 273 273 211
Width: 1407
GlyphClass: 2
Flags: HMW
LayerCount: 2
Fore
SplineSet
492 1090 m 0
 635.489258015 1090 711.982543537 1040.18005362 791 960 c 1
 791 1137 l 1
 686 1137 l 1
 686 1275 l 1
 791 1275 l 1
 791 1335 l 1
 701 1335 l 1
 701 1640 l 1
 1286 1640 l 1
 1286 1275 l 1
 1363 1275 l 1
 1363 1137 l 1
 1286 1137 l 1
 1287 305 l 1
 1364 305 l 1
 1364 0 l 1
 795 0 l 1
 795 128 l 1
 734.330866727 47.1084031576 632.474190216 -17.5273458347 500 -19 c 1
 253.433674253 -19 122.383405072 153.515479698 66 346 c 128
 46.6669921875 412 37 480 37 550 c 0
 37 698.748426078 89.7549192862 828.160730168 157 919 c 128
 224.601650076 1010.3209482 341.236996645 1090 492 1090 c 0
660 319 m 0
 727.70095843 319 772.750571861 370.48484375 795 415 c 1
 795 681 l 1
 780 698 l 1
 758.520559735 720.820553351 705.586040025 749 660 749 c 0
 560.067302009 749 508 665.713239023 508 558 c 0
 508 436.060383316 537.757303178 319 660 319 c 0
EndSplineSet
EndChar

StartChar: Hbar
Encoding: 294 294 232
Width: 1810
GlyphClass: 2
Flags: HMW
LayerCount: 2
Fore
SplineSet
60 359 m 1
 207 359 l 1
 207 1072 l 1
 60 1072 l 1
 60 1172 l 1
 207 1172 l 1
 207 1270 l 1
 60 1270 l 1
 60 1623 l 1
 869 1623 l 1
 869 1270 l 1
 774 1270 l 1
 774 1172 l 1
 1043 1172 l 1
 1043 1270 l 1
 955 1270 l 1
 955 1623 l 1
 1753 1623 l 1
 1753 1270 l 1
 1612 1270 l 1
 1612 1172 l 1
 1752 1172 l 1
 1752 1072 l 1
 1612 1072 l 1
 1612 359 l 1
 1759 359 l 1
 1759 0 l 1
 959 0 l 1
 959 359 l 1
 1043 359 l 1
 1043 635 l 1
 774 635 l 1
 774 359 l 1
 870 359 l 1
 869 0 l 1
 60 0 l 1
 60 359 l 1
1043 986 m 1
 1043 1072 l 1
 774 1072 l 1
 774 986 l 1
 1043 986 l 1
EndSplineSet
EndChar

StartChar: hbar
Encoding: 295 295 233
Width: 1436
GlyphClass: 2
Flags: HMW
LayerCount: 2
Fore
SplineSet
949 1090 m 0
 1184.6603294 1090 1307 943.565281512 1307 702 c 2
 1307 305 l 1
 1393 305 l 1
 1393 0 l 1
 817 0 l 1
 817 619 l 2
 816.333007812 702.333007812 788.666992188 744 734 744 c 0
 666.666992188 744 633 704.666992188 633 626 c 2
 633 305 l 1
 713 305 l 1
 713 0 l 1
 60 0 l 1
 61 305 l 1
 140 305 l 1
 140 1133 l 1
 56 1133 l 1
 56 1272 l 1
 140 1272 l 1
 140 1332 l 1
 56 1332 l 1
 56 1640 l 1
 629 1640 l 1
 629 1272 l 1
 804 1272 l 1
 804 1133 l 1
 629 1133 l 1
 629 916 l 1
 707.91965498 1003.68850553 782.974751844 1090 949 1090 c 0
EndSplineSet
EndChar

StartChar: dotlessi
Encoding: 305 305 243
Width: 753
GlyphClass: 2
Flags: HMW
LayerCount: 2
Fore
SplineSet
626 299 m 1
 710 299 l 1
 710 0 l 1
 63 0 l 1
 63 299 l 1
 145 299 l 1
 145 747 l 1
 56 747 l 1
 56 1072 l 1
 626 1072 l 1
 626 299 l 1
EndSplineSet
EndChar

StartChar: ij
Encoding: 307 307 244
Width: 1490
GlyphClass: 2
Flags: HMW
LayerCount: 2
Fore
SplineSet
921 -9 m 2
 921 -57.4724184296 862.667842254 -77.4081981281 814 -72 c 1
 816 -398 l 1
 1118.11940186 -398 1322.46251499 -327.521973834 1391 -103 c 128
 1410.33300781 -39.6669921875 1420 37.6669921875 1420 129 c 2
 1420 1072 l 1
 56 1072 l 1
 56 761 l 1
 145 761 l 1
 145 305 l 1
 63 305 l 1
 63 0 l 1
 710 0 l 1
 710 305 l 1
 626 305 l 1
 626 760 l 1
 921 760 l 1
 921 -9 l 2
632 1385 m 0
 632 1228.78841692 502.571749024 1135 345 1135 c 0
 189.567184446 1135 68 1230.20371499 68 1385 c 0
 68 1539.57739728 188.227090866 1630 345 1630 c 0
 505.570266444 1630 632 1541.92677972 632 1385 c 0
1423 1385 m 0
 1423 1228.78841692 1293.57174902 1135 1136 1135 c 0
 980.567184443 1135 859 1230.20371499 859 1385 c 0
 859 1539.57739728 979.227090868 1630 1136 1630 c 0
 1296.57026645 1630 1423 1541.92677972 1423 1385 c 0
EndSplineSet
EndChar

StartChar: Lslash
Encoding: 321 321 257
Width: 1398
GlyphClass: 2
Flags: HMW
LayerCount: 2
Fore
SplineSet
777 359 m 1
 968 359 l 1
 1055 709 l 1
 1341 709 l 1
 1341 0 l 1
 68 0 l 1
 67 359 l 1
 210 359 l 1
 210 1270 l 1
 63 1270 l 1
 63 1622 l 1
 931 1622 l 1
 931 1270 l 1
 777 1270 l 1
 777 359 l 1
901 1160 m 1
 1000 981 l 1
 132 478 l 1
 32 656 l 1
 901 1160 l 1
EndSplineSet
EndChar

StartChar: lslash
Encoding: 322 322 258
Width: 892
GlyphClass: 2
Flags: HMW
LayerCount: 2
Fore
SplineSet
691 305 m 1
 769 305 l 1
 769 0 l 1
 122 0 l 1
 122 305 l 1
 196 305 l 1
 196 1317 l 1
 112 1317 l 1
 112 1630 l 1
 691 1630 l 1
 691 305 l 1
772 1153 m 1
 871 974 l 1
 120 540 l 1
 20 718 l 1
 772 1153 l 1
EndSplineSet
EndChar

StartChar: Eng
Encoding: 330 330 266
Width: 1811
GlyphClass: 2
Flags: HMW
LayerCount: 2
Fore
SplineSet
1616 -172 m 2
 1616 -479.467864243 1428.6931569 -677 1120 -677 c 0
 986.666992188 -677 890.666992188 -640.666992188 832 -568 c 1
 795 -660 l 1
 525 -660 l 1
 525 -124 l 1
 829 -124 l 1
 832 -156 l 2
 839.148342474 -231.075925084 874.405097708 -275.348915586 952 -282 c 1
 1047.24415424 -282 1063 -188.492588291 1063 -75 c 1
 1010 50 l 1
 537 908 l 1
 537 507 l 2
 537 395.800313743 582.911538635 359 695 359 c 1
 695 0 l 1
 58 0 l 1
 58 359 l 1
 191.602287252 364.64520589 221 415.170133773 221 550 c 2
 221 1272 l 1
 64 1272 l 1
 64 1623 l 1
 799 1623 l 1
 1295 647 l 1
 1295 1136.5 l 130
 1295 1165.88335411 1290.86394742 1205.75107938 1277 1221 c 1
 1253.16917202 1256.74748876 1204.9118832 1274.52801155 1137 1270 c 1
 1137 1623 l 1
 1774 1622 l 1
 1774 1270 l 1
 1665.45227943 1270 1616 1223.01460236 1616 1118 c 2
 1616 -172 l 2
EndSplineSet
EndChar

StartChar: eng
Encoding: 331 331 267
Width: 1377
GlyphClass: 2
Flags: HMW
LayerCount: 2
Fore
SplineSet
628 916 m 1
 696.227914513 1021.44281022 818.443969744 1092 986 1092 c 0
 1206 1092 1316 954.666992188 1316 680 c 2
 1316 93 l 2
 1316 -185.569351572 1223.72488243 -341.752190334 1002.5 -402 c 128
 924.166992188 -423.333007812 827.333007812 -434 712 -434 c 1
 710 -108 l 1
 761.831828776 -113.759795101 815.764866248 -91.1451050329 822 -45 c 1
 822 627 l 2
 822 683.727355325 785.54113643 737 732 737 c 0
 669.594019407 737 628 686.169772067 628 624 c 2
 628 305 l 1
 716 305 l 1
 716 0 l 1
 58 0 l 1
 58 305 l 1
 141 305 l 1
 141 761 l 1
 65 761 l 1
 65 1072 l 1
 628 1072 l 1
 628 916 l 1
EndSplineSet
EndChar

StartChar: OE
Encoding: 338 338 274
Width: 2260
GlyphClass: 2
Flags: HMW
LayerCount: 2
Fore
SplineSet
876 0 m 2
 621.333007812 0 417.833007812 72.1669921875 265.5 216.5 c 128
 113.166992188 360.833007812 36.6669921875 553 36 793 c 0
 36 1136.23974373 201.113123386 1380.2425631 433.5 1506.5 c 128
 560.5 1575.5 706 1610 870 1610 c 2
 2185 1610 l 1
 2185 957 l 1
 1917 956 l 1
 1841 1258 l 1
 1628 1258 l 1
 1628 988 l 1
 1833 988 l 1
 1833 636 l 1
 1628 636 l 1
 1628 350 l 1
 1847 350 l 1
 1867.74297295 466.923693722 1897.8564602 574.476873135 1923 687 c 1
 2196 687 l 1
 2196 0 l 1
 876 0 l 2
653 755 m 0
 653 546.31517604 667.065809387 350 876 350 c 2
 1075 350 l 1
 1075 1257 l 1
 865 1257 l 2
 724.903484355 1257 667.781518251 1155.96068109 658.5 1026 c 128
 653.865310998 961.104653901 649.034068304 887.064147805 653 817 c 1
 653 775 653 775 653 755 c 0
EndSplineSet
EndChar

StartChar: oe
Encoding: 339 339 275
Width: 1915
GlyphClass: 2
Flags: HMW
LayerCount: 2
Fore
SplineSet
1855 118 m 1
 1692.3394478 20.1600227187 1549.85245259 -28.5123112886 1308 -27 c 0
 1192.82103215 -27 1105.50553657 15.2816848792 1042 63.5 c 128
 1015.63526717 83.5181443112 1006.05682707 92.928966168 990 113 c 1
 964.962683208 82.9522854976 907.551970417 43.7384115 864.5 22.5 c 128
 812.086493388 -3.35664746117 721.409140082 -26 640 -26 c 0
 389.629198379 -26 210.61193816 72.9288885934 114.5 235 c 128
 63.5 321 38 422.333007812 38 539 c 0
 38 894.870301617 278.703463232 1083 640 1083 c 0
 794.204308521 1083 918.410893359 1031.0470276 996 959 c 1
 1018.15670732 986.689799357 1068.7308788 1021.55578673 1108.5 1040 c 128
 1158.96839386 1063.40634623 1246.06383004 1083 1324 1083 c 0
 1557.5294695 1083 1731.75938295 971.020773634 1812.5 816 c 128
 1854.16699219 736 1875 646 1875 546 c 0
 1875 523.333007812 1873.33300781 497 1870 467 c 1
 1858.87673688 441.418287059 1861.13649873 439 1833 439 c 2
 1231 439 l 1
 1231 322.587510296 1293.94737091 213 1408 213 c 0
 1505.66902282 213 1545.37392851 260.124342037 1548 356 c 1
 1855 356 l 1
 1855 118 l 1
640 731 m 128
 526.861370644 731 503 648.656227408 503 537 c 0
 503 396.333007812 548.666992188 326 640 326 c 128
 731.333007812 326 777 396.333007812 777 537 c 0
 777 648.671110977 753.143875828 731 640 731 c 128
1341 805 m 0
 1266.08295586 805 1233 722.904648145 1233 647 c 2
 1233 618 l 1
 1448 618 l 1
 1450.73908627 713.819894497 1437.01989222 805 1341 805 c 0
EndSplineSet
EndChar

StartChar: Scaron
Encoding: 352 352 288
Width: 1265
GlyphClass: 2
Flags: HMW
LayerCount: 2
Fore
SplineSet
596 1305 m 0
 704.612240028 1305 791.832477756 1198.72592972 813 1107 c 1
 1120 1107 l 1
 1120 1623 l 1
 835 1623 l 1
 816.333007812 1591 805.666992188 1571 803 1563 c 1
 723.666992188 1623 619.666992188 1653 491 1653 c 0
 186.709466488 1653 35 1440.83111052 35 1133 c 0
 35 734.272009018 293.959698209 624.331819703 604 535 c 0
 654.024028411 521.479510591 682.89237287 512.027536035 713 478.5 c 128
 727.666992188 462.166992188 735 442.666992188 735 420 c 0
 735 364.067539026 682.32035863 334 626 334 c 0
 518.160369679 334 422.743959322 434.485987218 393 518 c 1
 71 518 l 1
 71 0 l 1
 394 0 l 1
 430 92 l 1
 525.635892933 11.0773213641 596.530495714 -29 759 -29 c 0
 912.606516161 -29 1035.58368582 48.0776656372 1108.5 137 c 128
 1180.72223307 225.07589399 1239.97646105 356.163416601 1237 508 c 0
 1233.03992012 713.973473606 1156.72356186 845.973995451 1041 937.5 c 128
 946.29270287 1012.40419728 817.293654333 1055.15583507 689.5 1091.5 c 128
 627.598221194 1109.10469618 565.125385354 1126.31451942 526.5 1161 c 128
 510.166992188 1175.66699219 502 1193 502 1213 c 0
 502 1273.32335329 536.436341015 1305 596 1305 c 0
496 1711 m 1
 223 2088 l 1
 377 2189 l 1
 632 1944 l 1
 887 2189 l 1
 1041 2088 l 1
 767 1712 l 1
 496 1711 l 1
EndSplineSet
EndChar

StartChar: scaron
Encoding: 353 353 289
Width: 1026
GlyphClass: 2
Flags: HMW
LayerCount: 2
Fore
SplineSet
506 846 m 0
 506 893.486757103 550.325957623 920 598 920 c 0
 691.673324868 920 727.227926991 849.134837021 756 782 c 1
 764 761 l 1
 965 761 l 1
 965 1081 l 1
 797 1081 l 1
 770 1033 l 1
 716.886300262 1070.18036783 580.952543583 1092 476 1092 c 0
 234.831268152 1092 64 986.071833573 64 746 c 0
 64 493.518273955 277.234030032 453.410229999 460.5 386 c 128
 505.453344906 369.464931761 559 341.257985279 559 287 c 0
 559 235.088619841 503.099714893 209 451 209 c 0
 357.125118238 209 295.361343769 304.422273328 281 387 c 1
 60 387 l 1
 53 9 l 1
 230 9 l 1
 266 76 l 1
 332.666992188 13.3330078125 435.333007812 -18 574 -18 c 0
 844.536344023 -18 985 124.516499673 985 395 c 0
 985 545.666992188 904.666992188 653.666992188 744 719 c 1
 678.506377492 742.389110976 585.533854235 755.024851303 536 793 c 128
 516 808.333007812 506 826 506 846 c 0
383 1149 m 1
 110 1526 l 1
 264 1627 l 1
 519 1382 l 1
 774 1627 l 1
 928 1526 l 1
 654 1150 l 1
 383 1149 l 1
EndSplineSet
EndChar

StartChar: Tcommaaccent
Encoding: 354 354 290
Width: 1548
GlyphClass: 2
Flags: HMW
LayerCount: 2
Fore
SplineSet
1219 965 m 1
 1157 1270 l 1
 1051 1270 l 1
 1051 360 l 1
 1215 360 l 1
 1215 0 l 1
 324 0 l 1
 324 360 l 1
 488 360 l 1
 488 1270 l 1
 388 1270 l 1
 324 965 l 1
 43 965 l 1
 43 1622 l 1
 1500 1622 l 1
 1500 965 l 1
 1219 965 l 1
378 -674 m 1
 476.316025 -674 544.58972243 -649.321567135 559.5 -568 c 128
 567.788797915 -522.792388477 567 -506.570282695 567 -451 c 1
 378 -451 l 1
 378 -85 l 1
 888 -85 l 1
 904 -187.666992188 912 -280 912 -362 c 0
 912 -731.128169972 745.73414808 -899 378 -899 c 1
 378 -674 l 1
EndSplineSet
EndChar

StartChar: tcommaaccent
Encoding: 355 355 291
Width: 870
GlyphClass: 2
Flags: HMW
LayerCount: 2
Fore
SplineSet
621 438 m 2
 621 376.874059531 651.947262907 334 719 334 c 0
 749 334 785 338.666992188 827 348 c 1
 827 49 l 1
 790 32 l 2
 732.810027142 5.72462745937 608.98363635 -18 519 -18 c 0
 264.333007812 -18 137.666992188 116.333007812 139 385 c 2
 140 761 l 1
 32 761 l 1
 32 1072 l 1
 135 1072 l 1
 135 1301 l 1
 622 1406 l 1
 622 1072 l 1
 774 1072 l 1
 774 761 l 1
 622 761 l 1
 621 438 l 2
228 -674 m 1
 326.316025 -674 394.58972243 -649.321567135 409.5 -568 c 128
 417.788797915 -522.792388477 417 -506.570282695 417 -451 c 1
 228 -451 l 1
 228 -85 l 1
 738 -85 l 1
 754 -187.666992188 762 -280 762 -362 c 0
 762 -731.128169972 595.73414808 -899 228 -899 c 1
 228 -674 l 1
EndSplineSet
EndChar

StartChar: Tbar
Encoding: 358 358 294
Width: 1548
GlyphClass: 2
Flags: HMW
LayerCount: 2
Fore
SplineSet
1219 965 m 1
 1157 1270 l 1
 1051 1270 l 1
 1051 855 l 1
 1145 855 l 1
 1145 640 l 1
 1051 640 l 1
 1051 360 l 1
 1215 360 l 1
 1215 0 l 1
 324 0 l 1
 324 360 l 1
 488 360 l 1
 488 640 l 1
 397 640 l 1
 397 855 l 1
 488 855 l 1
 488 1270 l 1
 388 1270 l 1
 324 965 l 1
 43 965 l 1
 43 1622 l 1
 1500 1622 l 1
 1500 965 l 1
 1219 965 l 1
EndSplineSet
EndChar

StartChar: tbar
Encoding: 359 359 295
Width: 883
GlyphClass: 2
Flags: HMW
LayerCount: 2
Fore
SplineSet
634 438 m 2
 634 376.874059531 664.947262907 334 732 334 c 0
 762 334 798 338.666992188 840 348 c 1
 840 49 l 1
 803 32 l 2
 745.810027142 5.72462745937 621.98363635 -18 532 -18 c 0
 277.333007812 -18 150.666992188 116.333007812 152 385 c 1
 152 466 l 1
 44 466 l 1
 44 677 l 1
 152 677 l 1
 153 761 l 1
 45 761 l 1
 45 1072 l 1
 148 1072 l 1
 148 1301 l 1
 635 1406 l 1
 635 1072 l 1
 787 1072 l 1
 787 761 l 1
 635 761 l 1
 634 677 l 1
 783 677 l 1
 783 466 l 1
 634 466 l 1
 634 438 l 2
EndSplineSet
EndChar

StartChar: Ydieresis
Encoding: 376 376 312
Width: 1653
GlyphClass: 2
Flags: HMW
LayerCount: 2
Fore
SplineSet
1040 1270 m 130
 1074.84000415 1270 1095 1256.12848278 1095 1221 c 0
 1095 1184.33300781 1057 1108.33300781 981 993 c 1
 963.914345323 1017.40807811 814.470559304 1246.17703878 797 1270 c 1
 888 1270 l 1
 888 1622 l 1
 36 1622 l 1
 36 1270 l 1
 148 1270 l 1
 569 672 l 1
 569 359 l 1
 414 359 l 1
 414 0 l 1
 1283 0 l 1
 1283 359 l 1
 1126 359 l 1
 1126 724 l 1
 1330 1095 l 2
 1360.28097579 1151.77682961 1363.82924906 1161.21839293 1397 1206 c 128
 1428.61546637 1248.68192165 1469.31638118 1270 1541 1270 c 2
 1615 1270 l 1
 1615 1622 l 1
 978 1622 l 1
 978 1270 l 1
 1040 1270 l 130
519 2134 m 128
 649.591205834 2134 745 2040.1474012 745 1904 c 0
 745 1769.25517007 650.256177078 1674 521 1674 c 0
 389.09762122 1674 293 1769.57218823 293 1907 c 0
 293 2041.57114626 389.389756838 2134 519 2134 c 128
1136 2134 m 128
 1266.59120583 2134 1362 2040.1474012 1362 1904 c 0
 1362 1769.25517007 1267.25617708 1674 1138 1674 c 0
 1006.09762122 1674 910 1769.57218823 910 1907 c 0
 910 2041.57114626 1006.38975684 2134 1136 2134 c 128
EndSplineSet
EndChar

StartChar: Zcaron
Encoding: 381 381 317
Width: 1533
GlyphClass: 2
Flags: HMW
LayerCount: 2
Fore
SplineSet
1456 1622 m 1
 62 1622 l 1
 62 938 l 1
 350 938 l 1
 430 1270 l 1
 745 1270 l 1
 66 350 l 1
 67 0 l 1
 1476 0 l 1
 1477 705 l 1
 1195 705 l 1
 1088 359 l 1
 779 359 l 1
 1456 1293 l 1
 1456 1622 l 1
630 1700 m 1
 357 2077 l 1
 511 2178 l 1
 766 1933 l 1
 1021 2178 l 1
 1175 2077 l 1
 901 1701 l 1
 630 1700 l 1
EndSplineSet
EndChar

StartChar: zcaron
Encoding: 382 382 318
Width: 1185
GlyphClass: 2
Flags: HMW
LayerCount: 2
Fore
SplineSet
51 0 m 1
 1136 0 l 1
 1136 451 l 1
 953 451 l 1
 934.346565615 381.984751853 912.01085069 322.668475115 839 310.5 c 128
 795.964627908 303.327437985 784.958473045 305 731 305 c 2
 630 305 l 1
 630 316 l 1
 1099 795 l 1
 1099 1072 l 1
 77 1072 l 1
 77 636 l 1
 274 636 l 1
 274 690.509552219 292.417700513 732.587634169 333.5 745.5 c 128
 359.530409918 753.681483992 366.195894052 757.647201946 400 759 c 128
 437.694224918 760.508475751 444.193946226 761 485 761 c 2
 545 761 l 1
 545 750 l 1
 51 283 l 1
 51 0 l 1
457 1149 m 1
 184 1526 l 1
 338 1627 l 1
 593 1382 l 1
 848 1627 l 1
 1002 1526 l 1
 728 1150 l 1
 457 1149 l 1
EndSplineSet
EndChar

StartChar: florin
Encoding: 402 402 319
Width: 966
GlyphClass: 2
Flags: HMW
LayerCount: 2
Fore
SplineSet
617 1610 m 0
 719.152879756 1610 859.725735507 1586.31077373 925 1563 c 1
 925 1252 l 1
 886.333007812 1260.66699219 854.333007812 1265 829 1265 c 0
 727.56363866 1265 712.42455953 1190.35792847 719 1072 c 1
 898 1072 l 1
 898 761 l 1
 726 761 l 1
 726 451.666992188 726.666992188 252.666992188 728 164 c 1
 728 -96.5213884616 602.605330364 -239 342 -239 c 0
 239.847120249 -239 99.2742644864 -215.310773743 34 -192 c 1
 34 119 l 1
 73.3330078125 110.333007812 105.333007812 106 130 106 c 0
 230.422931999 106 240 180.750158176 240 299 c 2
 240 761 l 1
 156 761 l 1
 156 1072 l 1
 239 1072 l 1
 239 1074 238.333007812 1119 237 1207 c 1
 237 1475.66699219 363.666992188 1610 617 1610 c 0
EndSplineSet
EndChar

StartChar: uni0200
Encoding: 512 512 328
Width: 1724
GlyphClass: 2
Flags: HMW
LayerCount: 2
Fore
SplineSet
601 459 m 1
 602.430249416 489.020579238 601.783025433 523 631 523 c 2
 906 523 l 2
 950.666992188 523 973 468.333007812 973 359 c 1
 853 359 l 1
 854 0 l 1
 1680 0 l 1
 1680 359 l 1
 1594 359 l 2
 1554.81455351 359 1547.12835735 411.624898962 1538 447 c 2
 1231 1623 l 1
 237 1623 l 1
 237 1270 l 1
 449 1270 l 1
 277 591 l 2
 259 521 246.333007812 478 239 462 c 0
 207.226675925 388.824601695 149.651995107 359 50 359 c 1
 50 0 l 1
 728 0 l 1
 728 359 l 1
 644 359 l 2
 613.847370109 359 601 428.35089175 601 459 c 1
658 773 m 1
 770 1281 l 1
 887 773 l 1
 658 773 l 1
920 2385 m 1
 1073 1759 l 1
 908 1699 l 1
 620 2266 l 1
 920 2385 l 1
320 2366 m 1
 627 1799 l 1
 483 1700 l 1
 60 2175 l 1
 320 2366 l 1
EndSplineSet
EndChar

StartChar: uni0201
Encoding: 513 513 329
Width: 1331
GlyphClass: 2
Flags: HMW
LayerCount: 2
Fore
SplineSet
461 -18 m 0
 585.478446148 -18 709.507734885 44.2598869138 767 119 c 1
 817 0 l 1
 1289 0 l 1
 1289 305 l 1
 1213 305 l 1
 1213 750 l 2
 1213 1034.01315832 926.869684045 1092 645 1092 c 0
 520.98810406 1092 322.66163944 1063.76403781 229 1040 c 1
 162 1022 l 1
 162 708 l 1
 337 708 l 1
 385 771.333007812 456.666992188 803 552 803 c 0
 692.666992188 803 763 747.666992188 763 637 c 2
 763 592 l 1
 689.666992188 617.333007812 604.333007812 630 507 630 c 0
 326.468604464 630 178.181106745 563.384259332 109.5 448 c 128
 84.5 406 72 359.333007812 72 308 c 0
 72 103.868495633 254.232446351 -18 461 -18 c 0
658 224 m 0
 599.036209594 224 562 266.856823623 562 326 c 0
 562 382.656135435 610.163347017 438 667 438 c 0
 703.076222525 438 741.118244644 425.886341198 766 417 c 1
 766 270 l 1
 748.630180056 248.292495259 701.988210326 224 658 224 c 0
880 1843 m 1
 1033 1217 l 1
 868 1157 l 1
 580 1724 l 1
 880 1843 l 1
280 1824 m 1
 587 1257 l 1
 443 1158 l 1
 20 1633 l 1
 280 1824 l 1
EndSplineSet
EndChar

StartChar: uni0202
Encoding: 514 514 330
Width: 1724
GlyphClass: 2
Flags: HMW
LayerCount: 2
Fore
SplineSet
601 459 m 1
 602.430249416 489.020579238 601.783025433 523 631 523 c 2
 906 523 l 2
 950.666992188 523 973 468.333007812 973 359 c 1
 853 359 l 1
 854 0 l 1
 1680 0 l 1
 1680 359 l 1
 1594 359 l 2
 1554.81455351 359 1547.12835735 411.624898962 1538 447 c 2
 1231 1623 l 1
 237 1623 l 1
 237 1270 l 1
 449 1270 l 1
 277 591 l 2
 259 521 246.333007812 478 239 462 c 0
 207.226675925 388.824601695 149.651995107 359 50 359 c 1
 50 0 l 1
 728 0 l 1
 728 359 l 1
 644 359 l 2
 613.847370109 359 601 428.35089175 601 459 c 1
658 773 m 1
 770 1281 l 1
 887 773 l 1
 658 773 l 1
920 2385 m 1
 1073 1759 l 1
 908 1699 l 1
 620 2266 l 1
 920 2385 l 1
320 2366 m 1
 627 1799 l 1
 483 1700 l 1
 60 2175 l 1
 320 2366 l 1
EndSplineSet
EndChar

StartChar: uni0203
Encoding: 515 515 331
Width: 1331
GlyphClass: 2
Flags: HMW
LayerCount: 2
Fore
SplineSet
461 -18 m 0
 585.478446148 -18 709.507734885 44.2598869138 767 119 c 1
 817 0 l 1
 1289 0 l 1
 1289 305 l 1
 1213 305 l 1
 1213 750 l 2
 1213 1034.01315832 926.869684045 1092 645 1092 c 0
 520.98810406 1092 322.66163944 1063.76403781 229 1040 c 1
 162 1022 l 1
 162 708 l 1
 337 708 l 1
 385 771.333007812 456.666992188 803 552 803 c 0
 692.666992188 803 763 747.666992188 763 637 c 2
 763 592 l 1
 689.666992188 617.333007812 604.333007812 630 507 630 c 0
 326.468604464 630 178.181106745 563.384259332 109.5 448 c 128
 84.5 406 72 359.333007812 72 308 c 0
 72 103.868495633 254.232446351 -18 461 -18 c 0
658 224 m 0
 599.036209594 224 562 266.856823623 562 326 c 0
 562 382.656135435 610.163347017 438 667 438 c 0
 703.076222525 438 741.118244644 425.886341198 766 417 c 1
 766 270 l 1
 748.630180056 248.292495259 701.988210326 224 658 224 c 0
880 1843 m 1
 1033 1217 l 1
 868 1157 l 1
 580 1724 l 1
 880 1843 l 1
280 1824 m 1
 587 1257 l 1
 443 1158 l 1
 20 1633 l 1
 280 1824 l 1
EndSplineSet
EndChar

StartChar: uni0204
Encoding: 516 516 332
Width: 1401
GlyphClass: 2
Flags: HMW
LayerCount: 2
Fore
SplineSet
1327 969 m 1
 1327 1623 l 1
 59 1623 l 1
 59 1270 l 1
 217 1270 l 1
 217 359 l 1
 59 359 l 1
 59 0 l 1
 1338 0 l 1
 1338 687 l 1
 1065 687 l 1
 1002 420 l 1
 989 359 l 1
 770 359 l 1
 770 636 l 1
 975 636 l 1
 975 988 l 1
 770 988 l 1
 770 1270 l 1
 983 1270 l 1
 1059 968 l 1
 1327 969 l 1
948 2385 m 1
 1101 1759 l 1
 936 1699 l 1
 648 2266 l 1
 948 2385 l 1
348 2366 m 1
 655 1799 l 1
 511 1700 l 1
 88 2175 l 1
 348 2366 l 1
EndSplineSet
EndChar

StartChar: uni0205
Encoding: 517 517 333
Width: 1251
GlyphClass: 2
Flags: HMW
LayerCount: 2
Fore
SplineSet
889 365 m 1
 886.373793395 269.119409373 846.673891396 222 749 222 c 0
 634.964310633 222 572 331.625703339 572 448 c 1
 1174 448 l 2
 1203.64961842 448 1200.34804186 451.145431012 1211 476 c 1
 1214.33300781 506 1216 532.333007812 1216 555 c 0
 1216 778.777345475 1115.12812897 931.036419116 964 1018.5 c 128
 879.333007812 1067.5 779.666992188 1092 665 1092 c 0
 417.329506161 1092 235.060345165 978.497063073 147 814.5 c 128
 101 728.833007812 78 631 78 521 c 0
 78 299.457615569 202.865545923 139.732686713 355.5 55 c 128
 443.166992188 6.3330078125 541 -18 649 -18 c 0
 889.532944811 -18 1034.11675983 30.1147347125 1196 127 c 1
 1196 365 l 1
 889 365 l 1
574 656 m 2
 574 731.933239385 607.074125565 814 682 814 c 0
 777.862846555 814 791.760778885 723.578755278 789 627 c 1
 574 627 l 1
 574 656 l 2
880 1843 m 1
 1033 1217 l 1
 868 1157 l 1
 580 1724 l 1
 880 1843 l 1
280 1824 m 1
 587 1257 l 1
 443 1158 l 1
 20 1633 l 1
 280 1824 l 1
EndSplineSet
EndChar

StartChar: uni0206
Encoding: 518 518 334
Width: 1402
GlyphClass: 2
Flags: HMW
LayerCount: 2
Fore
SplineSet
1060 968 m 1
 984 1270 l 1
 771 1270 l 1
 771 988 l 1
 976 988 l 1
 976 636 l 1
 771 636 l 1
 771 359 l 1
 990 359 l 1
 1013.43684993 470.229816737 1040.7948585 577.538474835 1066 687 c 1
 1339 687 l 1
 1339 0 l 1
 60 0 l 1
 60 359 l 1
 218 359 l 1
 218 1270 l 1
 60 1270 l 1
 60 1623 l 1
 1328 1623 l 1
 1328 969 l 1
 1060 968 l 1
729 1860 m 128
 639.781672117 1860 577 1792.64576489 577 1699 c 1
 325 1699 l 1
 325 1878.80790695 441.754944381 1978.30855769 580.5 2021 c 128
 628.166992188 2035.66699219 677.666992188 2043 729 2043 c 128
 903.242645405 2043 1037.69197498 1967.09180776 1098.5 1849 c 128
 1121.5 1804.33300781 1133 1754.33300781 1133 1699 c 1
 881 1699 l 1
 881 1792.68028514 818.246215384 1860 729 1860 c 128
EndSplineSet
EndChar

StartChar: uni0207
Encoding: 519 519 335
Width: 1211
GlyphClass: 2
Flags: HMW
LayerCount: 2
Fore
SplineSet
1154 127 m 1
 991.98453427 30.0355992289 847.735631488 -18 607 -18 c 0
 376.139824185 -18 198.237386332 100.642121893 109 251 c 128
 60.3330078125 333 36 423 36 521 c 0
 36 761.705064126 145.469148113 927.196401658 308.5 1017.5 c 128
 398.166992188 1067.16699219 503 1092 623 1092 c 0
 856.529469499 1092 1030.75938295 980.020773634 1111.5 825 c 128
 1153.16699219 745 1174 655 1174 555 c 0
 1174 532.333007812 1172.33300781 506 1169 476 c 1
 1158.35259645 451.156058387 1161.63226982 448 1132 448 c 2
 530 448 l 1
 530 331.587510296 592.947370909 222 707 222 c 0
 804.669022828 222 844.373928503 269.124342037 847 365 c 1
 1154 365 l 1
 1154 127 l 1
640 814 m 0
 565.082955863 814 532 731.904648145 532 656 c 2
 532 627 l 1
 747 627 l 1
 749.739086259 722.8198945 736.019892228 814 640 814 c 0
626 1313 m 128
 536.781672117 1313 474 1245.64576489 474 1152 c 1
 222 1152 l 1
 222 1331.80790695 338.754944381 1431.30855769 477.5 1474 c 128
 525.166992188 1488.66699219 574.666992188 1496 626 1496 c 128
 800.242645405 1496 934.691974984 1420.09180776 995.5 1302 c 128
 1018.5 1257.33300781 1030 1207.33300781 1030 1152 c 1
 778 1152 l 1
 778 1245.68028514 715.246215384 1313 626 1313 c 128
EndSplineSet
EndChar

StartChar: uni0208
Encoding: 520 520 336
Width: 1055
GlyphClass: 2
Flags: HMW
LayerCount: 2
Fore
SplineSet
996 1623 m 1
 132 1623 l 1
 132 1270 l 1
 275 1270 l 1
 275 359 l 1
 128 359 l 1
 128 0 l 1
 990 0 l 1
 990 359 l 1
 849 359 l 1
 849 1270 l 1
 996 1270 l 1
 996 1623 l 1
880 2385 m 1
 1033 1759 l 1
 868 1699 l 1
 580 2266 l 1
 880 2385 l 1
280 2366 m 1
 587 1799 l 1
 443 1700 l 1
 20 2175 l 1
 280 2366 l 1
EndSplineSet
EndChar

StartChar: uni0209
Encoding: 521 521 337
Width: 1054
GlyphClass: 2
Flags: HMW
LayerCount: 2
Fore
SplineSet
838 1072 m 1
 268 1072 l 1
 268 747 l 1
 357 747 l 1
 357 299 l 1
 275 299 l 1
 275 0 l 1
 922 0 l 1
 922 299 l 1
 838 299 l 1
 838 1072 l 1
880 1843 m 1
 1033 1217 l 1
 868 1157 l 1
 580 1724 l 1
 880 1843 l 1
280 1824 m 1
 587 1257 l 1
 443 1158 l 1
 20 1633 l 1
 280 1824 l 1
EndSplineSet
EndChar

StartChar: uni020A
Encoding: 522 522 338
Width: 974
GlyphClass: 2
Flags: HMW
LayerCount: 2
Fore
SplineSet
926 1270 m 1
 779 1270 l 1
 779 359 l 1
 920 359 l 1
 920 0 l 1
 58 0 l 1
 58 359 l 1
 205 359 l 1
 205 1270 l 1
 62 1270 l 1
 62 1623 l 1
 926 1623 l 1
 926 1270 l 1
498 1860 m 128
 408.781672117 1860 346 1792.64576489 346 1699 c 1
 94 1699 l 1
 94 1878.80790695 210.754944381 1978.30855769 349.5 2021 c 128
 397.166992188 2035.66699219 446.666992188 2043 498 2043 c 128
 672.242645405 2043 806.691974984 1967.09180776 867.5 1849 c 128
 890.5 1804.33300781 902 1754.33300781 902 1699 c 1
 650 1699 l 1
 650 1792.68028514 587.246215384 1860 498 1860 c 128
EndSplineSet
EndChar

StartChar: uni020B
Encoding: 523 523 339
Width: 851
GlyphClass: 2
Flags: HMW
LayerCount: 2
Fore
SplineSet
670 299 m 1
 754 299 l 1
 754 0 l 1
 107 0 l 1
 107 299 l 1
 189 299 l 1
 189 747 l 1
 100 747 l 1
 100 1072 l 1
 670 1072 l 1
 670 299 l 1
426 1313 m 128
 336.781672117 1313 274 1245.64576489 274 1152 c 1
 22 1152 l 1
 22 1331.80790695 138.754944381 1431.30855769 277.5 1474 c 128
 325.166992188 1488.66699219 374.666992188 1496 426 1496 c 128
 600.242645405 1496 734.691974984 1420.09180776 795.5 1302 c 128
 818.5 1257.33300781 830 1207.33300781 830 1152 c 1
 578 1152 l 1
 578 1245.68028514 515.246215384 1313 426 1313 c 128
EndSplineSet
EndChar

StartChar: uni020C
Encoding: 524 524 340
Width: 1714
GlyphClass: 2
Flags: HMW
LayerCount: 2
Fore
SplineSet
1676 808 m 0
 1676 466.761669236 1499.38069571 211.253566269 1273 80 c 128
 1147.66699219 7.3330078125 1008.66699219 -29 856 -29 c 128
 519.081347179 -29 271.227725567 152.8733775 143.5 381 c 128
 71.8330078125 509 36 651.333007812 36 808 c 0
 36 1163.61394832 200.574750618 1425.66861979 435.5 1553 c 128
 558.5 1619.66699219 698.666992188 1653 856 1653 c 128
 1201.09327131 1653 1438.60922884 1493.30232612 1568.5 1259.5 c 128
 1640.16699219 1130.5 1676 980 1676 808 c 0
856 319 m 0
 998.042877745 319 1037.03367462 441.718885018 1056 565 c 128
 1066.65458385 634.254795052 1068.27339266 715.741263618 1066 793 c 1
 1066 858 l 1
 1064.51770958 911.336411589 1067.99226407 964.62921302 1062.5 1016.5 c 128
 1047.40039147 1159.10577543 1012.62556337 1296 856 1296 c 0
 716.212857224 1296 676.655694889 1187.30469902 655.5 1068.5 c 128
 647.362425563 1022.80156812 647.643893644 974.023487142 645.5 924 c 128
 644.5 900.666992188 644.666992188 878.666992188 646 858 c 1
 646 793 l 1
 649.128321658 699.196152998 645.873977164 601.905784387 663.5 522 c 128
 686.557663308 417.470425184 729.544579098 319 856 319 c 0
1099 2385 m 1
 1252 1759 l 1
 1087 1699 l 1
 799 2266 l 1
 1099 2385 l 1
499 2366 m 1
 806 1799 l 1
 662 1700 l 1
 239 2175 l 1
 499 2366 l 1
EndSplineSet
EndChar

StartChar: uni020D
Encoding: 525 525 341
Width: 1331
GlyphClass: 2
Flags: HMW
LayerCount: 2
Fore
SplineSet
699 1091 m 128
 1060.34642805 1091 1301 902.902529914 1301 547 c 0
 1301 301.63717213 1182.27875127 130.696959138 1012.5 48 c 128
 922.166992188 4 817.666992188 -18 699 -18 c 128
 448.629198379 -18 269.61193816 80.9288885934 173.5 243 c 128
 122.5 329 97 430.333007812 97 547 c 0
 97 902.870301617 337.703463232 1091 699 1091 c 128
699 779 m 128
 577.307772235 779 562 666.27044681 562 545 c 0
 562 377.666992188 607.666992188 294 699 294 c 128
 790.333007812 294 836 377.666992188 836 545 c 0
 836 666.293005352 820.696395535 779 699 779 c 128
880 1843 m 1
 1033 1217 l 1
 868 1157 l 1
 580 1724 l 1
 880 1843 l 1
280 1824 m 1
 587 1257 l 1
 443 1158 l 1
 20 1633 l 1
 280 1824 l 1
EndSplineSet
EndChar

StartChar: uni020E
Encoding: 526 526 342
Width: 1714
GlyphClass: 2
Flags: HMW
LayerCount: 2
Fore
SplineSet
1676 808 m 0
 1676 466.761669236 1499.38069571 211.253566269 1273 80 c 128
 1147.66699219 7.3330078125 1008.66699219 -29 856 -29 c 128
 519.081347179 -29 271.227725567 152.8733775 143.5 381 c 128
 71.8330078125 509 36 651.333007812 36 808 c 0
 36 1163.61394832 200.574750618 1425.66861979 435.5 1553 c 128
 558.5 1619.66699219 698.666992188 1653 856 1653 c 128
 1201.09327131 1653 1438.60922884 1493.30232612 1568.5 1259.5 c 128
 1640.16699219 1130.5 1676 980 1676 808 c 0
856 319 m 0
 998.042877745 319 1037.03367462 441.718885018 1056 565 c 128
 1066.65458385 634.254795052 1068.27339266 715.741263618 1066 793 c 1
 1066 858 l 1
 1064.51770958 911.336411589 1067.99226407 964.62921302 1062.5 1016.5 c 128
 1047.40039147 1159.10577543 1012.62556337 1296 856 1296 c 0
 716.212857224 1296 676.655694889 1187.30469902 655.5 1068.5 c 128
 647.362425563 1022.80156812 647.643893644 974.023487142 645.5 924 c 128
 644.5 900.666992188 644.666992188 878.666992188 646 858 c 1
 646 793 l 1
 649.128321658 699.196152998 645.873977164 601.905784387 663.5 522 c 128
 686.557663308 417.470425184 729.544579098 319 856 319 c 0
858 1860 m 128
 768.781672117 1860 706 1792.64576489 706 1699 c 1
 454 1699 l 1
 454 1878.80790695 570.754944381 1978.30855769 709.5 2021 c 128
 757.166992188 2035.66699219 806.666992188 2043 858 2043 c 128
 1032.24264541 2043 1166.69197498 1967.09180776 1227.5 1849 c 128
 1250.5 1804.33300781 1262 1754.33300781 1262 1699 c 1
 1010 1699 l 1
 1010 1792.68028514 947.246215384 1860 858 1860 c 128
EndSplineSet
EndChar

StartChar: uni020F
Encoding: 527 527 343
Width: 1271
GlyphClass: 2
Flags: HMW
LayerCount: 2
Fore
SplineSet
639 1091 m 128
 1000.34642804 1091 1241 902.902529914 1241 547 c 0
 1241 301.63717213 1122.27875127 130.696959138 952.5 48 c 128
 862.166992188 4 757.666992188 -18 639 -18 c 128
 388.629198379 -18 209.61193816 80.9288885934 113.5 243 c 128
 62.5 329 37 430.333007812 37 547 c 0
 37 902.870301617 277.703463232 1091 639 1091 c 128
639 779 m 128
 517.307772235 779 502 666.27044681 502 545 c 0
 502 377.666992188 547.666992188 294 639 294 c 128
 730.333007812 294 776 377.666992188 776 545 c 0
 776 666.293005352 760.696395535 779 639 779 c 128
640 1313 m 128
 550.781672117 1313 488 1245.64576489 488 1152 c 1
 236 1152 l 1
 236 1331.80790695 352.754944381 1431.30855769 491.5 1474 c 128
 539.166992188 1488.66699219 588.666992188 1496 640 1496 c 128
 814.242645405 1496 948.691974984 1420.09180776 1009.5 1302 c 128
 1032.5 1257.33300781 1044 1207.33300781 1044 1152 c 1
 792 1152 l 1
 792 1245.68028514 729.246215384 1313 640 1313 c 128
EndSplineSet
EndChar

StartChar: uni0210
Encoding: 528 528 344
Width: 1727
GlyphClass: 2
Flags: HMW
LayerCount: 2
Fore
SplineSet
1602 1170 m 0
 1602 1498.31788817 1400.25600075 1623 1073 1623 c 2
 58 1623 l 1
 58 1270 l 1
 213 1270 l 1
 213 359 l 1
 59 359 l 1
 59 -1 l 1
 423 -0.3330078125 693 0 869 0 c 1
 869 359 l 1
 748 359 l 1
 748 694 l 1
 846 694 l 2
 999.197931752 694 1032 603.716453908 1032 451 c 2
 1032 256 l 2
 1032 128.605653453 1087.04909351 51.1288304271 1185.5 23 c 128
 1254.09662543 3.40096416329 1330.78547015 0 1422 0 c 2
 1684 0 l 1
 1684 359 l 1
 1606.08604904 359 1539.44975282 363.52477815 1524.5 420 c 128
 1521.5 431.333007812 1520 446.666992188 1520 466 c 2
 1520 559 l 2
 1520 620.333007812 1498.66699219 671.333007812 1456 712 c 128
 1413.33300781 752.666992188 1342.33300781 784.333007812 1243 807 c 1
 1442.11209527 844.043440337 1602 951.123612865 1602 1170 c 0
1053 1096 m 0
 1053 960.02411295 938.477754534 920 803 920 c 2
 742 920 l 1
 742 1270 l 1
 863 1270 l 2
 975.956345072 1270 1053 1205.94199149 1053 1096 c 0
946 2385 m 1
 1099 1759 l 1
 934 1699 l 1
 646 2266 l 1
 946 2385 l 1
346 2366 m 1
 653 1799 l 1
 509 1700 l 1
 86 2175 l 1
 346 2366 l 1
EndSplineSet
EndChar

StartChar: uni0211
Encoding: 529 529 345
Width: 1077
GlyphClass: 2
Flags: HMW
LayerCount: 2
Fore
SplineSet
1034 1083 m 1
 886.40348878 1083 759.548627554 1003.65380701 702 905 c 1
 698 909 l 1
 698 1072 l 1
 155 1072 l 1
 155 761 l 1
 234 761 l 1
 234 305 l 1
 155 305 l 1
 155 0 l 1
 829 0 l 1
 829 305 l 1
 692 305 l 1
 692 426 l 2
 692 581.397863974 776.145389368 674 928 674 c 1
 1034 667 l 1
 1034 1083 l 1
880 1843 m 1
 1033 1217 l 1
 868 1157 l 1
 580 1724 l 1
 880 1843 l 1
280 1824 m 1
 587 1257 l 1
 443 1158 l 1
 20 1633 l 1
 280 1824 l 1
EndSplineSet
EndChar

StartChar: uni0212
Encoding: 530 530 346
Width: 1727
GlyphClass: 2
Flags: HMW
LayerCount: 2
Fore
SplineSet
1602 1170 m 0
 1602 951.226377349 1441.97787087 844.018468808 1243 807 c 1
 1342.33300781 784.333007812 1413.33300781 752.666992188 1456 712 c 128
 1498.66699219 671.333007812 1520 620.333007812 1520 559 c 2
 1520 466 l 2
 1520 367.789383573 1581.88751483 359 1684 359 c 1
 1684 0 l 1
 1422 0 l 2
 1314.18988129 0 1201.64353502 1.46095370151 1134.5 44.5 c 128
 1070.58018003 85.472643016 1032 149.491579632 1032 256 c 2
 1032 451 l 2
 1032 557.596679793 1017.86286327 643.956611997 944 677 c 128
 918.666992188 688.333007812 886 694 846 694 c 2
 748 694 l 1
 748 359 l 1
 869 359 l 1
 869 0 l 1
 693 0 423 -0.3330078125 59 -1 c 1
 59 359 l 1
 213 359 l 1
 213 1270 l 1
 58 1270 l 1
 58 1623 l 1
 1073 1623 l 2
 1400.26411832 1623 1602 1498.32382975 1602 1170 c 0
1053 1096 m 0
 1053 1205.92473601 975.93189463 1270 863 1270 c 2
 742 1270 l 1
 742 920 l 1
 803 920 l 2
 938.490905726 920 1053 960.019910976 1053 1096 c 0
755 1860 m 128
 665.781672117 1860 603 1792.64576489 603 1699 c 1
 351 1699 l 1
 351 1878.80790695 467.754944381 1978.30855769 606.5 2021 c 128
 654.166992188 2035.66699219 703.666992188 2043 755 2043 c 128
 929.242645405 2043 1063.69197498 1967.09180776 1124.5 1849 c 128
 1147.5 1804.33300781 1159 1754.33300781 1159 1699 c 1
 907 1699 l 1
 907 1792.68028514 844.246215384 1860 755 1860 c 128
EndSplineSet
EndChar

StartChar: uni0213
Encoding: 531 531 347
Width: 979
GlyphClass: 2
Flags: HMW
LayerCount: 2
Fore
SplineSet
831 674 m 1
 679.164133711 674 595 581.374665946 595 426 c 2
 595 305 l 1
 732 305 l 1
 732 0 l 1
 58 0 l 1
 58 305 l 1
 137 305 l 1
 137 761 l 1
 58 761 l 1
 58 1072 l 1
 601 1072 l 1
 601 909 l 1
 605 905 l 1
 662.601361517 1003.74420719 789.29119438 1083 937 1083 c 1
 937 667 l 1
 831 674 l 1
498 1313 m 128
 408.781672117 1313 346 1245.64576489 346 1152 c 1
 94 1152 l 1
 94 1331.80790695 210.754944381 1431.30855769 349.5 1474 c 128
 397.166992188 1488.66699219 446.666992188 1496 498 1496 c 128
 672.242645405 1496 806.691974984 1420.09180776 867.5 1302 c 128
 890.5 1257.33300781 902 1207.33300781 902 1152 c 1
 650 1152 l 1
 650 1245.68028514 587.246215384 1313 498 1313 c 128
EndSplineSet
EndChar

StartChar: uni0214
Encoding: 532 532 348
Width: 1668
GlyphClass: 2
Flags: HMW
LayerCount: 2
Fore
SplineSet
196 704 m 2
 196 245.033688679 364.959171254 -29 826 -29 c 0
 1076.46791027 -29 1274.55182054 81.4324171554 1385 234.5 c 128
 1446.33300781 319.5 1477 414.666992188 1477 520 c 2
 1477 1270 l 1
 1631 1270 l 1
 1631 1622 l 1
 977 1622 l 1
 977 1270 l 1
 1141 1270 l 1
 1141 536 l 2
 1141 416.981133376 1065.2405876 346 945 346 c 0
 805.941654727 346 756 462.040289456 756 600 c 2
 756 1270 l 1
 904 1270 l 1
 904 1622 l 1
 35 1622 l 1
 35 1270 l 1
 196 1270 l 1
 196 704 l 2
1028 2385 m 1
 1181 1759 l 1
 1016 1699 l 1
 728 2266 l 1
 1028 2385 l 1
428 2366 m 1
 735 1799 l 1
 591 1700 l 1
 168 2175 l 1
 428 2366 l 1
EndSplineSet
EndChar

StartChar: uni0215
Encoding: 533 533 349
Width: 1413
GlyphClass: 2
Flags: HMW
LayerCount: 2
Fore
SplineSet
443 -18 m 0
 610.602007843 -18 732.740092003 50.5077454576 801 156 c 1
 801 0 l 1
 1371 0 l 1
 1371 305 l 1
 1295 305 l 1
 1295 1072 l 1
 720 1072 l 1
 720 761 l 1
 801 761 l 1
 801 438 l 2
 801 372.731222069 761.357870299 318 697 318 c 0
 641.42751781 318 607 377.824745014 607 438 c 2
 607 1072 l 1
 33 1072 l 1
 33 761 l 1
 113 761 l 1
 113 385 l 2
 113 116.333007812 223 -18 443 -18 c 0
893 1843 m 1
 1046 1217 l 1
 881 1157 l 1
 593 1724 l 1
 893 1843 l 1
293 1824 m 1
 600 1257 l 1
 456 1158 l 1
 33 1633 l 1
 293 1824 l 1
EndSplineSet
EndChar

StartChar: uni0216
Encoding: 534 534 350
Width: 1668
GlyphClass: 2
Flags: HMW
LayerCount: 2
Fore
SplineSet
945 346 m 0
 1065.25019487 346 1141 416.974547707 1141 536 c 2
 1141 1270 l 1
 977 1270 l 1
 977 1622 l 1
 1631 1622 l 1
 1631 1270 l 1
 1477 1270 l 1
 1477 520 l 2
 1477 284.805197051 1316.45847558 117.777392932 1145 39 c 128
 1046.33300781 -6.3330078125 940 -29 826 -29 c 0
 364.961439951 -29 196 245.036144309 196 704 c 2
 196 1270 l 1
 35 1270 l 1
 35 1622 l 1
 904 1622 l 1
 904 1270 l 1
 756 1270 l 1
 756 600 l 2
 756 462.033495235 805.938379001 346 945 346 c 0
905 1860 m 128
 815.781672117 1860 753 1792.64576489 753 1699 c 1
 501 1699 l 1
 501 1878.80790695 617.754944381 1978.30855769 756.5 2021 c 128
 804.166992188 2035.66699219 853.666992188 2043 905 2043 c 128
 1079.2426454 2043 1213.69197498 1967.09180776 1274.5 1849 c 128
 1297.5 1804.33300781 1309 1754.33300781 1309 1699 c 1
 1057 1699 l 1
 1057 1792.68028514 994.246215384 1860 905 1860 c 128
EndSplineSet
EndChar

StartChar: uni0217
Encoding: 535 535 351
Width: 1414
GlyphClass: 2
Flags: HMW
LayerCount: 2
Fore
SplineSet
697 318 m 0
 761.351176736 318 801 372.743947523 801 438 c 2
 801 761 l 1
 720 761 l 1
 720 1072 l 1
 1295 1072 l 1
 1295 305 l 1
 1371 305 l 1
 1371 0 l 1
 801 0 l 1
 801 156 l 1
 732.704500259 50.4527402073 610.660266812 -18 443 -18 c 0
 223 -18 113 116.333007812 113 385 c 2
 113 761 l 1
 33 761 l 1
 33 1072 l 1
 607 1072 l 1
 607 438 l 2
 607 377.777684196 641.389938709 318 697 318 c 0
674 1313 m 128
 584.781672117 1313 522 1245.64576489 522 1152 c 1
 270 1152 l 1
 270 1331.80790695 386.754944381 1431.30855769 525.5 1474 c 128
 573.166992188 1488.66699219 622.666992188 1496 674 1496 c 128
 848.242645405 1496 982.691974984 1420.09180776 1043.5 1302 c 128
 1066.5 1257.33300781 1078 1207.33300781 1078 1152 c 1
 826 1152 l 1
 826 1245.68028514 763.246215384 1313 674 1313 c 128
EndSplineSet
EndChar

StartChar: Scommaaccent
Encoding: 536 536 352
Width: 1264
GlyphClass: 2
Flags: HMW
LayerCount: 2
Fore
SplineSet
34 1133 m 0
 34 1440.87105874 185.686199045 1653 490 1653 c 0
 618.666992188 1653 722.666992188 1623 802 1563 c 1
 804.666992188 1571 815.333007812 1591 834 1623 c 1
 1119 1623 l 1
 1119 1107 l 1
 812 1107 l 1
 790.817134709 1198.79241626 703.666158408 1305 595 1305 c 0
 535.439739301 1305 501 1273.31977947 501 1213 c 0
 501 1163.48388397 549.988708177 1139.00479006 592 1123 c 128
 656.931256296 1098.26352844 732.382226346 1079.68570744 803.5 1055 c 128
 891.087448555 1024.59749976 971.371724617 991.778245017 1040 937.5 c 128
 1155.61892625 846.056751974 1232.04257759 713.835252101 1236 508 c 0
 1238.97367451 356.305564887 1179.63205705 224.965923233 1107.5 137 c 128
 1034.51602957 47.9951580101 911.709126938 -29 758 -29 c 0
 595.621018776 -29 524.586252971 11.1193244096 429 92 c 1
 393 0 l 1
 70 0 l 1
 70 518 l 1
 392 518 l 1
 421.77393199 434.401831045 517.088016791 334 625 334 c 0
 681.3315694 334 734 364.063036606 734 420 c 0
 734 465.887226049 696.884782619 499.971592391 665 514 c 128
 620.690655293 533.494865493 542.83034478 552.376413314 499 566.5 c 128
 305.670265467 628.797234448 134.717697162 718.065380939 69 907 c 128
 47.1880132089 969.708213972 34 1047.26080776 34 1133 c 0
376 -674 m 1
 474.316025 -674 542.58972243 -649.321567135 557.5 -568 c 128
 565.788797915 -522.792388477 565 -506.570282695 565 -451 c 1
 376 -451 l 1
 376 -85 l 1
 886 -85 l 1
 902 -188.333007812 910 -280.666992188 910 -362 c 0
 910 -731.128169972 743.73414808 -899 376 -899 c 1
 376 -674 l 1
EndSplineSet
EndChar

StartChar: scommaaccent
Encoding: 537 537 353
Width: 1034
GlyphClass: 2
Flags: HMW
LayerCount: 2
Fore
SplineSet
236 -674 m 1
 334.316025 -674 402.58972243 -649.321567135 417.5 -568 c 128
 425.788797915 -522.792388477 425 -506.570282695 425 -451 c 1
 236 -451 l 1
 236 -85 l 1
 746 -85 l 1
 762 -187.666992188 770 -280 770 -362 c 0
 770 -731.128169972 603.73414808 -899 236 -899 c 1
 236 -674 l 1
479 1092 m 0
 584.007817075 1092 719.86221111 1070.19723059 773 1033 c 1
 800 1081 l 1
 968 1081 l 1
 968 761 l 1
 767 761 l 1
 758 782 l 2
 751.247078536 799.727500845 733.667229875 843.918617521 724 856 c 1
 702.214739433 888.104329329 651.959000354 920 601 920 c 0
 553.318195593 920 509 893.489776897 509 846 c 0
 509 800.720509546 566.945977173 770.645195555 604 759 c 128
 634.787504489 749.324221688 719.685525924 728.754556871 747 719 c 1
 907.666992188 653.666992188 988 545.666992188 988 395 c 0
 988 124.515862409 847.535890496 -18 577 -18 c 0
 438.333007812 -18 335.666992188 13.3330078125 269 76 c 1
 233 9 l 1
 56 9 l 1
 63 387 l 1
 284 387 l 1
 298.37125196 304.365301228 360.099382665 209 454 209 c 0
 506.112578186 209 562 235.084426405 562 287 c 0
 562 341.219311457 508.376632773 369.493148579 463.5 386 c 128
 359.740536321 424.165565121 245.941971458 456.124912461 165.5 519 c 128
 108.037117713 563.914162204 67 643.444278246 67 746 c 0
 67 986.285013438 237.581286589 1092 479 1092 c 0
EndSplineSet
EndChar

StartChar: uni021A
Encoding: 538 538 354
Width: 1548
GlyphClass: 2
Flags: HMW
LayerCount: 2
Fore
SplineSet
1219 965 m 1
 1157 1270 l 1
 1051 1270 l 1
 1051 360 l 1
 1215 360 l 1
 1215 0 l 1
 324 0 l 1
 324 360 l 1
 488 360 l 1
 488 1270 l 1
 388 1270 l 1
 324 965 l 1
 43 965 l 1
 43 1622 l 1
 1500 1622 l 1
 1500 965 l 1
 1219 965 l 1
378 -674 m 1
 476.316025 -674 544.58972243 -649.321567135 559.5 -568 c 128
 567.788797915 -522.792388477 567 -506.570282695 567 -451 c 1
 378 -451 l 1
 378 -85 l 1
 888 -85 l 1
 904 -187.666992188 912 -280 912 -362 c 0
 912 -731.128169972 745.73414808 -899 378 -899 c 1
 378 -674 l 1
EndSplineSet
EndChar

StartChar: uni021B
Encoding: 539 539 355
Width: 870
GlyphClass: 2
Flags: HMW
LayerCount: 2
Fore
SplineSet
621 438 m 2
 621 376.874059531 651.947262907 334 719 334 c 0
 749 334 785 338.666992188 827 348 c 1
 827 49 l 1
 790 32 l 2
 732.810027142 5.72462745937 608.98363635 -18 519 -18 c 0
 264.333007812 -18 137.666992188 116.333007812 139 385 c 2
 140 761 l 1
 32 761 l 1
 32 1072 l 1
 135 1072 l 1
 135 1301 l 1
 622 1406 l 1
 622 1072 l 1
 774 1072 l 1
 774 761 l 1
 622 761 l 1
 621 438 l 2
228 -674 m 1
 326.316025 -674 394.58972243 -649.321567135 409.5 -568 c 128
 417.788797915 -522.792388477 417 -506.570282695 417 -451 c 1
 228 -451 l 1
 228 -85 l 1
 738 -85 l 1
 754 -187.666992188 762 -280 762 -362 c 0
 762 -731.128169972 595.73414808 -899 228 -899 c 1
 228 -674 l 1
EndSplineSet
EndChar

StartChar: uni0237
Encoding: 567 567 356
Width: 700
GlyphClass: 2
Flags: HMW
LayerCount: 2
Fore
SplineSet
26 -72 m 1
 74.6623214846 -77.4075846344 133 -57.4703907998 133 -9 c 2
 133 760 l 1
 43 760 l 1
 43 1072 l 1
 632 1072 l 1
 632 129 l 2
 632 -149.569351571 539.724882429 -305.752190336 318.5 -366 c 128
 240.166992188 -387.333007812 143.333007812 -398 28 -398 c 1
 26 -72 l 1
EndSplineSet
EndChar

StartChar: circumflex
Encoding: 710 710 357
Width: 923
GlyphClass: 2
Flags: HMW
LayerCount: 2
Fore
SplineSet
596 1600 m 1
 870 1224 l 1
 716 1123 l 1
 461 1368 l 1
 206 1123 l 1
 52 1224 l 1
 325 1601 l 1
 596 1600 l 1
EndSplineSet
EndChar

StartChar: caron
Encoding: 711 711 358
Width: 924
GlyphClass: 2
Flags: HMW
LayerCount: 2
Fore
SplineSet
327 1149 m 1
 54 1526 l 1
 208 1627 l 1
 463 1382 l 1
 718 1627 l 1
 872 1526 l 1
 598 1150 l 1
 327 1149 l 1
EndSplineSet
EndChar

StartChar: breve
Encoding: 728 728 359
Width: 926
GlyphClass: 2
Flags: HMW
LayerCount: 2
Fore
SplineSet
868 1622 m 1
 868 1377.4249768 715.226258769 1245 464 1245 c 0
 210.458735427 1245 60 1375.51130195 60 1622 c 1
 312 1622 l 1
 312 1528.31971486 374.753784616 1461 464 1461 c 128
 553.218327883 1461 616 1528.35423511 616 1622 c 1
 868 1622 l 1
EndSplineSet
EndChar

StartChar: dotaccent
Encoding: 729 729 360
Width: 685
GlyphClass: 2
Flags: HMW
LayerCount: 2
Fore
SplineSet
625 1395 m 0
 625 1238.78841692 495.571749024 1145 338 1145 c 0
 182.567184446 1145 61 1240.20371499 61 1395 c 0
 61 1549.57739728 181.227090866 1640 338 1640 c 0
 498.570266444 1640 625 1551.92677972 625 1395 c 0
EndSplineSet
EndChar

StartChar: ring
Encoding: 730 730 361
Width: 668
GlyphClass: 2
Flags: HMW
LayerCount: 2
Fore
SplineSet
169 1388 m 0
 169 1301.02348292 238.397123761 1240 330 1240 c 0
 423.150451871 1240 495 1299.80185268 495 1388 c 0
 495 1475.75705184 423.365119287 1533 330 1533 c 0
 238.079970675 1533 169 1474.89706443 169 1388 c 0
330 1633 m 0
 488.934887467 1633 610 1538.1645352 610 1389 c 0
 610 1321.66699219 585.166992188 1263 535.5 1213 c 128
 485.833007812 1163 417.333007812 1138 330 1138 c 0
 245.333007812 1138 179 1163 131 1213 c 128
 83 1263 59 1321.66699219 59 1389 c 0
 59 1535.48858795 174.552004428 1633 330 1633 c 0
EndSplineSet
EndChar

StartChar: ogonek
Encoding: 731 731 362
Width: 527
GlyphClass: 2
Flags: HMW
LayerCount: 2
Fore
SplineSet
437 -485 m 2
 283.428749714 -485 68 -420.474665183 68 -285 c 0
 68 -238.870486887 102.869313742 -191.968367262 123 -161 c 128
 143.847046141 -128.929608908 208.487986924 -34.7064781664 231 0 c 1
 411 0 l 1
 380.64775157 -62.7988127353 317.905578314 -159.890343513 288.5 -214.5 c 128
 276.833007812 -236.166992188 271 -255 271 -271 c 0
 271 -300.333007812 286 -324.333007812 316 -343 c 128
 346 -361.666992188 393.333007812 -371.333007812 458 -372 c 1
 458 -485 l 1
 437 -485 l 2
EndSplineSet
EndChar

StartChar: tilde
Encoding: 732 732 363
Width: 1000
GlyphClass: 2
Flags: HMW
LayerCount: 2
Fore
SplineSet
674 1523 m 0
 775.937321454 1523 823.822157438 1447.69564332 861.5 1382 c 128
 883.956538568 1342.84444736 921.598655019 1267.24572526 946 1232 c 1
 833 1158 l 1
 784.333007812 1204.66699219 750.833007812 1234.33300781 732.5 1247 c 128
 714.166992188 1259.66699219 698.666992188 1266 686 1266 c 0
 656 1266 620.333007812 1256 579 1236 c 128
 537.666992188 1216 494.833007812 1195.83300781 450.5 1175.5 c 128
 406.166992188 1155.16699219 365.666992188 1145 329 1145 c 0
 226.319761701 1145 177.578383918 1218.24604412 140 1284.5 c 128
 118.088239324 1323.13233789 79.0546836968 1400.2549983 55 1435 c 1
 169 1510 l 1
 219.666992188 1461.33300781 254.333007812 1430.5 273 1417.5 c 128
 291.666992188 1404.5 307 1398 319 1398 c 0
 376.647181426 1398 447.849656083 1436.30634136 488 1460.5 c 128
 532.011546455 1487.02032902 607.611957486 1523 674 1523 c 0
EndSplineSet
EndChar

StartChar: hungarumlaut
Encoding: 733 733 364
Width: 1011
GlyphClass: 2
Flags: HMW
LayerCount: 2
Fore
SplineSet
507 1695 m 1
 219 1128 l 1
 54 1188 l 1
 207 1814 l 1
 507 1695 l 1
961 1604 m 1
 538 1129 l 1
 394 1228 l 1
 701 1795 l 1
 961 1604 l 1
EndSplineSet
EndChar

StartChar: Sigma
Encoding: 931 931 365
Width: 1395
GlyphClass: 2
Flags: HMW
LayerCount: 2
Fore
SplineSet
741 350 m 1
 990 350 l 1
 1010.74297295 466.923693722 1040.8564602 574.476873135 1066 687 c 1
 1339 687 l 1
 1339 0 l 1
 60 0 l 1
 60 348 l 1
 218 348 l 1
 406 833 l 1
 218 1270 l 1
 60 1270 l 1
 60 1623 l 1
 1328 1623 l 1
 1328 969 l 1
 1060 968 l 1
 984 1270 l 1
 741 1270 l 1
 922 833 l 1
 741 350 l 1
EndSplineSet
EndChar

StartChar: Omega
Encoding: 937 937 366
Width: 1466
GlyphClass: 2
Flags: HMW
LayerCount: 2
Fore
SplineSet
1420 952 m 0
 1420 683.255906541 1284.97974398 455.105524447 1133 312 c 1
 1374 312 l 1
 1374 0 l 1
 822 0 l 1
 822 347 l 1
 854.513031972 353.502606394 863.373432621 356.586479295 891 388.5 c 128
 951.593299033 458.495865818 976.695252905 531.581026279 998 669 c 128
 1011.33300781 755 1018 856.333007812 1018 973 c 0
 1018 1152.54190348 981.403316835 1312.51061017 871 1382.5 c 128
 833.666992188 1406.16699219 789.333007812 1418 738 1418 c 128
 513.834636486 1418 458 1198.40808369 458 973 c 0
 458 788.806214257 476.06380351 594.317943888 526 481 c 128
 543.333007812 441.666992188 563.333007812 410.666992188 586 388 c 128
 616.117824549 357.882175451 623.316633794 347 654 347 c 1
 654 0 l 1
 102 0 l 1
 102 312 l 1
 343 312 l 1
 190.762562679 455.348170866 56 682.91572573 56 952 c 0
 56 1208.02344354 151.173678123 1394.66350744 295 1513 c 128
 397.569183352 1597.39121048 552.614569834 1653 738 1653 c 128
 1021.37852169 1653 1206.97869145 1535.07423551 1314.5 1358.5 c 128
 1380.9814426 1249.32247918 1420 1118.29298119 1420 952 c 0
EndSplineSet
EndChar

StartChar: pi
Encoding: 960 960 367
Width: 1525
GlyphClass: 2
Flags: HMW
LayerCount: 2
Fore
SplineSet
310 761 m 1
 240.666992188 761 189.333007812 750.833007812 156 730.5 c 128
 122.666992188 710.166992188 106 683.666992188 106 651 c 1
 48 651 l 1
 48 749.381461102 46.2138696248 778.996847961 56.5 860.5 c 128
 65.2521346694 929.848388228 75.6965903314 945.847607679 109.5 989 c 128
 143.259597367 1032.09646288 183.682865507 1037.70444936 247.5 1053.5 c 128
 326.10484849 1072.95569752 405.497748452 1072 510 1072 c 2
 1456 1072 l 1
 1456 761 l 1
 1307 761 l 1
 1307 755 1307 755 1307 744 c 0
 1307 526.666992188 1313.66699219 396.166992188 1327 352.5 c 128
 1340.33300781 308.833007812 1383.66699219 287 1457 287 c 1
 1457 -18 l 1
 1356.93726207 -18 1343.58194533 -18.3166596845 1252 -14.5 c 128
 1170.36201643 -11.0977529797 1158.55142697 -7.01216119526 1091 8 c 128
 1029.67621618 21.6281729216 1019.15852851 38.4111066656 976.5 69.5 c 128
 936.060655608 98.9715853629 925.565717885 138.279410589 907 190 c 128
 887.163535238 245.260650608 883 310.791301507 883 388 c 2
 883 761 l 1
 725 761 l 1
 724 0 l 1
 163 0 l 1
 310 761 l 1
EndSplineSet
EndChar

StartChar: uni2010
Encoding: 8208 8208 393
Width: 783
GlyphClass: 2
Flags: HMW
LayerCount: 2
Fore
SplineSet
715 836 m 1
 715 537 l 1
 68 537 l 1
 68 836 l 1
 715 836 l 1
EndSplineSet
EndChar

StartChar: uni2011
Encoding: 8209 8209 394
Width: 783
GlyphClass: 2
Flags: HMW
LayerCount: 2
Fore
SplineSet
715 836 m 1
 715 537 l 1
 68 537 l 1
 68 836 l 1
 715 836 l 1
EndSplineSet
EndChar

StartChar: figuredash
Encoding: 8210 8210 395
Width: 783
GlyphClass: 2
Flags: HMW
LayerCount: 2
Fore
SplineSet
715 836 m 1
 715 537 l 1
 68 537 l 1
 68 836 l 1
 715 836 l 1
EndSplineSet
EndChar

StartChar: endash
Encoding: 8211 8211 396
Width: 783
GlyphClass: 2
Flags: HMW
LayerCount: 2
Fore
SplineSet
715 836 m 1
 715 537 l 1
 68 537 l 1
 68 836 l 1
 715 836 l 1
EndSplineSet
EndChar

StartChar: emdash
Encoding: 8212 8212 397
Width: 1306
GlyphClass: 2
Flags: HMW
LayerCount: 2
Fore
SplineSet
1238 836 m 1
 1238 537 l 1
 68 537 l 1
 68 836 l 1
 1238 836 l 1
EndSplineSet
EndChar

StartChar: quoteleft
Encoding: 8216 8216 398
Width: 651
GlyphClass: 2
Flags: HMW
LayerCount: 2
Fore
SplineSet
586 1428 m 1
 487.683975 1428 419.41027757 1403.32156714 404.5 1322 c 128
 396.211202085 1276.79238848 397 1260.57028269 397 1205 c 1
 586 1205 l 1
 586 839 l 1
 76 839 l 1
 60 941.666992188 52 1034 52 1116 c 0
 52 1485.12816997 218.26585192 1653 586 1653 c 1
 586 1428 l 1
EndSplineSet
EndChar

StartChar: quoteright
Encoding: 8217 8217 399
Width: 649
GlyphClass: 2
Flags: HMW
LayerCount: 2
Fore
SplineSet
64 1034 m 1
 162.316025 1034 230.58972243 1058.67843286 245.5 1140 c 128
 253.788797915 1185.20761152 253 1201.42971731 253 1257 c 1
 64 1257 l 1
 64 1623 l 1
 574 1623 l 1
 590 1519.66699219 598 1427.33300781 598 1346 c 0
 598 976.871830028 431.73414808 809 64 809 c 1
 64 1034 l 1
EndSplineSet
EndChar

StartChar: quotesinglbase
Encoding: 8218 8218 400
Width: 664
GlyphClass: 2
Flags: HMW
LayerCount: 2
Fore
SplineSet
68 -223 m 1
 166.316025 -223 234.58972243 -198.321567135 249.5 -117 c 128
 257.788797915 -71.7923884769 257 -55.5702826945 257 0 c 1
 68 0 l 1
 68 366 l 1
 578 366 l 1
 594 263.333007812 602 171 602 89 c 0
 602 -280.128169972 435.73414808 -448 68 -448 c 1
 68 -223 l 1
EndSplineSet
EndChar

StartChar: quotedblleft
Encoding: 8220 8220 401
Width: 1282
GlyphClass: 2
Flags: HMW
LayerCount: 2
Fore
SplineSet
1217 1428 m 1
 1118.68397499 1428 1050.41027758 1403.32156714 1035.5 1322 c 128
 1027.21120208 1276.79238848 1028 1260.57028269 1028 1205 c 1
 1217 1205 l 1
 1217 839 l 1
 707 839 l 1
 691 941.666992188 683 1034 683 1116 c 0
 683 1485.12816997 849.265851919 1653 1217 1653 c 1
 1217 1428 l 1
586 1428 m 1
 487.683975 1428 419.41027757 1403.32156714 404.5 1322 c 128
 396.211202085 1276.79238848 397 1260.57028269 397 1205 c 1
 586 1205 l 1
 586 839 l 1
 76 839 l 1
 60 941.666992188 52 1034 52 1116 c 0
 52 1485.12816997 218.26585192 1653 586 1653 c 1
 586 1428 l 1
EndSplineSet
EndChar

StartChar: quotedblright
Encoding: 8221 8221 402
Width: 1300
GlyphClass: 2
Flags: HMW
LayerCount: 2
Fore
SplineSet
715 1034 m 1
 813.316025 1034 881.58972243 1058.67843286 896.5 1140 c 128
 904.788797915 1185.20761152 904 1201.42971731 904 1257 c 1
 715 1257 l 1
 715 1623 l 1
 1225 1623 l 1
 1241 1519.66699219 1249 1427.33300781 1249 1346 c 0
 1249 976.871830028 1082.73414808 809 715 809 c 1
 715 1034 l 1
64 1034 m 1
 162.316025 1034 230.58972243 1058.67843286 245.5 1140 c 128
 253.788797915 1185.20761152 253 1201.42971731 253 1257 c 1
 64 1257 l 1
 64 1623 l 1
 574 1623 l 1
 590 1519.66699219 598 1427.33300781 598 1346 c 0
 598 976.871830028 431.73414808 809 64 809 c 1
 64 1034 l 1
EndSplineSet
EndChar

StartChar: quotedblbase
Encoding: 8222 8222 403
Width: 1299
GlyphClass: 2
Flags: HMW
LayerCount: 2
Fore
SplineSet
703 -223 m 1
 801.316025 -223 869.58972243 -198.321567135 884.5 -117 c 128
 892.788797915 -71.7923884769 892 -55.5702826945 892 0 c 1
 703 0 l 1
 703 366 l 1
 1213 366 l 1
 1229 263.333007812 1237 171 1237 89 c 0
 1237 -280.128169972 1070.73414808 -448 703 -448 c 1
 703 -223 l 1
68 -223 m 1
 166.316025 -223 234.58972243 -198.321567135 249.5 -117 c 128
 257.788797915 -71.7923884769 257 -55.5702826945 257 0 c 1
 68 0 l 1
 68 366 l 1
 578 366 l 1
 594 263.333007812 602 171 602 89 c 0
 602 -280.128169972 435.73414808 -448 68 -448 c 1
 68 -223 l 1
EndSplineSet
EndChar

StartChar: dagger
Encoding: 8224 8224 404
Width: 877
GlyphClass: 2
Flags: HMW
LayerCount: 2
Fore
SplineSet
42 1286 m 1
 284 1286 l 1
 284 1623 l 1
 599 1623 l 1
 599 1286 l 1
 834 1286 l 1
 834 991 l 1
 599 991 l 1
 599 0 l 1
 284 0 l 1
 284 991 l 1
 42 991 l 1
 42 1286 l 1
EndSplineSet
EndChar

StartChar: daggerdbl
Encoding: 8225 8225 405
Width: 907
GlyphClass: 2
Flags: HMW
LayerCount: 2
Fore
SplineSet
58 1286 m 1
 300 1286 l 1
 300 1623 l 1
 615 1623 l 1
 615 1286 l 1
 850 1286 l 1
 850 991 l 1
 615 991 l 1
 615 681 l 1
 850 681 l 1
 850 386 l 1
 615 386 l 1
 615 0 l 1
 300 0 l 1
 300 386 l 1
 58 386 l 1
 58 681 l 1
 300 681 l 1
 300 991 l 1
 58 991 l 1
 58 1286 l 1
EndSplineSet
EndChar

StartChar: bullet
Encoding: 8226 8226 406
Width: 899
GlyphClass: 2
Flags: HMW
LayerCount: 2
Fore
SplineSet
57 537 m 2
 57 550 l 2
 57 736.769766936 163.412818269 847.783308245 302.5 895.5 c 128
 348.166992188 911.166992188 396 919 446 919 c 0
 559.753915254 919 652.794153998 878.236872482 720 824 c 128
 791.960014853 765.926389122 846 664.345903643 846 537 c 0
 846 339.161802673 738.522283806 218.954868611 593.5 166.5 c 128
 546.5 149.5 497.666992188 141 447 141 c 0
 332.61960741 141 241.277651175 183.123767687 176 239.5 c 128
 105.097953468 300.733671476 57 406.361187172 57 537 c 2
EndSplineSet
EndChar

StartChar: ellipsis
Encoding: 8230 8230 407
Width: 2166
GlyphClass: 2
Flags: HMW
LayerCount: 2
Fore
SplineSet
2107 223 m 0
 2107 66.7884169208 1977.57174902 -27 1820 -27 c 0
 1664.56718445 -27 1543 68.2037149927 1543 223 c 0
 1543 377.577397285 1663.22709087 468 1820 468 c 0
 1980.57026645 468 2107 379.926779723 2107 223 c 0
1366 223 m 0
 1366 66.7884169208 1236.57174902 -27 1079 -27 c 0
 923.567184445 -27 802 68.2037149927 802 223 c 0
 802 377.577397285 922.227090866 468 1079 468 c 0
 1239.57026645 468 1366 379.926779723 1366 223 c 0
626 223 m 0
 626 66.7884169208 496.571749024 -27 339 -27 c 0
 183.567184446 -27 62 68.2037149927 62 223 c 0
 62 377.577397285 182.227090866 468 339 468 c 0
 499.570266444 468 626 379.926779723 626 223 c 0
EndSplineSet
EndChar

